<svg xmlns="http://www.w3.org/2000/svg" width="122" height="93" viewBox="0 0 122 93" fill="none"><path d="M63.2982 59.4432C62.55 57.6788 61.7906 55.9255 61.0424 54.1611C61.0424 54.1276 61.0312 54.1053 61.0312 54.0718C61.0424 54.0941 61.0536 54.1164 61.0536 54.1276C61.0536 54.1276 61.0536 54.1276 61.0536 54.1388C61.8018 55.9144 62.55 57.6788 63.2982 59.4432Z" fill="#4F4F4F"></path><path d="M82.751 42.7817C83.3317 41.0954 83.9236 39.4203 84.5043 37.7341C83.4322 37.1757 82.3713 36.6174 81.2993 36.0702C81.0424 36.0143 80.7744 35.9697 80.5176 35.9138C81.2658 38.2031 82.014 40.4924 82.751 42.7817Z" fill="#D0E0F4"></path><path d="M81.366 40.9839C80.6178 39.0296 79.8807 37.0754 79.1325 35.1211C79.0544 35.1769 78.9874 35.2216 78.9092 35.2774C78.5072 37.4439 78.1051 39.6215 77.7031 41.7879C78.9204 41.5088 80.1488 41.2519 81.366 40.9839Z" fill="#72A1DB"></path><path d="M77.5137 11.2453C77.8822 13.2443 78.2507 15.2321 78.6081 17.231C78.9207 16.0696 79.2223 14.9082 79.5349 13.7468C79.4568 12.7864 79.3898 11.826 79.3116 10.8545C78.7197 10.888 78.139 10.9215 77.5472 10.9662C77.536 11.0667 77.5248 11.156 77.5137 11.2453Z" fill="#D0E0F4"></path><path d="M81.6902 28.3983C81.9805 27.516 82.2597 26.6338 82.55 25.7516C81.3886 23.7192 80.2161 21.6867 79.0547 19.6543C79.9369 22.569 80.8079 25.4836 81.6902 28.3983Z" fill="#011333"></path><path d="M77.5578 49.3034C78.4065 46.8913 79.2441 44.4791 80.0928 42.067C80.0481 42.0447 80.0146 42.0223 79.97 42C79.1212 43.0944 78.2837 44.1888 77.435 45.2832C77.435 46.6121 77.435 47.9521 77.4238 49.281C77.4797 49.2922 77.5243 49.3034 77.5578 49.3034Z" fill="#BDCBDB"></path><path d="M79.9707 23.429C79.9148 23.4736 79.8478 23.5183 79.792 23.563C79.8478 23.5071 79.9148 23.4625 79.9707 23.429Z" fill="#848484"></path><path d="M78.5635 19.6546C78.5751 19.6546 78.5751 19.6429 78.5635 19.6546C78.5635 19.6429 78.5635 19.6546 78.5635 19.6546Z" fill="#848484"></path><path d="M76.3073 20.4025C78.0382 23.0826 79.758 25.7628 81.4889 28.4541C81.5559 28.4429 81.6229 28.4206 81.7011 28.4094C80.8189 25.4948 79.9366 22.5801 79.0544 19.6654C77.0555 18.3812 75.0566 17.097 73.0576 15.8127C74.1297 17.3315 75.2129 18.8726 76.3073 20.4025Z" fill="#D0E0F4"></path><path d="M81.4893 28.4541C81.5563 28.4429 81.6233 28.4206 81.7014 28.4094C81.6233 28.4206 81.5563 28.4318 81.4893 28.4541Z" fill="#858585"></path><path d="M78.6084 17.2312C78.7536 18.0352 78.9099 18.8393 79.0551 19.6545C79.3901 19.2971 79.7251 18.951 80.049 18.5936C79.5688 18.1357 79.0886 17.6891 78.6084 17.2312Z" fill="#D0E0F4"></path><path d="M69.0484 54.1724C68.9925 54.2394 68.9367 54.3064 68.8809 54.3734C68.9255 54.3064 68.9925 54.2394 69.0484 54.1724Z" fill="#696969"></path><path d="M67.899 55.5906C67.8431 55.6576 67.7873 55.7246 67.7314 55.7916C67.7873 55.7134 67.8431 55.6464 67.899 55.5906Z" fill="#696969"></path><path d="M68.4906 54.8423C68.4571 54.8981 68.4236 54.9428 68.3789 54.9986C68.4236 54.9428 68.4571 54.887 68.4906 54.8423Z" fill="#696969"></path><path d="M81.1211 36.0479C81.1881 36.0479 81.2439 36.059 81.3109 36.059C81.2439 36.059 81.1769 36.059 81.1211 36.0479Z" fill="#A7A7A7"></path><path d="M68.3678 55.021C68.3454 55.0433 68.3231 55.0657 68.3008 55.0992C68.3231 55.0768 68.3454 55.0433 68.3678 55.021Z" fill="#696969"></path><path d="M68.1108 55.3115C68.0773 55.345 68.055 55.3785 68.0215 55.412C68.055 55.3785 68.0773 55.345 68.1108 55.3115Z" fill="#696969"></path><path d="M69.0265 44.1887C67.2956 44.7247 65.5758 45.2608 63.8449 45.7968C62.65 46.1318 61.4439 46.4668 60.249 46.8019C61.4439 46.4445 62.6388 46.0872 63.8449 45.7298C65.5646 45.2161 67.2956 44.7024 69.0265 44.1887Z" fill="#D1D1D1"></path><path d="M69.2388 44.468C69.183 44.468 69.1271 44.468 69.0713 44.468C69.0936 44.5574 69.116 44.6467 69.1383 44.736L69.1495 44.7472C69.1718 44.7472 69.2053 44.736 69.2276 44.736C69.2388 44.6467 69.2388 44.5574 69.2388 44.468Z" fill="#818181"></path><path d="M68.9598 7.85059C68.4349 9.61501 67.8989 11.3794 67.374 13.1327C67.8989 11.3794 68.4237 9.61501 68.9598 7.85059Z" fill="#818181"></path><path d="M78.8316 34.5738C79.7138 32.5302 80.596 30.4866 81.4783 28.443C79.8813 28.1527 78.2844 27.8511 76.6875 27.5608C77.4022 29.8947 78.1169 32.2399 78.8316 34.5738Z" fill="#EDEDED"></path><path d="M79.513 33.323C79.4125 33.5463 79.3232 33.7585 79.2227 33.9819C79.3232 33.7585 79.4125 33.5463 79.513 33.323Z" fill="#A7A7A7"></path><path d="M79.7025 32.9434C79.6355 33.0662 79.5797 33.2002 79.5127 33.323C79.5685 33.2002 79.6355 33.0662 79.7025 32.9434Z" fill="#A7A7A7"></path><path d="M79.892 32.4744C79.825 32.6307 79.758 32.787 79.7021 32.9434C79.758 32.787 79.825 32.6307 79.892 32.4744Z" fill="#A7A7A7"></path><path d="M77.5253 8.16329C77.5253 8.08512 77.5253 8.00694 77.5253 7.93994C77.1232 8.04045 76.7212 8.15212 76.308 8.25263C75.4593 8.4648 74.5994 8.67698 73.7396 8.88916C73.7061 8.92266 73.6614 8.95616 73.6279 8.98966C73.5721 10.6312 73.5162 12.2617 73.4492 13.9033C73.4939 13.9144 73.5497 13.9144 73.5944 13.9256C73.6167 13.9256 73.6279 13.9256 73.6502 13.9256C74.9568 11.9937 76.241 10.0729 77.5253 8.16329Z" fill="#D0E0F4"></path><path d="M79.4121 21.0615C79.4456 21.1509 79.4791 21.2514 79.5014 21.3407C79.5014 21.2514 79.5014 21.1509 79.4903 21.0615C79.4791 21.0615 79.4456 21.0615 79.4121 21.0615Z" fill="#858585"></path><path d="M74.7109 33.6804C76.0845 33.982 77.4581 34.2723 78.8317 34.5738C78.117 32.2399 77.4022 29.8947 76.6875 27.5608C76.0287 29.6044 75.3698 31.648 74.7109 33.6804Z" fill="#D0E0F4"></path><path d="M63.8449 45.7969C62.65 46.1319 61.4439 46.4669 60.249 46.802C61.3546 45.5736 62.4713 44.3563 63.5769 43.1279C63.6662 43.999 63.7555 44.8589 63.8449 45.7299C63.8337 45.7522 63.8449 45.7746 63.8449 45.7969Z" fill="#D0E0F4"></path><path d="M67.3738 13.1438C66.9606 14.7966 66.5362 16.4605 66.123 18.1132C66.2571 17.5437 66.3911 16.9742 66.5362 16.3935C66.8043 15.2879 67.0834 14.2047 67.3738 13.1438Z" fill="#606060"></path><path d="M76.6877 27.5607C75.6714 26.9242 74.6441 26.2877 73.6278 25.6511C73.4492 26.578 73.2705 27.4937 73.0918 28.4206C74.2979 28.1414 75.4928 27.8511 76.6877 27.5607Z" fill="#D0E0F4"></path><path d="M76.5869 28.2085C76.6874 28.4653 76.7879 28.7222 76.8884 28.979C76.7879 28.7222 76.6874 28.4653 76.5869 28.2085Z" fill="#A7A7A7"></path><path d="M78.4746 33.323C78.5416 33.5128 78.5975 33.7027 78.6645 33.8925C78.5975 33.7027 78.5416 33.5128 78.4746 33.323Z" fill="#A7A7A7"></path><path d="M71.2266 10.7429C71.9748 11.7926 72.723 12.8423 73.4712 13.8809C73.527 12.2393 73.5828 10.6089 73.6499 8.96729C72.8346 9.57032 72.0306 10.1622 71.2266 10.7429Z" fill="#91A0B5"></path><path d="M74.3313 33.9149C73.1364 32.6865 71.9415 31.4469 70.7578 30.2185C70.7913 31.7931 70.8248 33.3677 70.8471 34.9423C72.0085 34.5961 73.1699 34.2611 74.3313 33.9149Z" fill="#D0E0F4"></path><path d="M74.6101 33.8926C74.6436 33.8256 74.6771 33.7586 74.7218 33.6804C75.3807 31.6368 76.0395 29.5932 76.6984 27.5608C75.5035 27.8511 74.2974 28.1415 73.1025 28.4207C73.5939 30.2521 74.1076 32.0724 74.6101 33.8926Z" fill="#EDEDED"></path><path d="M76.0171 28.6106C75.9836 28.6999 75.9501 28.8004 75.9277 28.8898C75.9612 28.8004 75.9836 28.6999 76.0171 28.6106Z" fill="#A7A7A7"></path><path d="M67.3632 38.7839C67.3632 38.2814 67.352 37.7789 67.352 37.2764C66.816 37.522 66.2799 37.7789 65.7439 38.0246H65.7551C65.7216 38.0581 65.6769 38.0916 65.6434 38.1251C65.5206 38.1586 65.4089 38.1921 65.2861 38.2144C65.2526 38.2256 65.219 38.2479 65.1855 38.2591C65.2414 38.4043 65.3084 38.5383 65.3642 38.6834C66.0231 38.7281 66.6931 38.7504 67.3632 38.7839Z" fill="#1C1C1C"></path><path d="M70.7572 30.2186C70.7907 31.7932 70.8242 33.3678 70.8465 34.9424C70.7795 34.9982 70.7125 35.0652 70.6455 35.1211C70.5896 35.1434 70.5226 35.1657 70.4668 35.1881C69.9196 35.3779 69.3612 35.5789 68.814 35.7688C68.6689 35.8134 68.5237 35.8469 68.3674 35.8804C68.3562 35.5231 68.345 35.1546 68.345 34.7972C68.2333 34.719 68.1217 34.6409 68.01 34.5627C67.6415 34.9982 67.2841 35.4337 66.9156 35.8693C66.9044 35.8916 66.8933 35.9028 66.8933 35.9251C66.8821 35.9474 66.8598 35.9809 66.8486 36.0033C66.8374 36.0256 66.8263 36.0479 66.8263 36.0703C66.6923 36.852 66.2567 37.4662 65.7431 38.0357H65.7542C65.7207 38.0692 65.6761 38.1027 65.6426 38.1362C65.5197 38.1697 65.408 38.2032 65.2852 38.2256C65.0619 37.8124 64.8497 37.4103 64.6263 36.9972C64.3136 36.986 63.9898 36.9637 63.6771 36.9525C63.3309 36.9413 62.9847 36.919 62.6386 36.9078C63.1076 36.316 63.5766 35.7241 64.0568 35.1211C64.068 34.4287 64.0903 33.7363 64.1015 33.0439C63.5208 32.5079 62.9401 31.9719 62.3594 31.4359C63.0406 31.4024 63.7218 31.38 64.47 31.3465C64.202 30.8663 63.934 30.3861 63.6659 29.906C63.5878 29.7608 63.4984 29.6044 63.4203 29.4593C63.6436 28.8562 63.8558 28.2532 64.0791 27.6502C65.0395 28.7111 65.9999 29.7719 66.9714 30.8328L68.3339 27.1365C68.3562 27.1253 68.3897 27.1141 68.412 27.103C68.8364 27.0025 69.2607 26.9131 69.6851 26.7903C69.9419 26.7121 70.1765 26.6898 70.411 26.7456C70.6343 26.8015 70.7795 26.902 70.8353 26.9355C71.2038 27.1923 72.0191 27.7172 73.1246 28.4207C72.3094 29.0237 71.5389 29.6156 70.7572 30.2186Z" fill="#EDEDED"></path><path d="M70.6575 35.1211C69.8982 35.3668 69.1388 35.6236 68.3794 35.8693C68.0891 36.2713 67.8099 36.6845 67.5195 37.0865C68.5581 36.4388 69.6078 35.78 70.6575 35.1211Z" fill="#ADADAD"></path><path d="M70.7578 30.2186C71.9527 31.447 73.1476 32.6865 74.3313 33.9149C74.4207 33.9038 74.51 33.9038 74.6105 33.8926C74.108 32.0723 73.6055 30.2521 73.1029 28.4207C72.3101 29.0237 71.5395 29.6156 70.7578 30.2186Z" fill="#D0E0F4"></path><path d="M66.9043 21.7428C67.1723 22.2118 67.5297 22.3793 68.0545 22.0778C68.3784 21.8991 68.5682 21.4859 68.8139 21.1732C68.5235 21.1062 68.222 21.0504 67.9317 20.9834C67.5967 21.2291 67.2505 21.4859 66.9043 21.7428Z" fill="#858585"></path><path d="M67.1622 21.1621C67.1845 21.0951 67.2068 21.0281 67.2292 20.9611C67.151 20.8829 67.0728 20.8047 66.9835 20.7265C66.95 20.693 66.9276 20.6707 66.8941 20.6372C66.6373 21.1956 66.3916 21.7428 66.1348 22.3011C66.3804 22.0108 66.6261 21.7204 66.8718 21.4301C66.9723 21.3407 67.0728 21.2514 67.1622 21.1621Z" fill="#1C1C1C"></path><path d="M73.6611 30.4978C73.7281 30.777 73.7951 31.0673 73.8621 31.3465C73.784 31.0562 73.7281 30.777 73.6611 30.4978Z" fill="#D0E0F4"></path><path d="M73.8506 31.3464C73.9176 31.5698 73.9734 31.782 74.0404 32.0053C73.9846 31.782 73.9176 31.5586 73.8506 31.3464Z" fill="#A7A7A7"></path><path d="M74.041 32.0054C74.108 32.1952 74.1639 32.3851 74.2309 32.5749C74.1639 32.3851 74.108 32.1952 74.041 32.0054Z" fill="#A7A7A7"></path><path d="M65.2742 38.2255C65.0509 37.8123 64.8387 37.4103 64.6153 36.9971C64.392 37.4103 64.1687 37.8123 63.9453 38.2255C64.0347 38.3818 64.1352 38.5382 64.2245 38.6833C64.593 38.6833 64.9727 38.6833 65.3412 38.6833C65.3301 38.5382 65.2965 38.3818 65.2742 38.2255Z" fill="#16417F"></path><path d="M65.7435 38.0356C65.71 38.0691 65.6653 38.1026 65.6318 38.1361C65.6653 38.1026 65.71 38.0691 65.7435 38.0356Z" fill="#4A4A4A"></path><path d="M64.6157 36.9972C64.3923 37.4104 64.169 37.8124 63.9456 38.2256C63.9121 38.2256 63.8786 38.2256 63.8563 38.2256C63.3873 37.8459 62.9294 37.4551 62.4604 37.0754C62.4604 37.0531 62.4492 37.0307 62.4492 36.9972C62.5051 36.9637 62.5609 36.9302 62.6279 36.8967C62.9741 36.9191 63.3203 36.9302 63.6665 36.9414C63.9903 36.9749 64.303 36.9861 64.6157 36.9972Z" fill="#16417F"></path><path d="M62.3374 31.4358C62.3374 31.447 62.3374 31.447 62.3374 31.4358C62.3374 31.447 62.3374 31.447 62.3374 31.4358C62.3039 31.447 62.2816 31.447 62.2481 31.447H58.373C59.0207 31.447 59.6685 31.447 60.3162 31.447C60.9639 31.447 61.6116 31.447 62.2481 31.447H62.3374V31.4358Z" fill="#1C1C1C"></path><path d="M62.6279 36.9077C62.5721 36.9412 62.5162 36.9747 62.4492 37.0082C62.5051 36.9747 62.5721 36.9412 62.6279 36.9077Z" fill="#1C1C1C"></path><path d="M64.4477 31.3465C63.7442 31.38 63.0406 31.4135 62.3483 31.447C62.3148 31.447 62.2924 31.447 62.2589 31.447V31.4358C61.8569 29.8278 61.466 28.2197 61.0752 26.6116C61.0864 26.5222 61.0975 26.4329 61.1199 26.3547C61.3432 26.6563 61.5554 26.9466 61.7787 27.2481C62.3259 27.9852 62.862 28.7222 63.4092 29.4592C63.4873 29.6044 63.5767 29.7608 63.6548 29.9059C63.9117 30.3861 64.1797 30.8663 64.4477 31.3465Z" fill="#16417F"></path><path d="M64.0575 27.6502C63.8342 28.2532 63.622 28.8562 63.3987 29.4593C62.8515 28.7222 62.3154 27.9852 61.7682 27.2482C61.5449 26.9466 61.3327 26.6563 61.1094 26.3548C61.1205 26.3101 61.1205 26.2654 61.1317 26.2319C61.3104 26.3213 61.5002 26.4106 61.6789 26.4999C62.4606 26.8796 63.2647 27.2593 64.0575 27.6502Z" fill="#D0E0F4"></path><path d="M68.3116 27.1365C67.8984 27.1588 67.4853 27.1811 67.0721 27.2035C67.0274 28.4095 66.9939 29.6268 66.9492 30.8328C67.3959 29.5933 67.8538 28.3649 68.3116 27.1365Z" fill="#D0E0F4"></path><path d="M66.4917 25.2939C67.3404 25.1041 68.1891 24.9142 69.0378 24.7244C69.0378 24.6686 69.049 24.6127 69.049 24.5569L69.0378 24.5457C68.5688 24.0209 68.0886 23.4848 67.6196 22.96C67.5637 22.9711 67.5079 22.9935 67.4521 23.0046C67.1059 23.7082 66.7485 24.4117 66.4023 25.1152C66.4358 25.1822 66.4693 25.2381 66.4917 25.2939Z" fill="#16417F"></path><path d="M66.0449 23.2503C66.1343 23.8757 66.2236 24.4899 66.3241 25.1153C66.3576 25.1153 66.3799 25.1153 66.4134 25.1153C66.7596 24.4117 67.117 23.7082 67.4632 23.0046C66.9941 23.0828 66.5139 23.1721 66.0449 23.2503Z" fill="#16417F"></path><path d="M64.4258 22.0999C64.839 22.3679 65.241 22.6359 65.6542 22.904V22.8705C65.5983 22.3903 65.5425 21.9101 65.4755 21.4299C65.442 21.3405 65.4085 21.2512 65.375 21.1619C65.0623 21.4634 64.7496 21.7872 64.4258 22.0999Z" fill="#011333"></path><path d="M72.5328 24.6461C72.1531 24.0208 71.7623 23.3954 71.3826 22.77C71.0252 23.9873 70.6679 25.2156 70.3105 26.4329C70.3552 26.4664 70.3999 26.4887 70.4557 26.5222C71.1481 25.8968 71.8405 25.2715 72.5328 24.6461Z" fill="#D0E0F4"></path><path d="M68.9039 22.1782C68.8816 22.2005 68.8592 22.234 68.8369 22.2563C68.9039 23.0157 68.9709 23.7863 69.0379 24.5456L69.0491 24.5568C69.5851 23.6411 70.1211 22.7254 70.6572 21.7985C70.6237 21.7315 70.5902 21.6756 70.5567 21.6086C70.0206 21.8097 69.4623 21.9995 68.9039 22.1782Z" fill="#16417F"></path><path d="M48.1992 48.9126C49.2936 50.6212 50.3768 52.3187 51.4712 54.0272C51.5159 50.7441 51.5606 47.4609 51.6052 44.1777C51.4489 44.2336 51.2814 44.2894 51.125 44.3452C50.1423 45.8752 49.1708 47.3939 48.1992 48.9126Z" fill="#D0E0F4"></path><path d="M51.5938 44.1889C53.3247 44.725 55.0444 45.261 56.7754 45.797C56.7754 45.7859 56.7754 45.7635 56.7754 45.7524C56.8647 44.8478 56.954 43.9433 57.0434 43.0387C55.7591 41.6205 54.4637 40.2134 53.1795 38.7952C52.6546 40.5931 52.1186 42.391 51.5938 44.1889Z" fill="#D0E0F4"></path><path d="M51.7723 22.2566C51.7053 23.016 51.6383 23.7865 51.5713 24.5459C52.0403 24.021 52.5205 23.485 52.9895 22.9601C52.5875 22.7256 52.1855 22.4911 51.7723 22.2566Z" fill="#16417F"></path><path d="M69.0264 44.189C69.071 47.4721 69.1157 50.7553 69.1604 54.0385C70.2548 52.3299 71.338 50.6325 72.4324 48.9239C71.4608 47.4051 70.4893 45.8864 69.5177 44.3676C69.3502 44.3006 69.1827 44.2448 69.0264 44.189Z" fill="#D0E0F4"></path><path d="M63.5762 43.0387C63.6655 43.9321 63.7548 44.8366 63.833 45.73C63.833 45.7524 63.833 45.7747 63.8442 45.797C65.5751 45.261 67.2949 44.725 69.0258 44.1889C68.5009 42.391 67.9761 40.5931 67.44 38.7952C66.1558 40.2022 64.8604 41.6205 63.5762 43.0387Z" fill="#D0E0F4"></path><path d="M70.3211 21.2514C70.243 21.1844 70.1648 21.1174 70.0866 21.0615C69.6958 21.43 69.3049 21.8097 68.9141 22.1782C69.4724 21.9884 70.0196 21.8097 70.578 21.6199C70.4886 21.497 70.3993 21.3742 70.3211 21.2514Z" fill="#16417F"></path><path d="M67.6299 22.9601C68.0989 23.485 68.5791 24.021 69.0481 24.5459C68.9811 23.7865 68.9141 23.016 68.8471 22.2566C68.4451 22.4911 68.0319 22.7256 67.6299 22.9601Z" fill="#16417F"></path><path d="M65.4307 21.2849C65.5088 21.8098 65.5758 22.3346 65.654 22.8595C65.8215 22.6697 65.9779 22.491 66.1454 22.3011C65.9109 21.9661 65.6763 21.6311 65.4307 21.2849Z" fill="#011333"></path><path d="M67.1614 21.1619C67.0609 21.2512 66.9716 21.3405 66.8711 21.441C66.8823 21.5416 66.8934 21.6421 66.9046 21.7426C67.1503 21.6756 67.3848 21.6086 67.6305 21.5416C67.4741 21.4075 67.3178 21.2847 67.1614 21.1619Z" fill="#606060"></path><path d="M59.6014 54.0718C59.6014 54.0941 59.5902 54.1276 59.5902 54.1499C59.579 54.1835 59.5679 54.2169 59.5455 54.2505C58.8085 55.9814 58.0714 57.7123 57.3232 59.4432C58.0603 57.7123 58.7861 55.9702 59.5232 54.2393C59.5344 54.2058 59.5455 54.1723 59.5567 54.1499C59.5567 54.1499 59.5567 54.1499 59.5567 54.1388C59.579 54.1164 59.5902 54.0941 59.6014 54.0718Z" fill="#4F4F4F"></path><path d="M59.5907 54.1613C59.5795 54.1613 59.5795 54.1501 59.5684 54.1501C59.5684 54.1501 59.5684 54.1501 59.5684 54.1389C59.5795 54.1501 59.5795 54.1501 59.5907 54.1613Z" fill="#606060"></path><path d="M37.8704 42.7817C37.2898 41.0954 36.6979 39.4203 36.1172 37.7341C37.1892 37.1757 38.2501 36.6174 39.3222 36.0702C39.579 36.0143 39.8471 35.9697 40.1039 35.9138C39.3557 38.2031 38.6187 40.4924 37.8704 42.7817Z" fill="#D0E0F4"></path><path d="M39.2549 40.9839C40.0031 39.0296 40.7401 37.0754 41.4883 35.1211C41.5665 35.1769 41.6335 35.2216 41.7117 35.2774C42.1137 37.4439 42.5157 39.6215 42.9177 41.7879C41.7005 41.5088 40.4833 41.2519 39.2549 40.9839Z" fill="#72A1DB"></path><path d="M43.1189 11.2453C42.7504 13.2443 42.3819 15.2321 42.0245 17.231C41.7119 16.0696 41.4103 14.9082 41.0977 13.7468C41.1758 12.7864 41.2428 11.826 41.321 10.8545C41.9129 10.888 42.4936 10.9215 43.0854 10.9662C43.0854 11.0667 43.0966 11.156 43.1189 11.2453Z" fill="#D0E0F4"></path><path d="M41.1084 21.3522V21.3406H41.1201L41.1084 21.3522Z" fill="#929292"></path><path d="M38.9312 28.3983C38.6408 27.516 38.3616 26.6338 38.0713 25.7516C39.2327 23.7192 40.4052 21.6867 41.5666 19.6543C40.6956 22.569 39.8134 25.4836 38.9312 28.3983Z" fill="#011333"></path><path d="M43.0623 49.3034C42.2136 46.8913 41.3761 44.4791 40.5273 42.067C40.572 42.0447 40.6055 42.0223 40.6502 42C41.4989 43.0944 42.3364 44.1888 43.1851 45.2832C43.1851 46.6121 43.1851 47.9521 43.1963 49.281C43.1405 49.2922 43.107 49.3034 43.0623 49.3034Z" fill="#BDCBDB"></path><path d="M40.6504 23.429C40.7062 23.4736 40.7732 23.5183 40.8291 23.563C40.7732 23.5071 40.7174 23.4625 40.6504 23.429Z" fill="#848484"></path><path d="M47.5741 15.8018C45.5752 17.086 43.5762 18.3702 41.5773 19.6545C40.6951 22.5691 39.8129 25.4838 38.9307 28.3984C38.9977 28.4096 39.0647 28.4319 39.1428 28.4431C40.8738 25.7629 42.5935 23.0828 44.3244 20.3915C45.4077 18.8728 46.4909 17.3317 47.5741 15.8018Z" fill="#D0E0F4"></path><path d="M39.1428 28.4541C39.0758 28.4429 39.0088 28.4206 38.9307 28.4094C38.9977 28.4206 39.0647 28.4318 39.1428 28.4541Z" fill="#858585"></path><path d="M42.0128 17.2312C41.8677 18.0352 41.7113 18.8393 41.5662 19.6545C41.2311 19.2971 40.8961 18.951 40.5723 18.5936C41.0525 18.1357 41.5326 17.6891 42.0128 17.2312Z" fill="#D0E0F4"></path><path d="M51.583 54.1724C51.6388 54.2394 51.6947 54.3064 51.7505 54.3734C51.6947 54.3064 51.6388 54.2394 51.583 54.1724Z" fill="#696969"></path><path d="M51.9629 54.6414C52.0187 54.7084 52.0746 54.7754 52.1304 54.8312C52.0746 54.7754 52.0187 54.7084 51.9629 54.6414Z" fill="#696969"></path><path d="M52.7227 55.5906C52.7785 55.6576 52.8343 55.7246 52.8902 55.7916C52.8343 55.7134 52.7785 55.6464 52.7227 55.5906Z" fill="#696969"></path><path d="M52.1309 54.8423C52.1644 54.8981 52.1979 54.9428 52.2425 54.9986C52.209 54.9428 52.1644 54.887 52.1309 54.8423Z" fill="#696969"></path><path d="M51.751 54.3733C51.7845 54.4291 51.8291 54.4738 51.8626 54.5296C51.8291 54.4738 51.7845 54.4291 51.751 54.3733Z" fill="#696969"></path><path d="M39.5111 36.0479C39.4441 36.0479 39.3883 36.059 39.3213 36.059C39.3771 36.059 39.4441 36.059 39.5111 36.0479Z" fill="#A7A7A7"></path><path d="M52.2646 55.021C52.287 55.0433 52.3093 55.0657 52.3317 55.0992C52.3093 55.0768 52.287 55.0433 52.2646 55.021Z" fill="#696969"></path><path d="M52.5098 55.3115C52.5433 55.345 52.5656 55.3785 52.5991 55.412C52.5656 55.3785 52.5433 55.345 52.5098 55.3115Z" fill="#696969"></path><path d="M59.6014 54.0718C59.6014 54.0941 59.5903 54.1276 59.5903 54.1499C59.5903 54.1388 59.5791 54.1388 59.5791 54.1276C59.5791 54.1164 59.5903 54.0941 59.6014 54.0718Z" fill="#606060"></path><path d="M69.0268 44.1887C66.0787 47.8181 63.1305 51.4363 60.1823 55.0656C57.3235 51.4363 54.4535 47.8181 51.5947 44.1887C53.3257 44.7247 55.0454 45.2608 56.7763 45.7968C57.9266 46.1318 59.088 46.4668 60.2382 46.8019C61.4331 46.4668 62.6391 46.1318 63.834 45.7968C65.5761 45.2608 67.2959 44.7247 69.0268 44.1887Z" fill="#BDCBDB"></path><path d="M60.2489 46.8019C59.0987 46.4668 57.9373 46.1318 56.7871 45.7968C55.0561 45.2608 53.3364 44.7247 51.6055 44.1887C53.3364 44.7136 55.0673 45.2384 56.7982 45.7521C57.9373 46.0983 59.0875 46.4557 60.2489 46.8019Z" fill="#D1D1D1"></path><path d="M51.3828 44.468C51.4386 44.468 51.4945 44.468 51.5503 44.468C51.528 44.5574 51.5056 44.6467 51.4833 44.736L51.4721 44.7472C51.4498 44.7472 51.4163 44.736 51.394 44.736C51.394 44.6467 51.3828 44.5574 51.3828 44.468Z" fill="#818181"></path><path d="M41.7892 34.5738C40.907 32.5302 40.0248 30.4866 39.1426 28.443C40.7395 28.1527 42.3364 27.8511 43.9333 27.5608C43.2186 29.8947 42.5039 32.2399 41.7892 34.5738Z" fill="#EDEDED"></path><path d="M41.1084 33.323C41.2089 33.5463 41.2982 33.7585 41.3987 33.9819C41.2982 33.7585 41.2089 33.5463 41.1084 33.323Z" fill="#A7A7A7"></path><path d="M40.9297 32.9434C40.9967 33.0662 41.0525 33.2002 41.1195 33.323C41.0525 33.2002 40.9855 33.0662 40.9297 32.9434Z" fill="#A7A7A7"></path><path d="M40.7402 32.4744C40.8072 32.6307 40.8742 32.787 40.9301 32.9434C40.8631 32.787 40.7961 32.6307 40.7402 32.4744Z" fill="#A7A7A7"></path><path d="M43.0957 8.16329C43.0957 8.08512 43.0957 8.00694 43.0957 7.93994C43.4977 8.04045 43.8997 8.15212 44.3129 8.25263C45.1616 8.4648 46.0215 8.67698 46.8814 8.88916C46.9149 8.92266 46.9596 8.95616 46.9931 8.98966C47.0489 10.6312 47.1047 12.2617 47.1718 13.9033C47.1271 13.9144 47.0712 13.9144 47.0266 13.9256C47.0042 13.9256 46.9931 13.9256 46.9707 13.9256C45.6642 11.9937 44.3799 10.0729 43.0957 8.16329Z" fill="#D0E0F4"></path><path d="M43.0966 7.83947C43.7889 7.20293 44.4925 6.55523 45.1848 5.9187C45.7432 6.90142 46.3016 7.8953 46.8599 8.87802C46 8.66584 45.1513 8.45367 44.2915 8.24149C43.8894 8.14099 43.4874 8.04048 43.0742 7.92881C43.0966 7.90647 43.0966 7.87297 43.0966 7.83947Z" fill="#D0D0D0"></path><path d="M41.2085 21.0615C41.175 21.1509 41.1415 21.2514 41.1191 21.3407C41.1191 21.2514 41.1191 21.1509 41.1303 21.0615C41.1415 21.0615 41.175 21.0615 41.2085 21.0615Z" fill="#858585"></path><path d="M45.9108 33.6804C44.5372 33.982 43.1636 34.2723 41.79 34.5738C42.5047 32.2399 43.2194 29.8947 43.9342 27.5608C44.593 29.6044 45.2519 31.648 45.9108 33.6804Z" fill="#D0E0F4"></path><path d="M60.249 46.802C59.0987 46.4669 57.9373 46.1319 56.7871 45.7969C56.7871 45.7857 56.7871 45.7634 56.7871 45.7522C56.8764 44.8812 56.9658 43.999 57.0551 43.1279C58.116 44.3563 59.1769 45.5736 60.249 46.802Z" fill="#D0E0F4"></path><path d="M67.2062 13.3448C65.7209 14.16 64.2245 14.9863 62.7393 15.8016C62.6276 16.5498 62.5048 17.298 62.3931 18.0573C62.0692 20.1456 61.7454 22.2339 61.4215 24.3222C61.3769 24.6125 61.3322 24.8917 61.2875 25.1821C61.2875 25.2044 61.2764 25.2267 61.2764 25.2491C61.2317 25.5729 61.1759 25.8856 61.1312 26.2094C61.1312 26.2206 61.1312 26.2318 61.1312 26.2318C61.12 26.2764 61.12 26.3211 61.1089 26.3546C61.0977 26.444 61.0865 26.5333 61.0642 26.6115C60.8185 28.2195 60.5617 29.8276 60.316 31.4357C60.1038 29.6825 59.8916 27.9292 59.6683 26.1871C59.6683 26.1759 59.6794 26.1536 59.6794 26.1424C59.6683 26.1424 59.6683 26.1536 59.6571 26.1536C59.6571 26.1424 59.6571 26.1313 59.6571 26.1201C59.6348 25.9079 59.6013 25.6846 59.5789 25.4724C59.5789 25.4612 59.5789 25.4501 59.5789 25.4389C59.4896 24.7354 59.4114 24.043 59.3221 23.3395C59.0987 21.4969 58.8754 19.6543 58.6521 17.8228C58.5851 17.2533 58.5069 16.6838 58.4399 16.1142C56.7648 15.1985 55.1009 14.2716 53.4258 13.3559C53.4369 13.3113 53.4481 13.2666 53.4593 13.2219H67.1727C67.1838 13.2554 67.195 13.3001 67.2062 13.3448Z" fill="#BDCBDB"></path><path d="M43.9336 27.5607C44.9498 26.9242 45.9772 26.2877 46.9934 25.6511C47.1721 26.578 47.3508 27.4937 47.5295 28.4206C46.3346 28.1414 45.1285 27.8511 43.9336 27.5607Z" fill="#D0E0F4"></path><path d="M44.0339 28.2085C43.9334 28.4653 43.8329 28.7222 43.7324 28.979C43.8329 28.7222 43.9334 28.4653 44.0339 28.2085Z" fill="#A7A7A7"></path><path d="M42.1469 33.323C42.0799 33.5128 42.024 33.7027 41.957 33.8925C42.024 33.7027 42.091 33.5128 42.1469 33.323Z" fill="#A7A7A7"></path><path d="M46.29 33.9149C47.4849 32.6865 48.6798 31.4469 49.8636 30.2185C49.8301 31.7931 49.7966 33.3677 49.7742 34.9423C48.6128 34.5961 47.4514 34.2611 46.29 33.9149Z" fill="#D0E0F4"></path><path d="M46.0219 33.8926C45.9884 33.8256 45.9549 33.7586 45.9102 33.6804C45.2513 31.6368 44.5925 29.5932 43.9336 27.5608C45.1285 27.8511 46.3346 28.1415 47.5295 28.4207C47.0269 30.2521 46.5244 32.0724 46.0219 33.8926Z" fill="#EDEDED"></path><path d="M44.6035 28.6106C44.637 28.6999 44.6705 28.8004 44.6929 28.8898C44.6705 28.8004 44.637 28.6999 44.6035 28.6106Z" fill="#A7A7A7"></path><path d="M53.2588 38.7839C53.2588 38.2814 53.27 37.7789 53.27 37.2764C53.806 37.522 54.342 37.7789 54.878 38.0246H54.8669C54.9004 38.0581 54.945 38.0916 54.9785 38.1251C55.1014 38.1586 55.2131 38.1921 55.3359 38.2144C55.3694 38.2256 55.4029 38.2479 55.4364 38.2591C55.3806 38.4043 55.3136 38.5383 55.2577 38.6834C54.5989 38.7281 53.9288 38.7504 53.2588 38.7839Z" fill="#1C1C1C"></path><path d="M58.2839 31.4359C58.2839 31.447 58.2839 31.447 58.2839 31.4359C58.2839 31.447 58.2839 31.447 58.2839 31.4359C57.7032 31.9719 57.1225 32.5079 56.5418 33.0439C56.553 33.7363 56.5753 34.4287 56.5865 35.1211C57.0555 35.7129 57.5245 36.3048 58.0047 36.9078C57.6585 36.919 57.3124 36.9413 56.9662 36.9525C56.6535 36.9637 56.3296 36.986 56.017 36.9972C55.7936 37.4103 55.5814 37.8124 55.3581 38.2256C55.2353 38.192 55.1236 38.1585 55.0007 38.1362C54.9672 38.1027 54.9226 38.0692 54.8891 38.0357H54.9002C54.3865 37.4662 53.9622 36.852 53.817 36.0703C53.817 36.0479 53.8058 36.0256 53.7947 36.0033C53.7835 35.9698 53.7612 35.9474 53.75 35.9139C53.7388 35.8916 53.7277 35.8804 53.7277 35.8581C53.3592 35.4226 53.0018 34.9871 52.6333 34.5515C52.5216 34.6297 52.4099 34.7079 52.2983 34.786C52.2871 35.1434 52.2759 35.5119 52.2759 35.8693C52.1308 35.8358 51.9744 35.8023 51.8292 35.7576C51.2709 35.5677 50.7237 35.3779 50.1765 35.1881C50.1207 35.1657 50.0536 35.1434 49.9978 35.1211C49.9308 35.0652 49.8638 34.9982 49.7968 34.9424C49.8303 33.3678 49.8638 31.7932 49.8861 30.2186C49.1044 29.6268 48.3227 29.0237 47.541 28.4207C48.6466 27.7172 49.4618 27.1811 49.8303 26.9355C49.8861 26.8908 50.0313 26.7903 50.2547 26.7456C50.4892 26.6898 50.7237 26.7121 50.9805 26.7903C51.3937 26.9131 51.8292 27.0025 52.2536 27.103C52.2759 27.1141 52.3094 27.1253 52.3318 27.1365L53.6942 30.8328C54.6546 29.7719 55.6149 28.7111 56.5865 27.6502C56.8098 28.2532 57.022 28.8562 57.2454 29.4593C56.8992 30.0846 56.5418 30.7212 56.1956 31.3465C56.9215 31.38 57.6027 31.4135 58.2839 31.4359Z" fill="#EDEDED"></path><path d="M49.9756 35.1211C50.735 35.3668 51.4943 35.6236 52.2537 35.8693C52.5441 36.2713 52.8232 36.6845 53.1136 37.0865C52.0639 36.4388 51.0141 35.78 49.9756 35.1211Z" fill="#ADADAD"></path><path d="M49.8752 30.2186C48.6803 31.447 47.4854 32.6865 46.3016 33.9149C46.2123 33.9038 46.123 33.9038 46.0225 33.8926C46.525 32.0723 47.0275 30.2521 47.53 28.4207C48.3117 29.0237 49.0935 29.6156 49.8752 30.2186Z" fill="#D0E0F4"></path><path d="M73.6722 3.43961C75.0904 2.5574 76.4975 1.67518 77.9157 0.792969C76.129 2.52389 74.3422 4.25482 72.5555 5.97458C71.4611 6.57761 70.3667 7.19181 69.2723 7.79484C69.853 6.46594 70.4449 5.1482 71.0256 3.8193C71.9078 3.69646 72.79 3.56245 73.6722 3.43961ZM67.7089 48.7228C65.4978 50.5208 63.2866 52.3298 61.0644 54.1278L61.0532 54.1389C61.042 54.1389 61.042 54.1501 61.0309 54.1501C61.7791 55.9145 62.5384 57.6678 63.2866 59.4322C64.7607 55.8475 66.246 52.274 67.72 48.6893C67.72 48.7117 67.7089 48.7228 67.7089 48.7228ZM75.5483 5.68423C76.4305 4.95835 77.3127 4.24365 78.1949 3.51778C78.2843 3.36144 78.3848 3.2051 78.4741 3.04876C78.2843 2.30055 78.1056 1.54117 77.9157 0.792969C77.1229 2.42339 76.33 4.05381 75.5483 5.68423ZM77.268 41.9778C75.794 44.1889 74.3087 46.4 72.8346 48.6223C72.7006 48.7228 72.5666 48.8233 72.4326 48.9127C71.4611 47.3939 70.4895 45.8752 69.518 44.3564C71.1261 40.8834 72.7341 37.3992 74.3422 33.9262C74.4316 33.915 74.5209 33.9039 74.6214 33.9039C74.6549 34.0379 74.6772 34.1719 74.7219 34.3171C74.7219 34.3171 74.7442 34.3841 74.7666 34.4511C74.8336 34.7079 76.665 40.1799 77.268 41.9778ZM77.4467 11.2567C76.1737 12.1389 74.8894 13.0211 73.6164 13.9145C73.6834 14.1043 73.7392 14.2942 73.8062 14.4729C74.5767 15.2434 75.3361 16.0251 76.1067 16.7956C76.5533 14.953 77 13.0993 77.4467 11.2567ZM67.519 37.0977C67.7871 36.7292 68.0439 36.3495 68.3119 35.981C67.8429 35.9475 67.385 35.9028 66.916 35.8693C66.5251 36.5952 66.1343 37.3211 65.7434 38.0358C66.2795 37.7901 66.8155 37.5332 67.3515 37.2876C67.4074 37.2206 67.4632 37.1535 67.519 37.0977ZM65.2186 20.09V20.0788C65.2074 20.0006 65.1962 19.9225 65.1851 19.8443C65.1739 19.7773 65.1627 19.7215 65.1516 19.6545C64.2359 19.1184 63.309 18.5936 62.3933 18.0575C62.0694 20.1458 61.7456 22.2341 61.4217 24.3224C61.377 24.6127 61.3324 24.8919 61.2877 25.1823C61.2877 25.2046 61.2765 25.2269 61.2765 25.2493C61.3547 25.1711 61.4217 25.1041 61.4999 25.0259C62.4714 24.0544 63.443 23.094 64.4145 22.1224C64.4257 22.1113 64.4257 22.1113 64.4369 22.1001C64.7496 21.7874 65.0734 21.4747 65.3861 21.1509C65.3303 20.7935 65.2744 20.4473 65.2186 20.09ZM70.322 21.2514C70.6794 21.3742 71.0479 21.4971 71.4052 21.6199C71.2712 20.7935 71.1372 19.9783 70.9921 19.1631C70.9809 19.1296 70.8915 19.1073 70.8357 19.0849C70.8022 19.2524 70.7687 19.42 70.724 19.5763C70.5677 20.1123 70.4002 20.6483 70.2438 21.1844C70.2662 21.2067 70.2997 21.229 70.322 21.2514ZM49.5956 3.8193C50.1763 5.1482 50.7682 6.46594 51.3489 7.79484C50.2545 7.19181 49.1601 6.57761 48.0657 5.97458C46.2789 4.24365 44.4922 2.51273 42.7054 0.792969C44.1236 1.67518 45.5307 2.5574 46.949 3.43961C47.8312 3.56245 48.7134 3.69646 49.5956 3.8193ZM59.568 54.1389C59.5568 54.1278 59.5456 54.1166 59.5345 54.1054C59.4451 54.0273 59.3446 53.9491 59.2553 53.8821C57.1447 52.1623 55.034 50.4426 52.9123 48.7228C52.9011 48.7117 52.8899 48.7117 52.8899 48.7005C54.364 52.2852 55.8493 55.8587 57.3233 59.4434C58.0604 57.7125 58.7974 55.9815 59.5456 54.2506C59.5568 54.2171 59.5791 54.1836 59.5903 54.1501C59.5791 54.1501 59.5791 54.1501 59.568 54.1389ZM42.7166 0.792969C42.5267 1.54117 42.348 2.30055 42.1582 3.04876C42.2475 3.2051 42.348 3.36144 42.4374 3.51778C43.3196 4.24365 44.2018 4.95835 45.084 5.68423C44.2911 4.05381 43.4983 2.42339 42.7166 0.792969ZM45.8769 34.4399C45.8992 34.3729 45.9216 34.3059 45.9216 34.3059C45.9551 34.1719 45.9886 34.0379 46.0221 33.8927C46.1114 33.9039 46.2007 33.9039 46.3013 33.915C47.9093 37.3881 49.5174 40.8722 51.1255 44.3453C50.154 45.864 49.1824 47.3828 48.2109 48.9015C48.0768 48.801 47.9428 48.7005 47.8088 48.6111C46.3348 46.4 44.8495 44.1889 43.3754 41.9666C43.9561 40.1799 45.7987 34.7079 45.8769 34.4399ZM44.5257 16.7956C45.2962 16.0251 46.0556 15.2434 46.8261 14.4729C46.8931 14.283 46.949 14.0932 47.016 13.9145C45.7429 13.0323 44.4587 12.1501 43.1856 11.2567C43.6211 13.0993 44.0678 14.953 44.5257 16.7956ZM53.2808 37.2876C53.8168 37.5332 54.3528 37.7901 54.8889 38.0358C54.498 37.3099 54.1072 36.584 53.7163 35.8693C53.2473 35.9028 52.7894 35.9475 52.3204 35.981C52.5884 36.3495 52.8453 36.7292 53.1133 37.0977C53.1579 37.1535 53.2138 37.2206 53.2808 37.2876ZM59.5791 25.4726C59.5791 25.4614 59.5791 25.4503 59.5791 25.4391C59.4898 24.7356 59.4116 24.0432 59.3223 23.3397C59.0989 21.4971 58.8756 19.6545 58.6522 17.823C57.5913 18.4372 56.5416 19.0403 55.4807 19.6545C55.4696 19.7215 55.4584 19.7773 55.4472 19.8443C55.4361 19.9225 55.4249 20.0006 55.4137 20.0788C55.3579 20.4362 55.3021 20.7935 55.2462 21.1509C55.5589 21.4636 55.8828 21.7762 56.1954 22.1001C56.2066 22.1113 56.2066 22.1113 56.2178 22.1224C57.1893 23.094 58.1609 24.0544 59.1324 25.0259C59.2776 25.1711 59.4339 25.3274 59.5791 25.4726ZM50.3773 21.1844C50.221 20.6483 50.0535 20.1123 49.8971 19.5763C49.8524 19.42 49.8189 19.2524 49.7854 19.0849C49.7296 19.1073 49.6403 19.1296 49.6291 19.1631C49.4839 19.9783 49.3499 20.8047 49.2159 21.6199C49.5733 21.4971 49.9418 21.3742 50.2991 21.2514C50.3326 21.229 50.355 21.2067 50.3773 21.1844Z" fill="#16417F"></path><path d="M53.7162 21.7428C53.4482 22.2118 53.0909 22.3793 52.566 22.0778C52.2422 21.8991 52.0523 21.4859 51.8066 21.1732C52.097 21.1062 52.3985 21.0504 52.6889 20.9834C53.0239 21.2291 53.3701 21.4859 53.7162 21.7428Z" fill="#858585"></path><path d="M53.4596 21.1621C53.4372 21.0951 53.4149 21.0281 53.3926 20.9611C53.4707 20.8829 53.5489 20.8047 53.6383 20.7265C53.6718 20.693 53.6941 20.6707 53.7276 20.6372C53.9844 21.1956 54.2301 21.7428 54.487 22.3011C54.2413 22.0108 53.9956 21.7204 53.7499 21.4301C53.6494 21.3407 53.5489 21.2514 53.4596 21.1621Z" fill="#1C1C1C"></path><path d="M46.9715 30.4978C46.9045 30.777 46.8375 31.0673 46.7705 31.3465C46.8375 31.0562 46.9045 30.777 46.9715 30.4978Z" fill="#A7A7A7"></path><path d="M46.7699 31.3464C46.7029 31.5698 46.6471 31.782 46.5801 32.0053C46.6471 31.782 46.7029 31.5586 46.7699 31.3464Z" fill="#A7A7A7"></path><path d="M46.5805 32.0054C46.5135 32.1952 46.4576 32.3851 46.3906 32.5749C46.4576 32.3851 46.5135 32.1952 46.5805 32.0054Z" fill="#A7A7A7"></path><path d="M54.8779 38.0356C54.9114 38.0691 54.9561 38.1026 54.9896 38.1361C54.9561 38.1026 54.9114 38.0691 54.8779 38.0356Z" fill="#4A4A4A"></path><path d="M58.1717 37.0082C57.7027 37.4214 57.2337 37.8234 56.7647 38.2366C56.6642 38.2701 56.5748 38.2925 56.4743 38.326C56.0835 38.4488 55.6926 38.5716 55.3018 38.6945C55.3018 38.6498 55.3129 38.6163 55.3129 38.5716C55.3241 38.46 55.3353 38.3371 55.3353 38.2254C55.5586 37.8123 55.7708 37.4102 55.9941 36.9971C56.3068 36.9859 56.6307 36.9636 56.9433 36.9524C57.2895 36.9412 57.6357 36.9189 57.9819 36.9077C58.0601 36.9412 58.1159 36.9747 58.1717 37.0082Z" fill="#16417F"></path><path d="M57.9932 36.9077C58.049 36.9412 58.1048 36.9747 58.1718 37.0082C58.116 36.9747 58.0602 36.9412 57.9932 36.9077Z" fill="#1C1C1C"></path><path d="M59.6799 26.1426C59.6799 26.1537 59.6688 26.1761 59.6688 26.1872C59.2332 27.9405 58.8089 29.6826 58.3733 31.4359V31.447C58.3398 31.447 58.3175 31.447 58.284 31.447C57.5805 31.4135 56.8769 31.38 56.1846 31.3465C56.5308 30.7212 56.8881 30.0846 57.2343 29.4593C57.7815 28.7222 58.3175 27.9852 58.8647 27.2481C59.1327 26.8908 59.4007 26.5223 59.6688 26.1649C59.6688 26.1537 59.6799 26.1537 59.6799 26.1426Z" fill="#16417F"></path><path d="M59.6797 26.1426C59.6797 26.1537 59.6685 26.1537 59.6685 26.1649C59.4005 26.5223 59.1325 26.8908 58.8645 27.2481C58.3173 27.9852 57.7813 28.7222 57.2341 29.4593C57.0107 28.8562 56.7985 28.2532 56.5752 27.6502C57.3681 27.2705 58.1609 26.8796 58.9538 26.4999C59.1883 26.3883 59.434 26.2654 59.6685 26.1537L59.6797 26.1426Z" fill="#D0E0F4"></path><path d="M52.3203 27.1365C52.7335 27.1588 53.1467 27.1811 53.5599 27.2035C53.6046 28.4095 53.638 29.6268 53.6827 30.8328C53.2249 29.5933 52.767 28.3649 52.3203 27.1365Z" fill="#D0E0F4"></path><path d="M52.6104 34.5515C52.4987 34.6297 52.387 34.7078 52.2754 34.786C52.2642 35.1433 52.253 35.5119 52.253 35.8692C52.2753 35.9027 52.2977 35.9362 52.32 35.9697C52.7779 35.9362 53.2469 35.8916 53.7048 35.8581C53.3474 35.4337 52.9789 34.987 52.6104 34.5515ZM62.337 31.447C62.3035 31.447 62.27 31.447 62.2477 31.447H58.3727C58.3392 31.447 58.3168 31.447 58.2833 31.447C57.7026 31.983 57.1219 32.519 56.5412 33.0551C56.5524 33.7474 56.5747 34.4398 56.5859 35.1322C57.0549 35.724 57.524 36.3159 58.0042 36.9189C58.06 36.9524 58.1158 36.9859 58.1828 37.0194H62.4599C62.5157 36.9859 62.5716 36.9524 62.6386 36.9189C63.1076 36.3271 63.5766 35.7352 64.0568 35.1322C64.068 34.4398 64.0903 33.7474 64.1015 33.0551C63.4984 32.519 62.9177 31.983 62.337 31.447ZM53.3809 20.9609C53.1464 20.9609 52.9119 20.9721 52.6774 20.9721C52.6997 21.1284 52.722 21.2848 52.7444 21.4523C52.8225 21.4746 52.9007 21.5081 52.9901 21.5305C53.0571 21.4746 53.1352 21.4188 53.2022 21.363C53.2804 21.296 53.3697 21.2289 53.4479 21.1619C53.4367 21.0949 53.4144 21.0279 53.3809 20.9609ZM55.2347 21.1508C54.7321 20.9833 54.2184 20.8158 53.7159 20.6371C53.9616 21.2513 54.0509 21.5751 53.9839 21.6086C53.9504 21.631 53.8723 21.564 53.7494 21.43C53.7383 21.5305 53.7271 21.631 53.7159 21.7315C53.5484 21.8878 53.3809 22.0442 53.2134 22.2005C53.0012 22.1558 52.789 22.1112 52.5769 22.0665C52.32 21.765 52.0743 21.4635 51.8175 21.1619C51.8622 21.1173 51.9068 21.0838 51.9515 21.0391C51.9962 20.9944 52.0408 20.9609 52.0855 20.9163C52.1748 20.8381 52.2754 20.7488 52.387 20.6594C52.3647 20.6594 52.3424 20.6483 52.3089 20.6483C52.2418 20.6371 52.186 20.6259 52.119 20.6147C52.052 20.6036 51.9962 20.5924 51.9292 20.5812C51.9068 20.5812 51.8845 20.5701 51.8622 20.5701C51.7728 20.5701 51.6723 20.5701 51.583 20.5812C51.2368 20.7488 50.8906 20.9051 50.5444 21.0726C50.5556 21.0838 50.5668 21.0949 50.5779 21.1061C50.9464 21.4635 51.3261 21.832 51.6947 22.1893C51.7282 22.2228 51.7505 22.2452 51.784 22.2787C52.186 22.5132 52.5992 22.7477 53.0012 22.9822C53.5261 23.0827 54.0509 23.1721 54.587 23.2726C54.721 23.1497 54.8438 23.038 54.9778 22.9152C55.056 22.3122 55.1453 21.7315 55.2347 21.1508ZM51.3485 7.79474C50.2541 7.19171 49.1597 6.57751 48.0653 5.97448C46.2785 4.24356 44.4918 2.51263 42.705 0.792874C43.4979 2.42329 44.2796 4.05371 45.0613 5.68413C45.106 5.7623 45.1395 5.85164 45.1841 5.92981C45.7425 6.91253 46.3009 7.90641 46.8592 8.88913C47.0044 9.00081 47.1607 9.11248 47.3059 9.23532C47.9871 9.76018 48.6683 10.285 49.3495 10.8099C49.3719 10.8211 49.383 10.8322 49.4054 10.8546C50.0866 9.86069 50.7678 8.87797 51.449 7.88408C51.449 7.88408 51.449 7.87291 51.4601 7.87291C51.4266 7.83941 51.3931 7.81708 51.3485 7.79474ZM40.5609 0C40.2147 0.368519 39.8685 0.737038 39.5223 1.10556C39.433 2.37862 39.3437 3.65169 39.2432 4.92476C40.2147 4.29939 41.1863 3.67403 42.1578 3.04866C42.3477 2.30045 42.5263 1.54108 42.7162 0.792874C41.9903 0.52486 41.2756 0.268014 40.5609 0ZM68.345 34.7972C68.2334 34.719 68.1217 34.6408 67.9988 34.5627C67.6303 34.9982 67.273 35.4337 66.9045 35.8692C67.3623 35.9027 67.8313 35.9474 68.2892 35.9809C68.3115 35.9474 68.3339 35.9139 68.3562 35.8804C68.3674 35.5119 68.3562 35.1545 68.345 34.7972ZM67.2395 20.9609C67.2171 21.0279 67.1948 21.0949 67.1725 21.1619C67.2506 21.2289 67.34 21.296 67.4181 21.363C67.4851 21.4188 67.5633 21.4746 67.6303 21.5305C67.7085 21.5081 67.7867 21.4746 67.876 21.4523C67.8983 21.296 67.9207 21.1396 67.943 20.9721C67.7085 20.9721 67.474 20.9721 67.2395 20.9609ZM69.0374 20.5701C68.9481 20.5701 68.8476 20.5701 68.7582 20.5589C68.7359 20.5589 68.7135 20.5701 68.6912 20.5701C68.6465 20.5812 68.613 20.5813 68.5684 20.5924C68.546 20.5924 68.5237 20.6036 68.5014 20.6036C68.4567 20.6147 68.412 20.6148 68.3674 20.6259C68.3227 20.6371 68.278 20.6371 68.2334 20.6483C68.4455 20.8381 68.6242 20.9944 68.8029 21.1508C68.546 21.4523 68.3004 21.7538 68.0435 22.0553C67.8313 22.1 67.6192 22.1447 67.407 22.1893C67.2395 22.033 67.072 21.8766 66.9045 21.7203C66.8933 21.6198 66.8821 21.5193 66.871 21.4188C66.8821 21.1508 66.8933 20.8939 66.8933 20.6259C66.4019 20.8381 65.9106 21.0614 65.4192 21.2736C65.6537 21.6086 65.8882 21.9548 66.1339 22.2898C65.9776 22.4908 65.8101 22.6807 65.6426 22.8817C65.7766 23.0045 65.8994 23.1162 66.0334 23.2391C66.5583 23.1385 67.0831 23.0492 67.6192 22.9487C68.0212 22.7142 68.4344 22.4797 68.8364 22.2452C68.8699 22.2117 68.8922 22.1893 68.9257 22.1558C69.2942 21.7985 69.6739 21.4411 70.0424 21.0726C70.0536 21.0614 70.0648 21.0503 70.0759 21.0391C69.7298 20.9051 69.3836 20.7376 69.0374 20.5701ZM72.5551 5.97448C71.4607 6.57751 70.3663 7.19171 69.2719 7.79474C69.2272 7.81708 69.1937 7.83941 69.1491 7.86175C69.1491 7.87292 69.1602 7.87291 69.1602 7.88408C69.8414 8.8668 70.5115 9.84952 71.1927 10.8322C71.215 10.8211 71.2262 10.8099 71.2485 10.7876C71.9297 10.2627 72.6109 9.73784 73.2921 9.21298C73.4373 9.10131 73.5936 8.97847 73.7388 8.8668C74.2972 7.88408 74.8555 6.8902 75.4139 5.90748C75.4586 5.82931 75.4921 5.73997 75.5367 5.6618C76.3296 4.03138 77.1113 2.40096 77.893 0.77054C76.1286 2.5238 74.3418 4.24356 72.5551 5.97448ZM81.098 1.10556C80.7518 0.737038 80.4057 0.368519 80.0595 0C79.3448 0.268014 78.6301 0.52486 77.9154 0.792874C78.1052 1.54108 78.2839 2.30045 78.4737 3.04866C79.4453 3.67403 80.4168 4.29939 81.3884 4.92476C81.2879 3.64052 81.1985 2.37862 81.098 1.10556Z" fill="#1C1C1C"></path><path d="M54.1296 25.2939C53.2809 25.1041 52.4321 24.9142 51.5834 24.7244C51.5834 24.6686 51.5723 24.6127 51.5723 24.5569L51.5834 24.5457C52.0525 24.0209 52.5326 23.4848 53.0017 22.96C53.0575 22.9711 53.1133 22.9935 53.1692 23.0046C53.5154 23.7082 53.8727 24.4117 54.2189 25.1152C54.1854 25.1822 54.1519 25.2381 54.1296 25.2939Z" fill="#16417F"></path><path d="M54.5766 23.2503C54.7106 23.1274 54.8335 23.0157 54.9675 22.8929C55.3806 22.6249 55.7827 22.3569 56.1959 22.0889L56.2182 22.1112C55.5817 23.1163 54.9451 24.1101 54.3086 25.1152C54.3979 24.4898 54.4873 23.8756 54.5766 23.2503Z" fill="#4170B5"></path><path d="M54.5764 23.2503C54.4871 23.8757 54.3978 24.4899 54.2973 25.1153C54.2638 25.1153 54.2414 25.1153 54.2079 25.1153C53.8617 24.4117 53.5044 23.7082 53.1582 23.0046C53.6272 23.0828 54.1074 23.1721 54.5764 23.2503Z" fill="#16417F"></path><path d="M78.1837 3.51782C77.3015 4.24369 76.4192 4.9584 75.5482 5.68427C75.5147 5.76244 75.47 5.84061 75.4365 5.92995C76.1289 6.56648 76.8324 7.21418 77.5248 7.85072C77.7481 6.39897 77.9603 4.9584 78.1837 3.51782Z" fill="#D0D0D0"></path><path d="M77.514 11.2457C77.5252 11.1563 77.5363 11.067 77.5475 10.9665C77.5363 10.0284 77.5363 9.09039 77.5252 8.15234C77.1455 8.69954 76.7658 9.24674 76.3861 9.79393C75.6491 10.8995 74.9009 12.005 74.1527 13.1106C73.974 13.3786 73.7953 13.6466 73.6055 13.9035C74.8785 13.0213 76.1628 12.1391 77.4358 11.2457C77.4693 11.2568 77.4917 11.2568 77.514 11.2457Z" fill="#D0E0F4"></path><path d="M70.8468 19.0962C70.2437 19.5876 69.6407 20.0901 69.0488 20.5814C69.4508 20.7824 69.8529 20.9946 70.2549 21.1956C70.4447 20.4921 70.6457 19.7886 70.8468 19.0962Z" fill="#011333"></path><path d="M65.6541 22.8929C65.2409 22.6249 64.8388 22.3569 64.4257 22.0889L64.4033 22.1112C65.0399 23.1163 65.6764 24.1101 66.3129 25.1152C66.2236 24.4898 66.1342 23.8756 66.0337 23.2503C65.9221 23.1386 65.7881 23.0157 65.6541 22.8929Z" fill="#4170B5"></path><path d="M77.5138 11.2455C78.0275 14.0485 78.5412 16.8515 79.0549 19.6545C78.0722 18.7053 77.0895 17.7449 76.1067 16.7957C76.5534 14.9531 77.0001 13.0993 77.458 11.2567C77.4691 11.2567 77.4915 11.2455 77.5138 11.2455ZM77.525 7.94002C77.5361 8.95624 77.5361 9.9613 77.5473 10.9775C78.1392 10.944 78.7199 10.9105 79.3117 10.8658C80.0041 8.87807 80.6965 6.90147 81.3777 4.9137C80.4061 4.28833 79.4346 3.66296 78.463 3.0376C78.3737 3.19394 78.2732 3.35028 78.1838 3.50662C77.9605 4.9472 77.7372 6.38777 77.525 7.82835C76.8326 7.19182 76.1291 6.54411 75.4367 5.90758C74.8783 6.8903 74.32 7.88419 73.7616 8.86691C74.6215 8.65473 75.4702 8.44255 76.3301 8.23037C76.7209 8.14103 77.123 8.04053 77.525 7.94002ZM43.074 10.9775C43.0852 9.93896 43.0963 8.88924 43.0963 7.85068C43.7887 7.21415 44.4922 6.56645 45.1846 5.92992C45.1511 5.85174 45.1064 5.77357 45.0729 5.68424C44.1907 4.95836 43.3085 4.24366 42.4375 3.51779C42.3481 3.36145 42.2476 3.20511 42.1583 3.04877C41.1867 3.67413 40.2152 4.2995 39.2436 4.92486C39.936 6.91263 40.6284 8.88924 41.3096 10.877C41.9014 10.8993 42.4933 10.9328 43.074 10.9775ZM49.216 21.6311C49.35 20.8159 49.484 19.9895 49.6292 19.1743C49.7073 19.1519 49.7967 19.1184 49.8749 19.0961C50.9357 17.1977 51.9966 15.2992 53.0575 13.4008C53.0017 13.3785 52.9459 13.345 52.89 13.3226C51.2484 14.0262 49.618 14.7185 47.9764 15.4221C47.9541 15.5114 47.9206 15.6119 47.8983 15.7013C47.5521 18.1357 47.2059 20.5702 46.8709 22.9935C47.6637 22.5356 48.4343 22.0778 49.216 21.6311ZM69.2724 7.79485C69.8531 6.46595 70.4449 5.14821 71.0256 3.81931C69.8754 3.95331 68.714 4.08732 67.5638 4.22133C68.0328 5.42739 68.4907 6.64462 68.9597 7.85068C69.0602 7.82835 69.1719 7.81718 69.2724 7.79485ZM51.6728 7.85068C52.1418 6.64462 52.5997 5.42739 53.0687 4.22133C51.9185 4.08732 50.7571 3.95331 49.6068 3.81931C50.1875 5.14821 50.7794 6.46595 51.3601 7.79485C51.4606 7.81718 51.5611 7.82835 51.6728 7.85068ZM51.6728 7.85068C52.1976 9.61511 52.7225 11.3795 53.2585 13.144C55.09 10.0283 56.9326 6.91263 58.764 3.79697C58.7752 3.80814 58.7752 3.81931 58.7752 3.83047C58.7752 3.81931 58.7752 3.80814 58.7752 3.79697C58.7752 3.77464 58.7752 3.76347 58.7752 3.74113C56.3965 5.11471 54.0402 6.47711 51.6728 7.85068C51.6616 7.85068 51.6616 7.85068 51.6728 7.85068C51.6616 7.85068 51.6728 7.85068 51.6728 7.85068ZM67.4409 38.7951C67.9658 40.5931 68.4907 42.391 69.0267 44.1889C69.183 44.2448 69.3505 44.3006 69.5069 44.3564C71.115 40.8834 72.7231 37.3992 74.3311 33.9262C73.985 34.1049 73.6276 34.2836 73.2814 34.4622C71.3383 35.9028 69.3952 37.3434 67.4409 38.7951ZM67.3739 13.144C67.8988 11.3795 68.4237 9.61511 68.9597 7.85068C66.5922 6.47711 64.2248 5.11471 61.8685 3.74113C62.6614 5.10354 63.4654 6.46594 64.2583 7.81718C65.2857 9.59278 66.3354 11.3684 67.3739 13.144ZM76.3078 20.4027C76.2743 22.6361 76.2407 24.8696 76.2072 27.1142C75.392 25.7853 74.5768 24.4676 73.7616 23.1387C73.6834 23.8757 73.6164 24.6239 73.5271 25.4503C73.1586 25.1488 72.8571 24.9031 72.5444 24.6462C71.852 25.2716 71.1596 25.897 70.4673 26.5223C70.4226 26.4888 70.3779 26.4665 70.3221 26.433C70.6795 25.2158 71.0368 23.9874 71.3942 22.7701C71.1596 22.4463 70.914 22.1336 70.6795 21.8098C70.1434 22.7255 69.6074 23.6412 69.0714 24.5681C68.848 25.4168 68.6247 26.2543 68.4013 27.103C67.843 26.4218 67.3404 25.7853 66.8714 25.2158C66.7709 25.0818 66.6592 24.9589 66.5699 24.8361C66.4582 24.6909 66.3466 24.5569 66.2349 24.4229C65.2298 23.1833 64.5821 22.3569 64.4481 22.1559C64.4481 22.1448 64.437 22.1448 64.437 22.1336C64.437 22.1336 64.437 22.1336 64.437 22.1224C64.4258 22.1001 64.3588 21.9773 64.2471 21.9661C64.1913 21.9661 64.1243 21.9996 64.0461 22.0889C63.2086 23.0493 62.3599 23.9985 61.5111 24.9478C61.4441 25.0259 61.3771 25.1041 61.3101 25.1823C61.3101 25.2046 61.299 25.2269 61.299 25.2493C61.2543 25.5731 61.1985 25.8858 61.1538 26.2096C61.3325 26.299 61.5111 26.3883 61.701 26.4777C62.4939 26.8685 63.2867 27.2594 64.0908 27.6614C65.0512 28.7223 66.0115 29.7832 66.9831 30.8441C67.0278 29.638 67.0613 28.4208 67.1059 27.2147C67.5415 27.1812 67.9881 27.1477 68.4237 27.1142C69.0937 26.9914 69.7526 26.8797 70.4226 26.7568C71.3272 27.3152 72.2317 27.8736 73.1362 28.4431C73.3149 27.5162 73.4936 26.6005 73.6723 25.6736C74.6885 26.3102 75.7159 26.9467 76.7321 27.5832C78.329 27.8736 79.9259 28.1528 81.5229 28.4431C79.7584 25.7518 78.0275 23.0716 76.3078 20.4027ZM67.5638 13.3896C68.6247 15.2881 69.6856 17.1865 70.7465 19.0849C70.8246 19.1073 70.914 19.1408 70.9921 19.1631C71.1261 19.9783 71.2602 20.8047 71.4053 21.6199C72.187 22.0778 72.9687 22.5245 73.7504 22.9823C73.4043 20.5479 73.0581 18.1134 72.7231 15.6901C72.7007 15.6008 72.6672 15.5003 72.6449 15.4109C71.0033 14.7074 69.3729 14.015 67.7313 13.3115C67.6755 13.3338 67.6196 13.3673 67.5638 13.3896ZM65.3527 38.6946C64.9842 38.6946 64.6045 38.6946 64.2359 38.6946C64.2024 38.5718 64.1801 38.449 64.1466 38.3261C64.0908 38.3038 64.0349 38.2926 63.9791 38.2703C63.9344 38.2591 63.9009 38.2479 63.8563 38.2368C63.4877 38.3708 63.1192 38.4936 62.7507 38.6276C62.773 38.784 62.8065 38.9403 62.8289 39.0967C62.3487 39.3535 61.8573 39.6104 61.3771 39.856C61.232 39.8449 61.0868 39.8449 60.9416 39.8449C60.9416 39.8337 60.9416 39.8114 60.9416 39.8002C60.7294 39.8114 60.5284 39.8114 60.3162 39.8225C60.1041 39.8114 59.903 39.8114 59.6909 39.8002C59.6909 39.8114 59.6909 39.8337 59.6909 39.8449C59.5457 39.856 59.4005 39.856 59.2554 39.856C58.7752 39.5992 58.2838 39.3423 57.8036 39.0967C57.8259 38.9403 57.8594 38.784 57.8818 38.6276C57.5133 38.4936 57.1447 38.3708 56.7762 38.2368C56.6757 38.2703 56.5864 38.2926 56.4859 38.3261C56.095 38.449 55.7042 38.5718 55.3133 38.6946C55.3021 38.6946 55.291 38.6946 55.2686 38.6946C54.5763 38.7281 53.8727 38.7616 53.1804 38.7951C54.4646 40.2134 55.76 41.6205 57.0442 43.0387C57.0442 43.0275 57.0442 43.0052 57.0442 42.994V43.128C58.1051 44.3564 59.1772 45.5737 60.2381 46.8021C60.3609 46.6681 60.4838 46.5229 60.6178 46.3889C61.6005 45.3057 62.5832 44.2224 63.5659 43.1392V43.0052C63.5659 43.0164 63.5659 43.0387 63.5659 43.0499C64.8501 41.6316 66.1455 40.2246 67.4298 38.8063C66.7597 38.7728 66.0897 38.7393 65.4197 38.7058C65.4085 38.6946 65.375 38.6946 65.3527 38.6946ZM61.0309 54.1613C61.0309 54.1278 61.0198 54.1054 61.0198 54.0719C60.7406 54.3958 60.4614 54.7308 60.1822 55.0547C59.9701 54.7866 59.7579 54.5186 59.5457 54.2506C58.8087 55.9815 58.0716 57.7125 57.3234 59.4434C56.9996 59.6444 56.6645 59.8343 56.3407 60.0353C57.5356 61.554 58.7193 63.0728 59.9142 64.5803C61.366 63.0616 62.8289 61.5428 64.2806 60.0353C63.9568 59.8343 63.6217 59.6444 63.2979 59.4434C62.5385 57.679 61.7903 55.9257 61.0309 54.1613ZM43.1745 11.2567C43.1522 11.2567 43.1298 11.2567 43.1187 11.2455C42.605 14.0485 42.0913 16.8515 41.5776 19.6545C42.5603 18.7053 43.543 17.7449 44.5257 16.7957C44.0679 14.9531 43.6212 13.0993 43.1745 11.2567ZM46.2902 33.9151C47.8983 37.3881 49.5063 40.8723 51.1144 44.3453C51.2708 44.2894 51.4383 44.2336 51.5946 44.1778C52.1195 42.3798 52.6443 40.5819 53.1804 38.784C51.2373 37.3322 49.2942 35.8917 47.3399 34.4399C46.9937 34.2724 46.6475 34.0937 46.2902 33.9151ZM56.3965 21.9661C56.296 21.9773 56.229 22.1001 56.2067 22.1224C56.2067 22.1224 56.2067 22.1224 56.2067 22.1336C56.2067 22.1448 56.1955 22.1448 56.1955 22.1559C56.0615 22.3569 55.4026 23.1833 54.4088 24.4229C54.2971 24.5569 54.1854 24.7021 54.0737 24.8361C53.9732 24.9589 53.8727 25.0818 53.7722 25.2158C53.3144 25.7853 52.8007 26.4218 52.2423 27.103C52.6778 27.1365 53.1245 27.17 53.5601 27.2035C53.6047 28.4096 53.6382 29.6268 53.6829 30.8329C54.6433 29.772 55.6037 28.7111 56.5752 27.6502C57.3681 27.2594 58.161 26.8685 58.965 26.4665C59.1995 26.3548 59.434 26.232 59.6685 26.1203C59.6462 25.9081 59.6127 25.6848 59.5904 25.4726C59.5904 25.4614 59.5904 25.4503 59.5904 25.4391C59.4452 25.2716 59.3 25.1041 59.1437 24.9366C58.295 23.9874 57.4574 23.0381 56.6087 22.0778C56.5194 21.9884 56.4635 21.9549 56.3965 21.9661ZM47.5297 28.4208C48.4343 27.8624 49.3388 27.304 50.2434 26.7345C50.9134 26.8574 51.5723 26.969 52.2423 27.0919C52.019 26.2432 51.7956 25.4056 51.5723 24.5569C51.0363 23.6412 50.5002 22.7255 49.9642 21.7986C49.7297 22.1224 49.484 22.4351 49.2495 22.759C49.6068 23.9762 49.9642 25.2046 50.3216 26.4218C50.2769 26.4553 50.2322 26.4777 50.1764 26.5112C49.484 25.8858 48.7916 25.2604 48.0993 24.6351C47.7866 24.8919 47.4851 25.1376 47.1165 25.4391C47.0272 24.6127 46.9602 23.8757 46.882 23.1275C46.0668 24.4564 45.2516 25.7741 44.4364 27.103C44.4029 24.8696 44.3694 22.6361 44.3359 20.3915C42.605 23.0605 40.8852 25.7406 39.1543 28.4096C40.7512 28.1193 42.3481 27.8401 43.945 27.5497C44.9613 26.9132 45.9887 26.2767 47.0049 25.6401C47.1724 26.5782 47.3511 27.505 47.5297 28.4208Z" fill="#72A1DB"></path><path d="M44.2356 9.79393C43.8559 9.24674 43.4762 8.69954 43.0966 8.15234C43.0854 9.09039 43.0854 10.0284 43.0742 10.9665C43.0854 11.0558 43.0966 11.1452 43.1077 11.2457C43.1301 11.2457 43.1524 11.2457 43.1636 11.2568C44.4366 12.1391 45.7209 13.0213 46.9939 13.9146C46.8152 13.6466 46.6366 13.3786 46.4467 13.1218C45.7209 12.005 44.9727 10.9107 44.2356 9.79393Z" fill="#D0E0F4"></path><path d="M49.395 10.7431C48.5909 10.1513 47.7869 9.55939 46.9717 8.96753C47.0275 10.6091 47.0833 12.2395 47.1504 13.8811C47.8986 12.8426 48.6468 11.7928 49.395 10.7431Z" fill="#91A0B5"></path><path d="M47.9873 15.411C49.6289 14.7074 51.2593 14.0151 52.9009 13.3115C51.0359 13.613 49.1599 13.9146 47.2949 14.2272C47.5183 14.6181 47.7528 15.0201 47.9873 15.411Z" fill="#4170B5"></path><path d="M51.5831 20.5702C50.98 20.0788 50.377 19.5763 49.7852 19.085C49.9862 19.7885 50.1872 20.4809 50.3882 21.1844C50.779 20.9834 51.1811 20.7824 51.5831 20.5702Z" fill="#011333"></path><path d="M59.2553 53.8821C57.1335 52.1511 55.0229 50.4202 52.9011 48.6893C52.9011 48.7005 52.9123 48.7116 52.9123 48.7228C54.3863 52.2963 55.8493 55.8698 57.3233 59.4434C56.9995 59.6444 56.6645 59.8342 56.3406 60.0352C55.1792 58.6058 54.0178 57.1876 52.8676 55.7582C52.6331 55.479 52.4097 55.1886 52.1752 54.9095C52.1306 54.8536 52.0747 54.7866 52.0301 54.7308C51.963 54.6414 51.8849 54.5521 51.8179 54.4739C51.7509 54.3958 51.695 54.3176 51.628 54.2394C51.628 54.2394 51.628 54.2394 51.628 54.2282C51.5722 54.1612 51.5275 54.1054 51.4717 54.0384C51.5164 50.7552 51.561 47.4721 51.6057 44.1889C54.1518 47.4162 56.698 50.6547 59.2553 53.8821ZM81.6903 28.3984C81.6233 28.4096 81.5563 28.4319 81.4781 28.4431C80.5959 30.4867 79.7137 32.5303 78.8315 34.5739C81.0091 35.2886 83.1867 36.0033 85.3643 36.718C84.1136 33.8927 82.9075 31.1455 81.6903 28.3984ZM79.0548 19.6544C77.0559 18.3702 75.0569 17.086 73.058 15.8017C73.7057 15.7682 74.3646 15.7459 75.0123 15.7124C76.3523 17.0301 77.7036 18.3479 79.0548 19.6544ZM54.498 18.1133C54.8219 18.627 55.1457 19.1407 55.4696 19.6544C56.5305 19.0402 57.5802 18.4372 58.6411 17.823C58.5741 17.2535 58.4959 16.6839 58.4289 16.1144C56.7538 15.1987 55.0899 14.2718 53.4148 13.3561C53.426 13.3114 53.4371 13.2668 53.4483 13.2221H67.1617C67.1728 13.2668 67.184 13.3114 67.1952 13.3561C65.7099 14.1713 64.2135 14.9977 62.7283 15.8129C62.6166 16.5611 62.4938 17.3093 62.3821 18.0687C63.2978 18.6047 64.2247 19.1296 65.1404 19.6656C65.1516 19.7326 65.1516 19.7884 65.1627 19.8554C65.2521 20.3356 65.3414 20.8158 65.4196 21.3072C65.911 21.095 66.4023 20.8717 66.8937 20.6595C67.0053 20.7712 67.117 20.8717 67.2287 20.9833C67.4632 20.9833 67.6977 20.9945 67.9322 20.9945C68.2226 21.0615 68.5241 21.1173 68.8144 21.1843C68.6358 21.028 68.4571 20.8605 68.2449 20.6818C68.4236 20.6483 68.5911 20.6148 68.7586 20.5925C68.8479 20.5925 68.9484 20.5925 69.0378 20.6036C69.6408 20.1123 70.2438 19.6098 70.8357 19.1184C70.8022 19.1072 70.7687 19.1072 70.724 19.0961C69.6632 17.1976 68.6023 15.3104 67.5525 13.4119C67.6084 13.3896 67.6642 13.3561 67.72 13.3338C69.3616 14.0373 70.9921 14.7297 72.6336 15.4332C72.6783 15.355 72.723 15.288 72.7676 15.2099L72.6336 15.4332C72.656 15.5225 72.6895 15.6231 72.7118 15.7124C73.0468 18.1469 73.393 20.5701 73.728 23.0046C72.9575 22.5579 72.1758 22.1001 71.4052 21.6534C71.0479 21.5305 70.6794 21.4077 70.322 21.2848C70.4114 21.4077 70.4895 21.5305 70.5789 21.6534C70.6124 21.7204 70.6459 21.7762 70.6794 21.8432C70.9139 22.1671 71.1596 22.4797 71.3941 22.8036C71.7738 23.429 72.1646 24.0543 72.5443 24.6797C72.857 24.9365 73.1585 25.1822 73.527 25.4837C73.6164 24.6574 73.6834 23.9203 73.7615 23.1721C74.5767 24.501 75.3919 25.8188 76.2072 27.1477C76.2407 24.9142 76.2742 22.6696 76.3077 20.4361C75.459 21.3519 74.6102 22.2564 73.7615 23.1721C74.6102 22.2564 75.459 21.3519 76.3077 20.4361C75.2244 18.9062 74.1412 17.3763 73.058 15.8352C73.7057 15.8017 74.3646 15.7794 75.0123 15.7459C74.6102 15.3327 74.2082 14.9195 73.8062 14.4952C73.7392 14.3053 73.6834 14.1155 73.6164 13.9368C73.5717 13.9256 73.5159 13.9256 73.4712 13.9145C72.7341 12.8871 71.9971 11.8485 71.2601 10.8211C70.5677 9.84958 69.8642 8.87803 69.1718 7.90648C69.1718 7.89531 69.1606 7.89531 69.1606 7.88414C69.0936 7.88414 69.0266 7.87298 68.9708 7.87298C68.5018 6.66691 68.0439 5.44968 67.5749 4.24362C65.6764 4.08728 63.7668 3.91977 61.8684 3.76343C64.2359 5.137 66.6033 6.4994 68.9596 7.87298C68.4347 9.6374 67.9099 11.4018 67.3739 13.1663C66.3353 11.3907 65.2968 9.61507 64.247 7.83948C63.4542 6.47707 62.6501 5.11467 61.8572 3.76343C60.8298 3.78576 59.8025 3.79693 58.7751 3.81926C58.7751 3.83043 58.7751 3.8416 58.7751 3.85277C58.7751 3.8416 58.7639 3.83043 58.7639 3.81926C56.9325 6.93493 55.0899 10.0506 53.2585 13.1663C52.7336 11.4018 52.2087 9.6374 51.6727 7.87298C54.0402 6.4994 56.4076 5.137 58.7639 3.76343C56.8655 3.91977 54.9559 4.08728 53.0574 4.24362C52.5884 5.44968 52.1306 6.66691 51.6615 7.87298C51.5945 7.87298 51.5275 7.88414 51.4605 7.88414C50.0199 9.89425 48.5794 11.9044 47.1388 13.9145C47.0941 13.9256 47.0383 13.9256 46.9936 13.9368C46.9266 14.1266 46.8708 14.3165 46.8038 14.4952C46.4018 14.9083 45.9997 15.3215 45.5977 15.7459C44.2465 17.0636 42.8952 18.3702 41.5552 19.6879C43.5541 18.4037 45.553 17.1195 47.552 15.8352C46.4688 17.3651 45.3855 18.8951 44.3023 20.4361C45.151 21.3519 45.9997 22.2564 46.8484 23.1721C45.9997 22.2564 45.151 21.3519 44.3023 20.4361C44.3358 22.6696 44.3693 24.9142 44.4028 27.1477C45.218 25.8188 46.0332 24.501 46.8484 23.1721C46.9266 23.9092 46.9936 24.6574 47.083 25.4837C47.4515 25.1822 47.753 24.9365 48.0657 24.6797C48.4454 24.0543 48.8362 23.429 49.2159 22.8036C49.4504 22.4797 49.6961 22.1671 49.9306 21.8432C49.9641 21.7762 49.9976 21.7204 50.0311 21.6534C50.1205 21.5305 50.1986 21.4077 50.288 21.2848C49.9306 21.4077 49.5621 21.5305 49.2047 21.6534C48.4342 22.1001 47.6525 22.5579 46.8819 23.0046C47.217 20.5701 47.5632 18.1469 47.8982 15.7124C47.9205 15.6231 47.954 15.5225 47.9763 15.4332C47.7418 15.0424 47.5073 14.6403 47.2728 14.2495C49.1377 13.948 51.0138 13.6464 52.8788 13.3338C52.9346 13.3561 52.9904 13.3896 53.0463 13.4119C51.9854 15.3104 50.9245 17.1976 49.8748 19.0961C49.8413 19.1072 49.8078 19.1072 49.7631 19.1184C50.3661 19.6098 50.9692 20.1123 51.561 20.6036C51.6504 20.6036 51.7509 20.6036 51.8402 20.5925C52.0077 20.626 52.1752 20.6483 52.3539 20.6818C52.1417 20.8717 51.963 21.028 51.7844 21.1843C52.0747 21.1173 52.3762 21.0615 52.6666 20.9945C52.9011 20.9945 53.1356 20.9833 53.3701 20.9833C53.4818 20.8717 53.5935 20.7712 53.7051 20.6595C53.9173 20.7488 54.1183 20.8382 54.3305 20.9275C54.6097 21.0503 54.9 21.1732 55.1792 21.3072C55.2686 20.827 55.3579 20.3468 55.4361 19.8554C55.4472 19.7884 55.4472 19.7326 55.4584 19.6656C55.1457 19.1407 54.8219 18.627 54.498 18.1133C54.23 18.8839 53.962 19.6544 53.694 20.425C53.962 19.6433 54.23 18.8839 54.498 18.1133ZM66.9272 20.4138C66.9272 20.425 66.9272 20.4361 66.9272 20.4361C66.9272 20.4361 66.9272 20.425 66.9272 20.4138C66.9272 20.4026 66.9272 20.3915 66.9383 20.3803C66.9272 20.3915 66.9272 20.4026 66.9272 20.4138ZM67.72 13.3114C67.9769 13.3561 68.2337 13.3896 68.4906 13.4343C68.2337 13.4008 67.9769 13.3561 67.72 13.3114ZM67.5079 18.5265C67.5414 18.5712 67.5637 18.6159 67.5972 18.6717C67.5637 18.6159 67.5414 18.5712 67.5079 18.5265ZM39.143 28.4542C40.0253 30.4978 40.9075 32.5414 41.7897 34.585C39.6121 35.2998 37.4345 36.0145 35.2568 36.7292C36.5076 33.8927 37.7136 31.1567 38.9309 28.4096C38.9979 28.4207 39.0649 28.4319 39.143 28.4542ZM69.0266 44.1889C69.0713 47.4721 69.116 50.7552 69.1606 54.0384C69.1048 54.1054 69.0601 54.1612 69.0043 54.2282C68.9373 54.3064 68.8814 54.3846 68.8144 54.4628C68.7474 54.5521 68.6693 54.6414 68.6023 54.7308C68.5576 54.7866 68.5018 54.8536 68.4571 54.9095C68.2226 55.1886 67.9992 55.4678 67.7759 55.7582C66.6145 57.1876 65.4531 58.617 64.2917 60.0352C63.9678 59.8342 63.6328 59.6444 63.309 59.4434C64.7831 55.8698 66.246 52.2963 67.72 48.7228C67.72 48.7116 67.7312 48.7005 67.7312 48.6893C65.4978 50.5095 63.2755 52.3298 61.042 54.1612C61.042 54.1277 61.0309 54.1054 61.0309 54.0719C63.6887 50.7776 66.3576 47.4832 69.0266 44.1889ZM72.4215 48.9126C74.0295 46.601 75.6488 44.2894 77.2569 41.9778C76.8549 44.2782 76.4417 46.5898 76.0396 48.8903C75.0123 49.0131 73.996 49.136 72.9687 49.2588C72.8011 49.1471 72.6113 49.0355 72.4215 48.9126ZM78.8315 34.5739C78.3066 37.0418 77.7817 39.5098 77.268 41.9778C76.3858 39.2865 75.4925 36.584 74.6102 33.8927C74.6437 33.8257 74.6772 33.7587 74.7219 33.6805C76.0843 33.982 77.4579 34.2835 78.8315 34.5739ZM67.3627 38.7839C67.3627 38.2814 67.3515 37.7789 67.3515 37.2764C67.4074 37.2094 67.4632 37.1535 67.519 37.0865C68.6246 36.3718 69.7413 35.6459 70.8469 34.9312C72.0083 34.585 73.1697 34.25 74.3311 33.9038C73.9849 34.0825 73.6275 34.2612 73.2813 34.4399C71.3382 35.8916 69.3951 37.3322 67.4409 38.7839C67.4185 38.7951 67.3962 38.7839 67.3627 38.7839ZM68.3901 27.103C67.7647 26.5 67.1282 25.8969 66.5028 25.2939C67.3515 25.104 68.2002 24.9142 69.049 24.7244C68.8256 25.5172 68.6023 26.3101 68.3901 27.103ZM43.3531 41.9778C44.9612 44.2894 46.5804 46.601 48.1885 48.9126C47.9987 49.0355 47.82 49.1471 47.6302 49.27C46.6028 49.1471 45.5865 49.0243 44.5592 48.9015C44.1683 46.5898 43.7663 44.2782 43.3531 41.9778ZM46.0221 33.8927C45.1399 36.584 44.2465 39.2865 43.3643 41.9778C42.8394 39.5098 42.3145 37.0418 41.8008 34.5739C43.1744 34.2724 44.548 33.982 45.9216 33.6805C45.9439 33.7587 45.9774 33.8257 46.0221 33.8927ZM53.1021 37.0977C53.1579 37.1647 53.2138 37.2205 53.2696 37.2875C53.2696 37.7901 53.2585 38.2926 53.2585 38.7951C53.2361 38.7951 53.2026 38.7951 53.1803 38.7951C51.2372 37.3434 49.2941 35.9028 47.3398 34.451C46.9936 34.2724 46.6363 34.0937 46.2901 33.915C47.4515 34.2612 48.6129 34.5962 49.7743 34.9424C50.891 35.6571 51.9965 36.383 53.1021 37.0977ZM59.6796 26.1426C59.6796 26.1538 59.6685 26.1761 59.6685 26.1873C59.8806 27.9405 60.0928 29.6938 60.3162 31.4359C60.5618 29.8278 60.8187 28.2197 61.0644 26.6116C61.0755 26.5223 61.0867 26.433 61.109 26.3548C61.1202 26.3101 61.1202 26.2654 61.1314 26.2319C61.1314 26.2208 61.1314 26.2096 61.1314 26.2096C61.176 25.8858 61.2319 25.5731 61.2765 25.2492C61.2765 25.2269 61.2877 25.2046 61.2877 25.1822C61.3324 24.8919 61.377 24.6127 61.4217 24.3223C61.444 24.5345 61.4664 24.7355 61.4999 24.9477C61.4999 24.97 61.5111 25.0035 61.5111 25.0259C61.5669 25.5061 61.6227 25.9974 61.6786 26.4776C61.6786 26.4888 61.6786 26.5 61.6786 26.5C61.7121 26.7568 61.7344 27.0025 61.7679 27.2593C61.9354 28.6552 62.0917 30.0511 62.2593 31.447V31.4582H58.3842V31.447C58.5517 30.0511 58.7081 28.6552 58.8756 27.2593C58.9091 27.0136 58.9314 26.7568 58.9649 26.5111C58.9649 26.5 58.9649 26.4888 58.9649 26.4888C59.0208 26.0086 59.0766 25.5172 59.1324 25.037C59.1324 25.0147 59.1436 24.9924 59.1436 24.9589C59.2106 24.4228 59.2664 23.8868 59.3334 23.362C59.4228 24.0655 59.5009 24.7579 59.5903 25.4614C59.5903 25.4726 59.5903 25.4837 59.5903 25.4949C59.6126 25.7071 59.6461 25.9304 59.6685 26.1426C59.6685 26.1538 59.6685 26.1649 59.6685 26.1761C59.6685 26.1538 59.6796 26.1426 59.6796 26.1426ZM60.9304 39.8337C60.9304 39.8225 60.9304 39.8002 60.9304 39.789C60.7182 39.8002 60.5172 39.8002 60.305 39.8113C60.0928 39.8002 59.8918 39.8002 59.6796 39.789C59.6796 39.8002 59.6796 39.8225 59.6796 39.8337C59.5344 39.8448 59.3893 39.8448 59.2441 39.8448C58.7639 39.588 58.2725 39.3311 57.7924 39.0854C57.8147 38.9291 57.8482 38.7728 57.8705 38.6164C57.502 38.4824 57.1335 38.3596 56.765 38.2256C57.234 37.8124 57.703 37.4104 58.172 36.9972H62.4491C62.4491 37.0195 62.4491 37.053 62.4603 37.0753C62.9293 37.455 63.3872 37.8459 63.8562 38.2256C63.4877 38.3596 63.1191 38.4824 62.7506 38.6164C62.773 38.7728 62.8065 38.9291 62.8288 39.0854C62.3486 39.3423 61.8572 39.5991 61.377 39.8448C61.2207 39.8448 61.0755 39.8337 60.9304 39.8337ZM51.5834 24.7244C52.4321 24.9142 53.2808 25.104 54.1295 25.2939C53.5041 25.8969 52.8676 26.5 52.2422 27.103C52.0189 26.3101 51.7955 25.5172 51.5834 24.7244Z" fill="#4170B5"></path><path d="M55.1455 21.4189C55.0896 21.8991 55.0338 22.3793 54.9668 22.8595V22.893C55.38 22.625 55.782 22.3569 56.1952 22.0889C55.8825 21.7762 55.5587 21.4636 55.246 21.1509C55.2013 21.2402 55.1678 21.3296 55.1455 21.4189Z" fill="#011333"></path><path d="M48.0879 24.6461C48.4676 24.0208 48.8584 23.3954 49.2381 22.77C49.5955 23.9873 49.9528 25.2156 50.3102 26.4329C50.2655 26.4664 50.2208 26.4887 50.165 26.5222C49.4726 25.8968 48.7803 25.2715 48.0879 24.6461Z" fill="#D0E0F4"></path><path d="M51.7171 22.1782C51.7395 22.2005 51.7618 22.234 51.7841 22.2563C51.7171 23.0157 51.6501 23.7863 51.5831 24.5456L51.572 24.5568C51.0359 23.6411 50.4999 22.7254 49.9639 21.7985C49.9974 21.7315 50.0309 21.6756 50.0644 21.6086C50.6116 21.8097 51.1588 21.9995 51.7171 22.1782Z" fill="#16417F"></path><path d="M51.7176 22.1782C51.1593 21.9884 50.6121 21.8097 50.0537 21.6199C50.143 21.497 50.2212 21.3742 50.3106 21.2514C50.3887 21.1844 50.4669 21.1174 50.5451 21.0615C50.9359 21.4412 51.3268 21.8097 51.7176 22.1782Z" fill="#16417F"></path><path d="M55.1903 21.2849C55.1121 21.8098 55.0451 22.3346 54.9669 22.8595C54.7994 22.6697 54.6431 22.491 54.4756 22.3011C54.7101 21.9661 54.9558 21.6311 55.1903 21.2849Z" fill="#011333"></path><path d="M53.4593 21.1619C53.5598 21.2512 53.6491 21.3405 53.7496 21.441C53.7384 21.5416 53.7273 21.6421 53.7161 21.7426C53.4704 21.6756 53.2359 21.6086 52.9902 21.5416C53.1466 21.4075 53.3029 21.2847 53.4593 21.1619Z" fill="#606060"></path><path d="M35 43.7981C35.871 43.7981 36.7309 43.7981 37.602 43.7981C37.7025 45.73 37.803 47.6731 37.9035 49.6051C36.9319 47.662 35.9716 45.73 35 43.7981Z" fill="#4170B5"></path><path d="M53.5268 64.5356C54.0405 65.7082 54.543 66.8808 55.0567 68.0533C54.141 69.0695 53.2253 70.0969 52.3096 71.1132C52.7116 68.9244 53.1248 66.7244 53.5268 64.5356Z" fill="#4170B5"></path><path d="M58.4844 69.3489C59.6569 70.0077 60.8295 70.6778 62.0021 71.3366C61.9016 72.2077 61.801 73.0676 61.7005 73.9386C60.6285 72.4087 59.5564 70.8788 58.4844 69.3489Z" fill="#16417F"></path><path d="M44.9277 59.075C45.7429 59.6892 46.5582 60.3034 47.3734 60.9064C47.2729 62.9947 47.1724 65.0829 47.0718 67.1712C46.3571 64.4799 45.6424 61.7774 44.9277 59.075Z" fill="#72A1DB"></path><path d="M46.9158 57.0872C47.6081 56.0934 48.2893 55.0995 48.9817 54.1056C48.1888 53.1675 47.4071 52.2183 46.6143 51.2803C46.7148 53.2122 46.8153 55.1553 46.9158 57.0872Z" fill="#D0E0F4"></path><path d="M40.2266 50.063C41.0753 50.9675 41.9352 51.8721 42.7839 52.7655C42.3818 54.1167 41.991 55.4679 41.589 56.8192C41.1311 54.5746 40.6733 52.3188 40.2266 50.063Z" fill="#011333"></path><path d="M56.5527 61.9785C57.2898 62.8161 58.0268 63.6648 58.775 64.5023C58.2948 65.418 57.8035 66.3337 57.3233 67.2495C57.0553 65.4962 56.8096 63.7429 56.5527 61.9785Z" fill="#16417F"></path><path d="M57.3121 67.2604C56.5751 66.4229 55.838 65.5742 55.0898 64.7366C55.57 63.8209 56.0614 62.9052 56.5416 61.9895C56.8096 63.7428 57.0553 65.496 57.3121 67.2604Z" fill="#4170B5"></path><path d="M50.0865 62.9387C49.3495 62.1011 48.6125 61.2524 47.8643 60.4149C48.3444 59.4992 48.8358 58.5834 49.316 57.6677C49.584 59.421 49.8297 61.1742 50.0865 62.9387Z" fill="#4170B5"></path><path d="M50.2771 54.1055C50.4223 54.0274 51.2598 55.1776 52.8009 57.5451C52.9014 58.4608 53.0019 59.3765 53.1024 60.2922C51.0476 56.272 50.0984 54.206 50.2771 54.1055Z" fill="#4170B5"></path><path d="M50.3545 63.2849C50.6337 63.7204 50.9129 64.156 51.192 64.5803C51.0357 64.8818 50.8905 65.1945 50.7342 65.496C50.6113 64.759 50.4885 64.022 50.3545 63.2849Z" fill="#011333"></path><path d="M77.2795 49.8953C76.4084 49.8953 75.5485 49.8953 74.6775 49.8953C74.577 51.8272 74.4765 53.7703 74.376 55.7022C75.3364 53.7703 76.3079 51.8384 77.2795 49.8953Z" fill="#16417F"></path><path d="M87.006 40.2244C86.135 40.2244 85.2751 40.2244 84.4041 40.2244C84.3036 42.1563 84.203 44.0994 84.1025 46.0313C85.0741 44.0994 86.0345 42.1563 87.006 40.2244Z" fill="#4170B5"></path><path d="M82.7848 45.0039C82.2711 46.1765 81.7686 47.349 81.2549 48.5216C82.1706 49.5378 83.0863 50.5652 84.002 51.5814C83.6 49.3926 83.1868 47.2039 82.7848 45.0039Z" fill="#16417F"></path><path d="M67.1178 63.7761C66.6041 64.9487 66.1016 66.1212 65.5879 67.2938C66.5036 68.31 67.4193 69.3374 68.335 70.3536C67.933 68.1537 67.5198 65.9649 67.1178 63.7761Z" fill="#4170B5"></path><path d="M76.8776 56.7407C76.3639 57.9133 75.8613 59.0858 75.3477 60.2584C76.2634 61.2746 77.1791 62.302 78.0948 63.3182C77.6928 61.1294 77.2796 58.9295 76.8776 56.7407Z" fill="#1C1C1C"></path><path d="M66.5148 61.0291C65.3422 61.6879 64.1696 62.358 62.9971 63.0168C63.0976 63.8879 63.1981 64.7478 63.2986 65.6188C64.3706 64.0777 65.4427 62.559 66.5148 61.0291Z" fill="#011333"></path><path d="M73.5726 59.7224C72.7574 60.3366 71.9422 60.9508 71.127 61.5538C71.2275 63.6421 71.328 65.7304 71.4285 67.8187C72.1432 65.1162 72.8579 62.4249 73.5726 59.7224Z" fill="#72A1DB"></path><path d="M73.9741 57.7457C73.2818 56.7518 72.6006 55.7579 71.9082 54.764C72.7011 53.826 73.4828 52.8768 74.2757 51.9387C74.1752 53.8707 74.0747 55.8026 73.9741 57.7457Z" fill="#D0E0F4"></path><path d="M80.7643 46.2434C79.9156 47.148 79.0557 48.0525 78.207 48.9459C78.6091 50.2971 78.9999 51.6484 79.4019 52.9996C79.8598 50.755 80.3065 48.4992 80.7643 46.2434Z" fill="#011333"></path><path d="M59.9258 69.3486C60.6628 68.511 61.3999 67.6623 62.1481 66.8248C61.6679 65.9091 61.1765 64.9934 60.6963 64.0776C60.4395 65.8309 60.1826 67.5953 59.9258 69.3486Z" fill="#4170B5"></path><path d="M78.4971 59.3762C79.2341 58.5386 79.9712 57.6899 80.7194 56.8524C80.2392 55.9367 79.7478 55.0209 79.2676 54.1052C79.0108 55.8585 78.7539 57.6229 78.4971 59.3762Z" fill="#4170B5"></path><path d="M69.9425 54.1053C69.7973 54.0271 68.9598 55.1773 67.4187 57.5448C67.3182 58.4605 67.2177 59.3762 67.1172 60.292C69.172 56.2717 70.1212 54.2058 69.9425 54.1053Z" fill="#4170B5"></path><path d="M65.5983 70.5322C65.3191 70.9677 65.0399 71.4033 64.7607 71.8276C64.9171 72.1291 65.0623 72.4418 65.2186 72.7433C65.3414 72.0175 65.4643 71.2804 65.5983 70.5322Z" fill="#011333"></path><path d="M7.90641 92.4983V85.5076C7.90641 84.5137 7.6719 83.799 7.20288 83.3523C6.73385 82.9057 6.14199 82.6823 5.42729 82.6823C4.70141 82.6823 4.10955 82.9057 3.64052 83.3412C3.18267 83.7767 2.94816 84.5026 2.94816 85.5076V92.4983H0V85.5076C0 84.5472 0.134007 83.7209 0.390854 83.0173C0.658868 82.3138 1.01622 81.7331 1.46291 81.2864C1.92077 80.8285 2.4568 80.4935 3.08216 80.2702C3.70753 80.0468 4.38873 79.9352 5.1146 79.9352C6.04148 79.9352 6.85669 80.125 7.58257 80.4935C8.29727 80.862 8.87797 81.3981 9.32466 82.0904H9.36933C9.79368 81.3981 10.3744 80.862 11.0891 80.4935C11.8038 80.125 12.6413 79.9352 13.5794 79.9352C14.3053 79.9352 14.9865 80.0468 15.6118 80.2702C16.2372 80.4935 16.7844 80.8285 17.2311 81.2864C17.6889 81.7443 18.0463 82.3138 18.3031 83.0173C18.5711 83.7209 18.694 84.5472 18.694 85.5076V92.4983H15.7458V85.5076C15.7458 84.5026 15.5113 83.7767 15.0535 83.3412C14.5956 82.9057 13.9926 82.6823 13.2667 82.6823C12.552 82.6823 11.9713 82.9057 11.5134 83.3523C11.0556 83.799 10.8211 84.5137 10.8211 85.5076V92.4983H7.90641ZM23.6857 87.2386V87.2832C23.8756 88.0873 24.2664 88.7238 24.8583 89.1928C25.4502 89.6618 26.1872 89.8964 27.0918 89.8964C28.376 89.8964 29.3252 89.5167 29.9171 88.7573H32.9881C32.5414 89.9075 31.7932 90.8121 30.7658 91.4933C29.7384 92.1745 28.51 92.5095 27.0918 92.5095C26.1425 92.5095 25.2715 92.3532 24.4898 92.0405C23.7081 91.7278 23.0269 91.2923 22.4573 90.7339C21.8878 90.1755 21.4411 89.5167 21.1284 88.735C20.8158 87.9644 20.6594 87.1269 20.6594 86.2223C20.6594 85.3178 20.8158 84.4802 21.1284 83.7097C21.4411 82.9392 21.8878 82.2691 22.4573 81.7108C23.0269 81.1524 23.7081 80.7169 24.4898 80.4042C25.2715 80.0915 26.1425 79.9352 27.0918 79.9352C28.0298 79.9352 28.8897 80.0915 29.6826 80.4042C30.4754 80.7169 31.1455 81.1524 31.7038 81.7108C32.2622 82.2691 32.6977 82.928 33.0104 83.7097C33.3231 84.4914 33.4794 85.3178 33.4794 86.2223V87.2386H23.6857ZM27.0918 82.5483C26.2319 82.5483 25.5283 82.7605 24.9476 83.1737C24.3781 83.598 23.9761 84.1676 23.7527 84.8934V84.9381H30.4308V84.8934C30.2074 84.1676 29.8054 83.598 29.2247 83.1737C28.644 82.7605 27.9293 82.5483 27.0918 82.5483ZM45.4172 87.4619C45.4172 88.2994 45.2944 89.0476 45.0599 89.6842C44.8254 90.3207 44.4792 90.8456 44.0325 91.2588C43.5858 91.6719 43.0609 91.9846 42.4467 92.1856C41.8325 92.3867 41.1625 92.4983 40.4143 92.4983C39.6661 92.4983 38.996 92.3978 38.3818 92.1856C37.7677 91.9846 37.2428 91.6719 36.7961 91.2588C36.3494 90.8456 36.0032 90.3207 35.7687 89.6842C35.5342 89.0476 35.4114 88.3106 35.4114 87.4619V75.848H38.3595V79.9352H44.6802V82.6153H38.3595V87.4619C38.3595 88.2883 38.5494 88.869 38.929 89.2152C39.3087 89.5613 39.8001 89.74 40.4143 89.74C41.0285 89.74 41.5198 89.5725 41.8995 89.2375C42.2792 88.9025 42.4691 88.3106 42.4691 87.4619V87.138H45.4172V87.4619ZM60.5712 92.4983H57.8687C57.8687 92.0516 57.8687 91.5938 57.8687 91.1471C57.1763 91.6384 55.7804 92.4648 53.9043 92.4983C51.8384 92.5318 49.1917 91.5938 47.9634 89.2152C46.6903 86.736 47.74 84.2122 47.9187 83.799C48.0639 83.4529 48.4324 82.5818 49.2811 81.7554C49.8618 81.1859 50.5653 80.7392 51.3582 80.4154C52.1622 80.0915 53.0445 79.9352 54.016 79.9352C54.9764 79.9352 55.8586 80.0915 56.6626 80.4042C57.4667 80.7169 58.1591 81.1636 58.7286 81.7331C59.2981 82.3026 59.7448 82.9838 60.0687 83.7879C60.3925 84.5919 60.5489 85.4853 60.5489 86.4792V92.4983H60.5712ZM54.0272 90.0639C55.1216 90.0639 55.9926 89.7177 56.6403 89.0365C57.288 88.3553 57.623 87.4619 57.623 86.3787C57.623 85.2843 57.2992 84.4021 56.6403 83.7209C55.9926 83.0397 55.1216 82.6935 54.0272 82.6935C52.9328 82.6935 52.0617 83.0397 51.4029 83.7209C50.744 84.4021 50.409 85.2954 50.409 86.3787C50.409 87.4731 50.744 88.3553 51.4029 89.0365C52.0617 89.7288 52.944 90.0639 54.0272 90.0639ZM67.439 92.4983L62.5031 79.9352H65.8086L69.2705 89.6507H69.3263L72.7882 79.9352H76.0155L71.0684 92.4983H67.439ZM79.3992 78.7961C78.852 78.7961 78.3941 78.6063 78.0144 78.2266C77.6348 77.8469 77.4449 77.389 77.4449 76.8418C77.4449 76.2835 77.6348 75.8144 78.0144 75.4348C78.3941 75.0551 78.852 74.8652 79.3992 74.8652C79.9575 74.8652 80.4266 75.0551 80.7951 75.4348C81.1636 75.8144 81.3534 76.2835 81.3534 76.8418C81.3534 77.389 81.1636 77.8469 80.7951 78.2266C80.4266 78.6063 79.9575 78.7961 79.3992 78.7961ZM77.9363 92.4983V79.9352H80.8844V92.4983H77.9363ZM82.8164 92.4983V89.9857L90.0304 82.6711V82.6153H83.196V79.9463H94.1288V82.459L86.9147 89.7735V89.8294H94.3856V92.4983H82.8164ZM109.16 86.2112C109.16 87.1157 109.004 87.9533 108.691 88.7238C108.378 89.4943 107.932 90.1644 107.362 90.7116C106.792 91.2699 106.111 91.7055 105.318 92.0181C104.525 92.3308 103.666 92.4872 102.739 92.4872C101.79 92.4872 100.918 92.3308 100.148 92.0181C99.3662 91.7055 98.685 91.2699 98.1155 90.7116C97.546 90.1532 97.0993 89.4943 96.7866 88.7238C96.4739 87.9533 96.3176 87.1157 96.3176 86.2112C96.3176 85.3066 96.4739 84.4691 96.7866 83.6985C97.0993 82.928 97.546 82.258 98.1155 81.7108C98.685 81.1524 99.3662 80.7169 100.148 80.4042C100.93 80.0915 101.79 79.9352 102.739 79.9352C103.677 79.9352 104.537 80.0915 105.318 80.4042C106.111 80.7169 106.792 81.1524 107.362 81.7108C107.932 82.2691 108.378 82.928 108.691 83.6985C109.004 84.4802 109.16 85.3178 109.16 86.2112ZM102.739 89.8182C103.8 89.8182 104.648 89.4832 105.285 88.8131C105.921 88.1431 106.234 87.2832 106.234 86.2223C106.234 85.1614 105.921 84.2904 105.285 83.6315C104.648 82.9615 103.8 82.6265 102.739 82.6265C101.678 82.6265 100.818 82.9615 100.181 83.6315C99.5337 84.3016 99.2099 85.1614 99.2099 86.2223C99.2099 87.2832 99.5337 88.1543 100.181 88.8131C100.818 89.4832 101.667 89.8182 102.739 89.8182ZM118.898 85.5076V85.3848C118.898 84.3909 118.674 83.6985 118.228 83.2965C117.781 82.8945 117.2 82.6935 116.474 82.6935C115.749 82.6935 115.157 82.8945 114.71 83.2965C114.263 83.6985 114.04 84.4021 114.04 85.3848V92.4983H111.092V85.3848C111.092 84.4579 111.226 83.6539 111.483 82.9727C111.751 82.2915 112.119 81.7219 112.588 81.2752C113.057 80.8285 113.627 80.4935 114.286 80.2702C114.945 80.0468 115.67 79.9352 116.463 79.9352C117.256 79.9352 117.982 80.0468 118.641 80.2702C119.3 80.4935 119.869 80.8285 120.338 81.2864C120.807 81.7443 121.176 82.3138 121.433 82.995C121.69 83.6762 121.812 84.4914 121.812 85.4295V85.5076H118.898Z" fill="white"></path></svg>