<svg xmlns="http://www.w3.org/2000/svg" width="60" height="60" viewBox="0 0 60 60" fill="none"><ellipse cx="30" cy="29.7087" rx="30" ry="29.7087" fill="#4170B5"></ellipse><path fill-rule="evenodd" clip-rule="evenodd" d="M13 29.7088C13 34.305 14.8437 38.713 18.1256 41.963C21.4075 45.213 25.8587 47.0389 30.5 47.0389C35.1413 47.0389 39.5925 45.213 42.8744 41.963C46.1563 38.713 48 34.305 48 29.7088C48 25.1125 46.1563 20.7046 42.8744 17.4545C39.5925 14.2045 35.1413 12.3787 30.5 12.3787C25.8587 12.3787 21.4075 14.2045 18.1256 17.4545C14.8437 20.7046 13 25.1125 13 29.7088V29.7088ZM45 29.7088C45 33.5171 43.4723 37.1694 40.753 39.8623C38.0338 42.5551 34.3456 44.068 30.5 44.068C26.6544 44.068 22.9662 42.5551 20.247 39.8623C17.5277 37.1694 16 33.5171 16 29.7088C16 25.9005 17.5277 22.2481 20.247 19.5553C22.9662 16.8624 26.6544 15.3495 30.5 15.3495C34.3456 15.3495 38.0338 16.8624 40.753 19.5553C43.4723 22.2481 45 25.9005 45 29.7088V29.7088Z" fill="white" fill-opacity="0.61"></path><path fill-rule="evenodd" clip-rule="evenodd" d="M23 29.7087C23 38.6649 25.982 46.0485 30.5 46.0485C35.018 46.0485 38 38.6649 38 29.7087C38 20.7525 35.018 13.3689 30.5 13.3689C25.982 13.3689 23 20.7525 23 29.7087ZM35 29.7087C35 37.1597 32.61 43.0776 30.5 43.0776C28.39 43.0776 26 37.1597 26 29.7087C26 22.2578 28.39 16.3398 30.5 16.3398C32.61 16.3398 35 22.2578 35 29.7087Z" fill="white" fill-opacity="0.61"></path><path d="M17.704 20.7307L19.716 18.5283C19.916 18.7066 20.134 18.8848 20.366 19.0571C22.908 20.9427 26.966 22.1072 31.396 22.1072C35.178 22.1072 38.7 21.2615 41.258 19.8137C41.874 19.4651 42.422 19.0868 42.896 18.6848L44.844 20.9446C44.1932 21.4913 43.4914 21.9754 42.748 22.3905C39.716 24.1096 35.68 25.0761 31.396 25.0761C26.352 25.0761 21.666 23.7333 18.566 21.4338C18.2679 21.2127 17.9803 20.9781 17.704 20.7307V20.7307ZM17.704 38.7184L19.716 40.9208C19.916 40.7406 20.134 40.5643 20.366 40.392C22.908 38.5065 26.966 37.3419 31.396 37.3419C35.178 37.3419 38.7 38.1876 41.258 39.6354C41.874 39.984 42.422 40.3623 42.896 40.7643L44.844 38.5045C44.1924 37.9589 43.4907 37.4748 42.748 37.0587C39.716 35.3395 35.68 34.373 31.396 34.373C26.352 34.373 21.666 35.7158 18.566 38.0153C18.2679 38.2364 17.9803 38.471 17.704 38.7184V38.7184ZM14 31.1941V28.2233H47V31.1941H14Z" fill="white" fill-opacity="0.61"></path></svg>