<svg xmlns="http://www.w3.org/2000/svg" width="53" height="74" viewBox="0 0 53 74" fill="none"><path d="M28.2977 59.4432C27.5495 57.6788 26.7901 55.9255 26.0419 54.1611C26.0419 54.1276 26.0308 54.1053 26.0308 54.0718C26.0419 54.0941 26.0531 54.1164 26.0531 54.1276C26.0531 54.1276 26.0531 54.1276 26.0531 54.1388C26.8013 55.9144 27.5495 57.6788 28.2977 59.4432Z" fill="#4F4F4F"></path><path d="M47.751 42.7817C48.3317 41.0954 48.9236 39.4203 49.5043 37.7341C48.4322 37.1757 47.3713 36.6174 46.2993 36.0702C46.0424 36.0143 45.7744 35.9697 45.5176 35.9138C46.2658 38.2031 47.014 40.4924 47.751 42.7817Z" fill="#D0E0F4"></path><path d="M46.3665 40.9839C45.6183 39.0296 44.8812 37.0754 44.133 35.1211C44.0548 35.1769 43.9878 35.2216 43.9097 35.2774C43.5077 37.4439 43.1056 39.6215 42.7036 41.7879C43.9208 41.5088 45.1492 41.2519 46.3665 40.9839Z" fill="#72A1DB"></path><path d="M42.5137 11.2453C42.8822 13.2443 43.2507 15.2321 43.6081 17.231C43.9207 16.0696 44.2223 14.9082 44.5349 13.7468C44.4568 12.7864 44.3898 11.826 44.3116 10.8545C43.7197 10.888 43.139 10.9215 42.5472 10.9662C42.536 11.0667 42.5248 11.156 42.5137 11.2453Z" fill="#D0E0F4"></path><path d="M46.6902 28.3983C46.9805 27.516 47.2597 26.6338 47.55 25.7516C46.3886 23.7192 45.2161 21.6867 44.0547 19.6543C44.9369 22.569 45.8079 25.4836 46.6902 28.3983Z" fill="#011333"></path><path d="M42.5583 49.3034C43.407 46.8913 44.2446 44.4791 45.0933 42.067C45.0486 42.0447 45.0151 42.0223 44.9704 42C44.1217 43.0944 43.2842 44.1888 42.4355 45.2832C42.4355 46.6121 42.4355 47.9521 42.4243 49.281C42.4802 49.2922 42.5248 49.3034 42.5583 49.3034Z" fill="#BDCBDB"></path><path d="M44.9707 23.429C44.9148 23.4736 44.8478 23.5183 44.792 23.563C44.8478 23.5071 44.9148 23.4625 44.9707 23.429Z" fill="#848484"></path><path d="M43.5635 19.6546C43.5751 19.6546 43.5751 19.6429 43.5635 19.6546C43.5635 19.6429 43.5635 19.6546 43.5635 19.6546Z" fill="#848484"></path><path d="M41.3078 20.4025C43.0387 23.0826 44.7585 25.7628 46.4894 28.4541C46.5564 28.4429 46.6234 28.4206 46.7016 28.4094C45.8193 25.4948 44.9371 22.5801 44.0549 19.6654C42.056 18.3812 40.057 17.097 38.0581 15.8127C39.1302 17.3315 40.2134 18.8726 41.3078 20.4025Z" fill="#D0E0F4"></path><path d="M46.4893 28.4541C46.5563 28.4429 46.6233 28.4206 46.7014 28.4094C46.6233 28.4206 46.5563 28.4318 46.4893 28.4541Z" fill="#858585"></path><path d="M43.6079 17.2312C43.7531 18.0352 43.9094 18.8393 44.0546 19.6545C44.3896 19.2971 44.7246 18.951 45.0485 18.5936C44.5683 18.1357 44.0881 17.6891 43.6079 17.2312Z" fill="#D0E0F4"></path><path d="M34.0489 54.1724C33.993 54.2394 33.9372 54.3064 33.8813 54.3734C33.926 54.3064 33.993 54.2394 34.0489 54.1724Z" fill="#696969"></path><path d="M32.899 55.5906C32.8431 55.6576 32.7873 55.7246 32.7314 55.7916C32.7873 55.7134 32.8431 55.6464 32.899 55.5906Z" fill="#696969"></path><path d="M33.4906 54.8423C33.4571 54.8981 33.4236 54.9428 33.3789 54.9986C33.4236 54.9428 33.4571 54.887 33.4906 54.8423Z" fill="#696969"></path><path d="M46.1206 36.0479C46.1876 36.0479 46.2434 36.059 46.3105 36.059C46.2434 36.059 46.1764 36.059 46.1206 36.0479Z" fill="#A7A7A7"></path><path d="M33.3678 55.021C33.3454 55.0433 33.3231 55.0657 33.3008 55.0992C33.3231 55.0768 33.3454 55.0433 33.3678 55.021Z" fill="#696969"></path><path d="M33.1108 55.3115C33.0773 55.345 33.055 55.3785 33.0215 55.412C33.055 55.3785 33.0773 55.345 33.1108 55.3115Z" fill="#696969"></path><path d="M34.0265 44.1887C32.2956 44.7247 30.5758 45.2608 28.8449 45.7968C27.65 46.1318 26.4439 46.4668 25.249 46.8019C26.4439 46.4445 27.6388 46.0872 28.8449 45.7298C30.5646 45.2161 32.2956 44.7024 34.0265 44.1887Z" fill="#D1D1D1"></path><path d="M34.2388 44.468C34.183 44.468 34.1271 44.468 34.0713 44.468C34.0936 44.5574 34.116 44.6467 34.1383 44.736L34.1495 44.7472C34.1718 44.7472 34.2053 44.736 34.2276 44.736C34.2388 44.6467 34.2388 44.5574 34.2388 44.468Z" fill="#818181"></path><path d="M33.9598 7.85059C33.4349 9.61501 32.8989 11.3794 32.374 13.1327C32.8989 11.3794 33.4237 9.61501 33.9598 7.85059Z" fill="#818181"></path><path d="M43.8316 34.5738C44.7138 32.5302 45.596 30.4866 46.4783 28.443C44.8813 28.1527 43.2844 27.8511 41.6875 27.5608C42.4022 29.8947 43.1169 32.2399 43.8316 34.5738Z" fill="#EDEDED"></path><path d="M44.5125 33.323C44.412 33.5463 44.3227 33.7585 44.2222 33.9819C44.3227 33.7585 44.412 33.5463 44.5125 33.323Z" fill="#A7A7A7"></path><path d="M44.7025 32.9434C44.6355 33.0662 44.5797 33.2002 44.5127 33.323C44.5685 33.2002 44.6355 33.0662 44.7025 32.9434Z" fill="#A7A7A7"></path><path d="M44.8925 32.4744C44.8255 32.6307 44.7585 32.787 44.7026 32.9434C44.7585 32.787 44.8255 32.6307 44.8925 32.4744Z" fill="#A7A7A7"></path><path d="M42.5248 8.16329C42.5248 8.08512 42.5248 8.00694 42.5248 7.93994C42.1228 8.04045 41.7207 8.15212 41.3076 8.25263C40.4588 8.4648 39.599 8.67698 38.7391 8.88916C38.7056 8.92266 38.6609 8.95616 38.6274 8.98966C38.5716 10.6312 38.5157 12.2617 38.4487 13.9033C38.4934 13.9144 38.5492 13.9144 38.5939 13.9256C38.6162 13.9256 38.6274 13.9256 38.6497 13.9256C39.9563 11.9937 41.2405 10.0729 42.5248 8.16329Z" fill="#D0E0F4"></path><path d="M44.4121 21.0615C44.4456 21.1509 44.4791 21.2514 44.5014 21.3407C44.5014 21.2514 44.5014 21.1509 44.4903 21.0615C44.4791 21.0615 44.4456 21.0615 44.4121 21.0615Z" fill="#858585"></path><path d="M39.7109 33.6804C41.0845 33.982 42.4581 34.2723 43.8317 34.5738C43.117 32.2399 42.4022 29.8947 41.6875 27.5608C41.0287 29.6044 40.3698 31.648 39.7109 33.6804Z" fill="#D0E0F4"></path><path d="M28.8449 45.7969C27.65 46.1319 26.4439 46.4669 25.249 46.802C26.3546 45.5736 27.4713 44.3563 28.5769 43.1279C28.6662 43.999 28.7555 44.8589 28.8449 45.7299C28.8337 45.7522 28.8449 45.7746 28.8449 45.7969Z" fill="#D0E0F4"></path><path d="M32.3738 13.1438C31.9606 14.7966 31.5362 16.4605 31.123 18.1132C31.2571 17.5437 31.3911 16.9742 31.5362 16.3935C31.8043 15.2879 32.0834 14.2047 32.3738 13.1438Z" fill="#606060"></path><path d="M41.6872 27.5607C40.6709 26.9242 39.6436 26.2877 38.6273 25.6511C38.4487 26.578 38.27 27.4937 38.0913 28.4206C39.2974 28.1414 40.4923 27.8511 41.6872 27.5607Z" fill="#D0E0F4"></path><path d="M41.5869 28.2085C41.6874 28.4653 41.7879 28.7222 41.8884 28.979C41.7879 28.7222 41.6874 28.4653 41.5869 28.2085Z" fill="#A7A7A7"></path><path d="M43.4741 33.323C43.5411 33.5128 43.597 33.7027 43.664 33.8925C43.597 33.7027 43.5411 33.5128 43.4741 33.323Z" fill="#A7A7A7"></path><path d="M36.2266 10.7429C36.9748 11.7926 37.723 12.8423 38.4712 13.8809C38.527 12.2393 38.5828 10.6089 38.6499 8.96729C37.8346 9.57032 37.0306 10.1622 36.2266 10.7429Z" fill="#91A0B5"></path><path d="M39.3308 33.9149C38.1359 32.6865 36.9411 31.4469 35.7573 30.2185C35.7908 31.7931 35.8243 33.3677 35.8467 34.9423C37.0081 34.5961 38.1695 34.2611 39.3308 33.9149Z" fill="#D0E0F4"></path><path d="M39.6101 33.8926C39.6436 33.8256 39.6771 33.7586 39.7218 33.6804C40.3807 31.6368 41.0395 29.5932 41.6984 27.5608C40.5035 27.8511 39.2974 28.1415 38.1025 28.4207C38.5939 30.2521 39.1076 32.0724 39.6101 33.8926Z" fill="#EDEDED"></path><path d="M41.0171 28.6106C40.9836 28.6999 40.9501 28.8004 40.9277 28.8898C40.9612 28.8004 40.9836 28.6999 41.0171 28.6106Z" fill="#A7A7A7"></path><path d="M32.3627 38.7839C32.3627 38.2814 32.3515 37.7789 32.3515 37.2764C31.8155 37.522 31.2794 37.7789 30.7434 38.0246H30.7546C30.7211 38.0581 30.6764 38.0916 30.6429 38.1251C30.5201 38.1586 30.4084 38.1921 30.2856 38.2144C30.2521 38.2256 30.2186 38.2479 30.1851 38.2591C30.2409 38.4043 30.3079 38.5383 30.3637 38.6834C31.0226 38.7281 31.6926 38.7504 32.3627 38.7839Z" fill="#1C1C1C"></path><path d="M35.7576 30.2186C35.7911 31.7932 35.8246 33.3678 35.847 34.9424C35.78 34.9982 35.713 35.0652 35.646 35.1211C35.5901 35.1434 35.5231 35.1657 35.4673 35.1881C34.9201 35.3779 34.3617 35.5789 33.8145 35.7688C33.6694 35.8134 33.5242 35.8469 33.3678 35.8804C33.3567 35.5231 33.3455 35.1546 33.3455 34.7972C33.2338 34.719 33.1222 34.6409 33.0105 34.5627C32.642 34.9982 32.2846 35.4337 31.9161 35.8693C31.9049 35.8916 31.8938 35.9028 31.8938 35.9251C31.8826 35.9474 31.8603 35.9809 31.8491 36.0033C31.8379 36.0256 31.8268 36.0479 31.8268 36.0703C31.6928 36.852 31.2572 37.4662 30.7435 38.0357H30.7547C30.7212 38.0692 30.6765 38.1027 30.643 38.1362C30.5202 38.1697 30.4085 38.2032 30.2857 38.2256C30.0623 37.8124 29.8502 37.4103 29.6268 36.9972C29.3141 36.986 28.9903 36.9637 28.6776 36.9525C28.3314 36.9413 27.9852 36.919 27.639 36.9078C28.1081 36.316 28.5771 35.7241 29.0573 35.1211C29.0685 34.4287 29.0908 33.7363 29.102 33.0439C28.5213 32.5079 27.9406 31.9719 27.3599 31.4359C28.0411 31.4024 28.7223 31.38 29.4705 31.3465C29.2025 30.8663 28.9344 30.3861 28.6664 29.906C28.5883 29.7608 28.4989 29.6044 28.4208 29.4593C28.6441 28.8562 28.8563 28.2532 29.0796 27.6502C30.04 28.7111 31.0004 29.7719 31.9719 30.8328L33.3343 27.1365C33.3567 27.1253 33.3902 27.1141 33.4125 27.103C33.8369 27.0025 34.2612 26.9131 34.6856 26.7903C34.9424 26.7121 35.1769 26.6898 35.4115 26.7456C35.6348 26.8015 35.78 26.902 35.8358 26.9355C36.2043 27.1923 37.0195 27.7172 38.1251 28.4207C37.3099 29.0237 36.5393 29.6156 35.7576 30.2186Z" fill="#EDEDED"></path><path d="M35.657 35.1211C34.8977 35.3668 34.1383 35.6236 33.3789 35.8693C33.0886 36.2713 32.8094 36.6845 32.519 37.0865C33.5576 36.4388 34.6073 35.78 35.657 35.1211Z" fill="#ADADAD"></path><path d="M35.7573 30.2186C36.9522 31.447 38.1471 32.6865 39.3308 33.9149C39.4202 33.9038 39.5095 33.9038 39.61 33.8926C39.1075 32.0723 38.605 30.2521 38.1024 28.4207C37.3096 29.0237 36.539 29.6156 35.7573 30.2186Z" fill="#D0E0F4"></path><path d="M31.9048 21.7428C32.1728 22.2118 32.5301 22.3793 33.055 22.0778C33.3789 21.8991 33.5687 21.4859 33.8144 21.1732C33.524 21.1062 33.2225 21.0504 32.9322 20.9834C32.5972 21.2291 32.251 21.4859 31.9048 21.7428Z" fill="#858585"></path><path d="M32.1617 21.1621C32.184 21.0951 32.2063 21.0281 32.2287 20.9611C32.1505 20.8829 32.0723 20.8047 31.983 20.7265C31.9495 20.693 31.9272 20.6707 31.8936 20.6372C31.6368 21.1956 31.3911 21.7428 31.1343 22.3011C31.38 22.0108 31.6256 21.7204 31.8713 21.4301C31.9718 21.3407 32.0723 21.2514 32.1617 21.1621Z" fill="#1C1C1C"></path><path d="M38.6611 30.4978C38.7281 30.777 38.7951 31.0673 38.8621 31.3465C38.784 31.0562 38.7281 30.777 38.6611 30.4978Z" fill="#D0E0F4"></path><path d="M38.8506 31.3464C38.9176 31.5698 38.9734 31.782 39.0404 32.0053C38.9846 31.782 38.9176 31.5586 38.8506 31.3464Z" fill="#A7A7A7"></path><path d="M39.0405 32.0054C39.1075 32.1952 39.1634 32.3851 39.2304 32.5749C39.1634 32.3851 39.1075 32.1952 39.0405 32.0054Z" fill="#A7A7A7"></path><path d="M30.2742 38.2255C30.0509 37.8123 29.8387 37.4103 29.6153 36.9971C29.392 37.4103 29.1687 37.8123 28.9453 38.2255C29.0347 38.3818 29.1352 38.5382 29.2245 38.6833C29.593 38.6833 29.9727 38.6833 30.3412 38.6833C30.3301 38.5382 30.2965 38.3818 30.2742 38.2255Z" fill="#16417F"></path><path d="M30.7435 38.0356C30.71 38.0691 30.6653 38.1026 30.6318 38.1361C30.6653 38.1026 30.71 38.0691 30.7435 38.0356Z" fill="#4A4A4A"></path><path d="M29.6157 36.9972C29.3923 37.4104 29.169 37.8124 28.9456 38.2256C28.9121 38.2256 28.8786 38.2256 28.8563 38.2256C28.3873 37.8459 27.9294 37.4551 27.4604 37.0754C27.4604 37.0531 27.4492 37.0307 27.4492 36.9972C27.5051 36.9637 27.5609 36.9302 27.6279 36.8967C27.9741 36.9191 28.3203 36.9302 28.6665 36.9414C28.9903 36.9749 29.303 36.9861 29.6157 36.9972Z" fill="#16417F"></path><path d="M27.3374 31.4358C27.3374 31.447 27.3374 31.447 27.3374 31.4358C27.3374 31.447 27.3374 31.447 27.3374 31.4358C27.3039 31.447 27.2816 31.447 27.2481 31.447H23.373C24.0207 31.447 24.6685 31.447 25.3162 31.447C25.9639 31.447 26.6116 31.447 27.2481 31.447H27.3374V31.4358Z" fill="#1C1C1C"></path><path d="M27.6279 36.9077C27.5721 36.9412 27.5162 36.9747 27.4492 37.0082C27.5051 36.9747 27.5721 36.9412 27.6279 36.9077Z" fill="#1C1C1C"></path><path d="M29.4477 31.3465C28.7442 31.38 28.0406 31.4135 27.3483 31.447C27.3148 31.447 27.2924 31.447 27.2589 31.447V31.4358C26.8569 29.8278 26.466 28.2197 26.0752 26.6116C26.0864 26.5222 26.0975 26.4329 26.1199 26.3547C26.3432 26.6563 26.5554 26.9466 26.7787 27.2481C27.3259 27.9852 27.862 28.7222 28.4092 29.4592C28.4873 29.6044 28.5767 29.7608 28.6548 29.9059C28.9117 30.3861 29.1797 30.8663 29.4477 31.3465Z" fill="#16417F"></path><path d="M29.057 27.6502C28.8337 28.2532 28.6215 28.8562 28.3982 29.4593C27.851 28.7222 27.315 27.9852 26.7678 27.2482C26.5444 26.9466 26.3322 26.6563 26.1089 26.3548C26.1201 26.3101 26.1201 26.2654 26.1312 26.2319C26.3099 26.3213 26.4997 26.4106 26.6784 26.4999C27.4601 26.8796 28.2642 27.2593 29.057 27.6502Z" fill="#D0E0F4"></path><path d="M33.3116 27.1365C32.8984 27.1588 32.4853 27.1811 32.0721 27.2035C32.0274 28.4095 31.9939 29.6268 31.9492 30.8328C32.3959 29.5933 32.8538 28.3649 33.3116 27.1365Z" fill="#D0E0F4"></path><path d="M31.4917 25.2939C32.3404 25.1041 33.1891 24.9142 34.0378 24.7244C34.0378 24.6686 34.049 24.6127 34.049 24.5569L34.0378 24.5457C33.5688 24.0209 33.0886 23.4848 32.6196 22.96C32.5637 22.9711 32.5079 22.9935 32.4521 23.0046C32.1059 23.7082 31.7485 24.4117 31.4023 25.1152C31.4358 25.1822 31.4693 25.2381 31.4917 25.2939Z" fill="#16417F"></path><path d="M31.0449 23.2503C31.1343 23.8757 31.2236 24.4899 31.3241 25.1153C31.3576 25.1153 31.3799 25.1153 31.4134 25.1153C31.7596 24.4117 32.117 23.7082 32.4632 23.0046C31.9941 23.0828 31.5139 23.1721 31.0449 23.2503Z" fill="#16417F"></path><path d="M29.4258 22.0999C29.839 22.3679 30.241 22.6359 30.6542 22.904V22.8705C30.5983 22.3903 30.5425 21.9101 30.4755 21.4299C30.442 21.3405 30.4085 21.2512 30.375 21.1619C30.0623 21.4634 29.7496 21.7872 29.4258 22.0999Z" fill="#011333"></path><path d="M37.5328 24.6461C37.1531 24.0208 36.7623 23.3954 36.3826 22.77C36.0252 23.9873 35.6679 25.2156 35.3105 26.4329C35.3552 26.4664 35.3999 26.4887 35.4557 26.5222C36.1481 25.8968 36.8405 25.2715 37.5328 24.6461Z" fill="#D0E0F4"></path><path d="M33.9039 22.1782C33.8816 22.2005 33.8592 22.234 33.8369 22.2563C33.9039 23.0157 33.9709 23.7863 34.0379 24.5456L34.0491 24.5568C34.5851 23.6411 35.1211 22.7254 35.6572 21.7985C35.6237 21.7315 35.5902 21.6756 35.5567 21.6086C35.0206 21.8097 34.4623 21.9995 33.9039 22.1782Z" fill="#16417F"></path><path d="M13.1997 48.9126C14.2941 50.6212 15.3773 52.3187 16.4717 54.0272C16.5164 50.7441 16.5611 47.4609 16.6057 44.1777C16.4494 44.2336 16.2819 44.2894 16.1255 44.3452C15.1428 45.8752 14.1713 47.3939 13.1997 48.9126Z" fill="#D0E0F4"></path><path d="M16.5947 44.1889C18.3257 44.725 20.0454 45.261 21.7763 45.797C21.7763 45.7859 21.7763 45.7635 21.7763 45.7524C21.8657 44.8478 21.955 43.9433 22.0444 43.0387C20.7601 41.6205 19.4647 40.2134 18.1805 38.7952C17.6556 40.5931 17.1196 42.391 16.5947 44.1889Z" fill="#D0E0F4"></path><path d="M16.7733 22.2566C16.7063 23.016 16.6393 23.7865 16.5723 24.5459C17.0413 24.021 17.5215 23.485 17.9905 22.9601C17.5885 22.7256 17.1865 22.4911 16.7733 22.2566Z" fill="#16417F"></path><path d="M34.0269 44.189C34.0715 47.4721 34.1162 50.7553 34.1609 54.0385C35.2553 52.3299 36.3385 50.6325 37.4329 48.9239C36.4613 47.4051 35.4898 45.8864 34.5182 44.3676C34.3507 44.3006 34.1832 44.2448 34.0269 44.189Z" fill="#D0E0F4"></path><path d="M28.5771 43.0387C28.6665 43.9321 28.7558 44.8366 28.834 45.73C28.834 45.7524 28.834 45.7747 28.8452 45.797C30.5761 45.261 32.2958 44.725 34.0268 44.1889C33.5019 42.391 32.977 40.5931 32.441 38.7952C31.1568 40.2022 29.8614 41.6205 28.5771 43.0387Z" fill="#D0E0F4"></path><path d="M35.3221 21.2514C35.2439 21.1844 35.1658 21.1174 35.0876 21.0615C34.6967 21.43 34.3059 21.8097 33.915 22.1782C34.4734 21.9884 35.0206 21.8097 35.579 21.6199C35.4896 21.497 35.4003 21.3742 35.3221 21.2514Z" fill="#16417F"></path><path d="M32.6309 22.9601C33.0999 23.485 33.5801 24.021 34.0491 24.5459C33.9821 23.7865 33.9151 23.016 33.8481 22.2566C33.4461 22.4911 33.0329 22.7256 32.6309 22.9601Z" fill="#16417F"></path><path d="M30.4307 21.2849C30.5088 21.8098 30.5758 22.3346 30.654 22.8595C30.8215 22.6697 30.9779 22.491 31.1454 22.3011C30.9109 21.9661 30.6763 21.6311 30.4307 21.2849Z" fill="#011333"></path><path d="M32.1614 21.1619C32.0609 21.2512 31.9716 21.3405 31.8711 21.441C31.8823 21.5416 31.8934 21.6421 31.9046 21.7426C32.1503 21.6756 32.3848 21.6086 32.6305 21.5416C32.4741 21.4075 32.3178 21.2847 32.1614 21.1619Z" fill="#606060"></path><path d="M24.6014 54.0718C24.6014 54.0941 24.5902 54.1276 24.5902 54.1499C24.579 54.1835 24.5679 54.2169 24.5455 54.2505C23.8085 55.9814 23.0714 57.7123 22.3232 59.4432C23.0603 57.7123 23.7861 55.9702 24.5232 54.2393C24.5344 54.2058 24.5455 54.1723 24.5567 54.1499C24.5567 54.1499 24.5567 54.1499 24.5567 54.1388C24.579 54.1164 24.5902 54.0941 24.6014 54.0718Z" fill="#4F4F4F"></path><path d="M24.5902 54.1613C24.579 54.1613 24.579 54.1501 24.5679 54.1501C24.5679 54.1501 24.5679 54.1501 24.5679 54.1389C24.579 54.1501 24.579 54.1501 24.5902 54.1613Z" fill="#606060"></path><path d="M2.86996 42.7817C2.28926 41.0954 1.6974 39.4203 1.1167 37.7341C2.18876 37.1757 3.24965 36.6174 4.3217 36.0702C4.57855 36.0143 4.84656 35.9697 5.10341 35.9138C4.3552 38.2031 3.61817 40.4924 2.86996 42.7817Z" fill="#D0E0F4"></path><path d="M4.25488 40.9839C5.00309 39.0296 5.74013 37.0754 6.48833 35.1211C6.5665 35.1769 6.63351 35.2216 6.71168 35.2774C7.1137 37.4439 7.51572 39.6215 7.91774 41.7879C6.70051 41.5088 5.48328 41.2519 4.25488 40.9839Z" fill="#72A1DB"></path><path d="M8.11844 11.2453C7.74992 13.2443 7.3814 15.2321 7.02405 17.231C6.71137 16.0696 6.40985 14.9082 6.09717 13.7468C6.17534 12.7864 6.24234 11.826 6.32051 10.8545C6.91238 10.888 7.49307 10.9215 8.08494 10.9662C8.08494 11.0667 8.09611 11.156 8.11844 11.2453Z" fill="#D0E0F4"></path><path d="M6.1084 21.3522V21.3406H6.12007L6.1084 21.3522Z" fill="#929292"></path><path d="M3.93068 28.3983C3.64033 27.516 3.36115 26.6338 3.0708 25.7516C4.2322 23.7192 5.40476 21.6867 6.56615 19.6543C5.6951 22.569 4.81289 25.4836 3.93068 28.3983Z" fill="#011333"></path><path d="M8.0628 49.3034C7.21409 46.8913 6.37654 44.4791 5.52783 42.067C5.5725 42.0447 5.606 42.0223 5.65067 42C6.49938 43.0944 7.33693 44.1888 8.18564 45.2832C8.18564 46.6121 8.18564 47.9521 8.19681 49.281C8.14097 49.2922 8.10747 49.3034 8.0628 49.3034Z" fill="#BDCBDB"></path><path d="M5.65039 23.429C5.70623 23.4736 5.77323 23.5183 5.82907 23.563C5.77323 23.5071 5.71739 23.4625 5.65039 23.429Z" fill="#848484"></path><path d="M12.5741 15.8018C10.5752 17.086 8.57624 18.3702 6.5773 19.6545C5.69509 22.5691 4.81288 25.4838 3.93066 28.3984C3.99767 28.4096 4.06467 28.4319 4.14284 28.4431C5.87377 25.7629 7.59352 23.0828 9.32445 20.3915C10.4077 18.8728 11.4909 17.3317 12.5741 15.8018Z" fill="#D0E0F4"></path><path d="M4.14284 28.4541C4.07584 28.4429 4.00883 28.4206 3.93066 28.4094C3.99767 28.4206 4.06467 28.4318 4.14284 28.4541Z" fill="#858585"></path><path d="M7.01284 17.2312C6.86767 18.0352 6.71132 18.8393 6.56615 19.6545C6.23113 19.2971 5.89612 18.951 5.57227 18.5936C6.05246 18.1357 6.53265 17.6891 7.01284 17.2312Z" fill="#D0E0F4"></path><path d="M16.5835 54.1724C16.6393 54.2394 16.6952 54.3064 16.751 54.3734C16.6952 54.3064 16.6393 54.2394 16.5835 54.1724Z" fill="#696969"></path><path d="M16.9629 54.6414C17.0187 54.7084 17.0746 54.7754 17.1304 54.8312C17.0746 54.7754 17.0187 54.7084 16.9629 54.6414Z" fill="#696969"></path><path d="M17.7227 55.5906C17.7785 55.6576 17.8343 55.7246 17.8902 55.7916C17.8343 55.7134 17.7785 55.6464 17.7227 55.5906Z" fill="#696969"></path><path d="M17.1304 54.8423C17.1639 54.8981 17.1974 54.9428 17.242 54.9986C17.2085 54.9428 17.1639 54.887 17.1304 54.8423Z" fill="#696969"></path><path d="M16.751 54.3733C16.7845 54.4291 16.8291 54.4738 16.8626 54.5296C16.8291 54.4738 16.7845 54.4291 16.751 54.3733Z" fill="#696969"></path><path d="M4.51162 36.0479C4.44462 36.0479 4.38878 36.059 4.32178 36.059C4.37761 36.059 4.44462 36.059 4.51162 36.0479Z" fill="#A7A7A7"></path><path d="M17.2646 55.021C17.287 55.0433 17.3093 55.0657 17.3317 55.0992C17.3093 55.0768 17.287 55.0433 17.2646 55.021Z" fill="#696969"></path><path d="M17.5103 55.3115C17.5438 55.345 17.5661 55.3785 17.5996 55.412C17.5661 55.3785 17.5438 55.345 17.5103 55.3115Z" fill="#696969"></path><path d="M24.6014 54.0718C24.6014 54.0941 24.5903 54.1276 24.5903 54.1499C24.5903 54.1388 24.5791 54.1388 24.5791 54.1276C24.5791 54.1164 24.5903 54.0941 24.6014 54.0718Z" fill="#606060"></path><path d="M34.0268 44.1887C31.0787 47.8181 28.1305 51.4363 25.1823 55.0656C22.3235 51.4363 19.4535 47.8181 16.5947 44.1887C18.3257 44.7247 20.0454 45.2608 21.7763 45.7968C22.9266 46.1318 24.088 46.4668 25.2382 46.8019C26.4331 46.4668 27.6391 46.1318 28.834 45.7968C30.5761 45.2608 32.2959 44.7247 34.0268 44.1887Z" fill="#BDCBDB"></path><path d="M25.2489 46.8019C24.0987 46.4668 22.9373 46.1318 21.7871 45.7968C20.0561 45.2608 18.3364 44.7247 16.6055 44.1887C18.3364 44.7136 20.0673 45.2384 21.7982 45.7521C22.9373 46.0983 24.0875 46.4557 25.2489 46.8019Z" fill="#D1D1D1"></path><path d="M16.3823 44.468C16.4382 44.468 16.494 44.468 16.5498 44.468C16.5275 44.5574 16.5052 44.6467 16.4828 44.736L16.4717 44.7472C16.4493 44.7472 16.4158 44.736 16.3935 44.736C16.3935 44.6467 16.3823 44.5574 16.3823 44.468Z" fill="#818181"></path><path d="M6.7897 34.5738C5.90749 32.5302 5.02528 30.4866 4.14307 28.443C5.73998 28.1527 7.3369 27.8511 8.93382 27.5608C8.21911 29.8947 7.50441 32.2399 6.7897 34.5738Z" fill="#EDEDED"></path><path d="M6.1084 33.323C6.2089 33.5463 6.29824 33.7585 6.39874 33.9819C6.29824 33.7585 6.2089 33.5463 6.1084 33.323Z" fill="#A7A7A7"></path><path d="M5.92969 32.9434C5.99669 33.0662 6.05253 33.2002 6.11953 33.323C6.05253 33.2002 5.98552 33.0662 5.92969 32.9434Z" fill="#A7A7A7"></path><path d="M5.73975 32.4744C5.80675 32.6307 5.87375 32.787 5.92959 32.9434C5.86259 32.787 5.79558 32.6307 5.73975 32.4744Z" fill="#A7A7A7"></path><path d="M8.09619 8.16329C8.09619 8.08512 8.09619 8.00694 8.09619 7.93994C8.49821 8.04045 8.90023 8.15212 9.31342 8.25263C10.1621 8.4648 11.022 8.67698 11.8819 8.88916C11.9154 8.92266 11.9601 8.95616 11.9936 8.98966C12.0494 10.6312 12.1052 12.2617 12.1722 13.9033C12.1276 13.9144 12.0717 13.9144 12.0271 13.9256C12.0047 13.9256 11.9936 13.9256 11.9712 13.9256C10.6647 11.9937 9.38043 10.0729 8.09619 8.16329Z" fill="#D0E0F4"></path><path d="M8.09607 7.83947C8.78844 7.20293 9.49197 6.55523 10.1843 5.9187C10.7427 6.90142 11.3011 7.8953 11.8594 8.87802C10.9996 8.66584 10.1508 8.45367 9.29096 8.24149C8.88894 8.14099 8.48692 8.04048 8.07373 7.92881C8.09606 7.90647 8.09607 7.87297 8.09607 7.83947Z" fill="#D0D0D0"></path><path d="M6.20897 21.0615C6.17547 21.1509 6.14196 21.2514 6.11963 21.3407C6.11963 21.2514 6.11963 21.1509 6.1308 21.0615C6.14196 21.0615 6.17547 21.0615 6.20897 21.0615Z" fill="#858585"></path><path d="M10.9103 33.6804C9.5367 33.982 8.16312 34.2723 6.78955 34.5738C7.50426 32.2399 8.21896 29.8947 8.93367 27.5608C9.59253 29.6044 10.2514 31.648 10.9103 33.6804Z" fill="#D0E0F4"></path><path d="M25.249 46.802C24.0987 46.4669 22.9373 46.1319 21.7871 45.7969C21.7871 45.7857 21.7871 45.7634 21.7871 45.7522C21.8764 44.8812 21.9658 43.999 22.0551 43.1279C23.116 44.3563 24.1769 45.5736 25.249 46.802Z" fill="#D0E0F4"></path><path d="M32.2062 13.3448C30.7209 14.16 29.2245 14.9863 27.7393 15.8016C27.6276 16.5498 27.5048 17.298 27.3931 18.0573C27.0692 20.1456 26.7454 22.2339 26.4215 24.3222C26.3769 24.6125 26.3322 24.8917 26.2875 25.1821C26.2875 25.2044 26.2764 25.2267 26.2764 25.2491C26.2317 25.5729 26.1759 25.8856 26.1312 26.2094C26.1312 26.2206 26.1312 26.2318 26.1312 26.2318C26.12 26.2764 26.12 26.3211 26.1089 26.3546C26.0977 26.444 26.0865 26.5333 26.0642 26.6115C25.8185 28.2195 25.5617 29.8276 25.316 31.4357C25.1038 29.6825 24.8916 27.9292 24.6683 26.1871C24.6683 26.1759 24.6794 26.1536 24.6794 26.1424C24.6683 26.1424 24.6683 26.1536 24.6571 26.1536C24.6571 26.1424 24.6571 26.1313 24.6571 26.1201C24.6348 25.9079 24.6013 25.6846 24.5789 25.4724C24.5789 25.4612 24.5789 25.4501 24.5789 25.4389C24.4896 24.7354 24.4114 24.043 24.3221 23.3395C24.0987 21.4969 23.8754 19.6543 23.6521 17.8228C23.5851 17.2533 23.5069 16.6838 23.4399 16.1142C21.7648 15.1985 20.1009 14.2716 18.4258 13.3559C18.4369 13.3113 18.4481 13.2666 18.4593 13.2219H32.1727C32.1838 13.2554 32.195 13.3001 32.2062 13.3448Z" fill="#BDCBDB"></path><path d="M8.93359 27.5607C9.94981 26.9242 10.9772 26.2877 11.9934 25.6511C12.1721 26.578 12.3508 27.4937 12.5295 28.4206C11.3346 28.1414 10.1285 27.8511 8.93359 27.5607Z" fill="#D0E0F4"></path><path d="M9.03442 28.2085C8.93392 28.4653 8.83342 28.7222 8.73291 28.979C8.83342 28.7222 8.93392 28.4653 9.03442 28.2085Z" fill="#A7A7A7"></path><path d="M7.14688 33.323C7.07987 33.5128 7.02403 33.7027 6.95703 33.8925C7.02403 33.7027 7.09104 33.5128 7.14688 33.323Z" fill="#A7A7A7"></path><path d="M11.29 33.9149C12.4849 32.6865 13.6798 31.4469 14.8636 30.2185C14.8301 31.7931 14.7966 33.3677 14.7742 34.9423C13.6128 34.5961 12.4514 34.2611 11.29 33.9149Z" fill="#D0E0F4"></path><path d="M11.0219 33.8926C10.9884 33.8256 10.9549 33.7586 10.9102 33.6804C10.2513 31.6368 9.59246 29.5932 8.93359 27.5608C10.1285 27.8511 11.3346 28.1415 12.5295 28.4207C12.0269 30.2521 11.5244 32.0724 11.0219 33.8926Z" fill="#EDEDED"></path><path d="M9.60352 28.6106C9.63702 28.6999 9.67052 28.8004 9.69285 28.8898C9.67052 28.8004 9.63702 28.6999 9.60352 28.6106Z" fill="#A7A7A7"></path><path d="M18.2583 38.7839C18.2583 38.2814 18.2695 37.7789 18.2695 37.2764C18.8055 37.522 19.3415 37.7789 19.8776 38.0246H19.8664C19.8999 38.0581 19.9446 38.0916 19.9781 38.1251C20.1009 38.1586 20.2126 38.1921 20.3354 38.2144C20.3689 38.2256 20.4024 38.2479 20.4359 38.2591C20.3801 38.4043 20.3131 38.5383 20.2572 38.6834C19.5984 38.7281 18.9283 38.7504 18.2583 38.7839Z" fill="#1C1C1C"></path><path d="M23.2839 31.4359C23.2839 31.447 23.2839 31.447 23.2839 31.4359C23.2839 31.447 23.2839 31.447 23.2839 31.4359C22.7032 31.9719 22.1225 32.5079 21.5418 33.0439C21.553 33.7363 21.5753 34.4287 21.5865 35.1211C22.0555 35.7129 22.5245 36.3048 23.0047 36.9078C22.6585 36.919 22.3124 36.9413 21.9662 36.9525C21.6535 36.9637 21.3296 36.986 21.017 36.9972C20.7936 37.4103 20.5814 37.8124 20.3581 38.2256C20.2353 38.192 20.1236 38.1585 20.0007 38.1362C19.9672 38.1027 19.9226 38.0692 19.8891 38.0357H19.9002C19.3865 37.4662 18.9622 36.852 18.817 36.0703C18.817 36.0479 18.8058 36.0256 18.7947 36.0033C18.7835 35.9698 18.7612 35.9474 18.75 35.9139C18.7388 35.8916 18.7277 35.8804 18.7277 35.8581C18.3592 35.4226 18.0018 34.9871 17.6333 34.5515C17.5216 34.6297 17.4099 34.7079 17.2983 34.786C17.2871 35.1434 17.2759 35.5119 17.2759 35.8693C17.1308 35.8358 16.9744 35.8023 16.8292 35.7576C16.2709 35.5677 15.7237 35.3779 15.1765 35.1881C15.1207 35.1657 15.0536 35.1434 14.9978 35.1211C14.9308 35.0652 14.8638 34.9982 14.7968 34.9424C14.8303 33.3678 14.8638 31.7932 14.8861 30.2186C14.1044 29.6268 13.3227 29.0237 12.541 28.4207C13.6466 27.7172 14.4618 27.1811 14.8303 26.9355C14.8861 26.8908 15.0313 26.7903 15.2547 26.7456C15.4892 26.6898 15.7237 26.7121 15.9805 26.7903C16.3937 26.9131 16.8292 27.0025 17.2536 27.103C17.2759 27.1141 17.3094 27.1253 17.3318 27.1365L18.6942 30.8328C19.6546 29.7719 20.6149 28.7111 21.5865 27.6502C21.8098 28.2532 22.022 28.8562 22.2454 29.4593C21.8992 30.0846 21.5418 30.7212 21.1956 31.3465C21.9215 31.38 22.6027 31.4135 23.2839 31.4359Z" fill="#EDEDED"></path><path d="M14.9751 35.1211C15.7345 35.3668 16.4938 35.6236 17.2532 35.8693C17.5436 36.2713 17.8228 36.6845 18.1131 37.0865C17.0634 36.4388 16.0137 35.78 14.9751 35.1211Z" fill="#ADADAD"></path><path d="M14.8747 30.2186C13.6798 31.447 12.4849 32.6865 11.3012 33.9149C11.2118 33.9038 11.1225 33.9038 11.022 33.8926C11.5245 32.0723 12.027 30.2521 12.5296 28.4207C13.3113 29.0237 14.093 29.6156 14.8747 30.2186Z" fill="#D0E0F4"></path><path d="M38.6722 3.43961C40.0904 2.5574 41.4975 1.67518 42.9157 0.792969C41.129 2.52389 39.3422 4.25482 37.5555 5.97458C36.4611 6.57761 35.3667 7.19181 34.2723 7.79484C34.853 6.46594 35.4449 5.1482 36.0256 3.8193C36.9078 3.69646 37.79 3.56245 38.6722 3.43961ZM32.7089 48.7228C30.4978 50.5208 28.2866 52.3298 26.0644 54.1278L26.0532 54.1389C26.042 54.1389 26.042 54.1501 26.0309 54.1501C26.7791 55.9145 27.5384 57.6678 28.2866 59.4322C29.7607 55.8475 31.246 52.274 32.72 48.6893C32.72 48.7117 32.7089 48.7228 32.7089 48.7228ZM40.5483 5.68423C41.4305 4.95835 42.3127 4.24365 43.1949 3.51778C43.2843 3.36144 43.3848 3.2051 43.4741 3.04876C43.2843 2.30055 43.1056 1.54117 42.9157 0.792969C42.1229 2.42339 41.33 4.05381 40.5483 5.68423ZM42.268 41.9778C40.794 44.1889 39.3087 46.4 37.8346 48.6223C37.7006 48.7228 37.5666 48.8233 37.4326 48.9127C36.4611 47.3939 35.4895 45.8752 34.518 44.3564C36.1261 40.8834 37.7341 37.3992 39.3422 33.9262C39.4316 33.915 39.5209 33.9039 39.6214 33.9039C39.6549 34.0379 39.6772 34.1719 39.7219 34.3171C39.7219 34.3171 39.7442 34.3841 39.7666 34.4511C39.8336 34.7079 41.665 40.1799 42.268 41.9778ZM42.4467 11.2567C41.1737 12.1389 39.8894 13.0211 38.6164 13.9145C38.6834 14.1043 38.7392 14.2942 38.8062 14.4729C39.5767 15.2434 40.3361 16.0251 41.1067 16.7956C41.5533 14.953 42 13.0993 42.4467 11.2567ZM32.519 37.0977C32.7871 36.7292 33.0439 36.3495 33.3119 35.981C32.8429 35.9475 32.385 35.9028 31.916 35.8693C31.5251 36.5952 31.1343 37.3211 30.7434 38.0358C31.2795 37.7901 31.8155 37.5332 32.3515 37.2876C32.4074 37.2206 32.4632 37.1535 32.519 37.0977ZM30.2186 20.09V20.0788C30.2074 20.0006 30.1962 19.9225 30.1851 19.8443C30.1739 19.7773 30.1627 19.7215 30.1516 19.6545C29.2359 19.1184 28.309 18.5936 27.3933 18.0575C27.0694 20.1458 26.7456 22.2341 26.4217 24.3224C26.377 24.6127 26.3324 24.8919 26.2877 25.1823C26.2877 25.2046 26.2765 25.2269 26.2765 25.2493C26.3547 25.1711 26.4217 25.1041 26.4999 25.0259C27.4714 24.0544 28.443 23.094 29.4145 22.1224C29.4257 22.1113 29.4257 22.1113 29.4369 22.1001C29.7496 21.7874 30.0734 21.4747 30.3861 21.1509C30.3303 20.7935 30.2744 20.4473 30.2186 20.09ZM35.322 21.2514C35.6794 21.3742 36.0479 21.4971 36.4052 21.6199C36.2712 20.7935 36.1372 19.9783 35.9921 19.1631C35.9809 19.1296 35.8915 19.1073 35.8357 19.0849C35.8022 19.2524 35.7687 19.42 35.724 19.5763C35.5677 20.1123 35.4002 20.6483 35.2438 21.1844C35.2662 21.2067 35.2997 21.229 35.322 21.2514ZM14.5956 3.8193C15.1763 5.1482 15.7682 6.46594 16.3489 7.79484C15.2545 7.19181 14.1601 6.57761 13.0657 5.97458C11.2789 4.24365 9.49216 2.51273 7.7054 0.792969C9.12364 1.67518 10.5307 2.5574 11.949 3.43961C12.8312 3.56245 13.7134 3.69646 14.5956 3.8193ZM24.568 54.1389C24.5568 54.1278 24.5456 54.1166 24.5345 54.1054C24.4451 54.0273 24.3446 53.9491 24.2553 53.8821C22.1447 52.1623 20.034 50.4426 17.9123 48.7228C17.9011 48.7117 17.8899 48.7117 17.8899 48.7005C19.364 52.2852 20.8493 55.8587 22.3233 59.4434C23.0604 57.7125 23.7974 55.9815 24.5456 54.2506C24.5568 54.2171 24.5791 54.1836 24.5903 54.1501C24.5791 54.1501 24.5791 54.1501 24.568 54.1389ZM7.71657 0.792969C7.52672 1.54117 7.34805 2.30055 7.1582 3.04876C7.24754 3.2051 7.34805 3.36144 7.43738 3.51778C8.3196 4.24365 9.20181 4.95835 10.084 5.68423C9.29115 4.05381 8.49827 2.42339 7.71657 0.792969ZM10.8769 34.4399C10.8992 34.3729 10.9216 34.3059 10.9216 34.3059C10.9551 34.1719 10.9886 34.0379 11.0221 33.8927C11.1114 33.9039 11.2007 33.9039 11.3013 33.915C12.9093 37.3881 14.5174 40.8722 16.1255 44.3453C15.154 45.864 14.1824 47.3828 13.2109 48.9015C13.0768 48.801 12.9428 48.7005 12.8088 48.6111C11.3348 46.4 9.84951 44.1889 8.37543 41.9666C8.95613 40.1799 10.7987 34.7079 10.8769 34.4399ZM9.52566 16.7956C10.2962 16.0251 11.0556 15.2434 11.8261 14.4729C11.8931 14.283 11.949 14.0932 12.016 13.9145C10.7429 13.0323 9.45866 12.1501 8.18559 11.2567C8.62111 13.0993 9.0678 14.953 9.52566 16.7956ZM18.2808 37.2876C18.8168 37.5332 19.3528 37.7901 19.8889 38.0358C19.498 37.3099 19.1072 36.584 18.7163 35.8693C18.2473 35.9028 17.7894 35.9475 17.3204 35.981C17.5884 36.3495 17.8453 36.7292 18.1133 37.0977C18.1579 37.1535 18.2138 37.2206 18.2808 37.2876ZM24.5791 25.4726C24.5791 25.4614 24.5791 25.4503 24.5791 25.4391C24.4898 24.7356 24.4116 24.0432 24.3223 23.3397C24.0989 21.4971 23.8756 19.6545 23.6522 17.823C22.5913 18.4372 21.5416 19.0403 20.4807 19.6545C20.4696 19.7215 20.4584 19.7773 20.4472 19.8443C20.4361 19.9225 20.4249 20.0006 20.4137 20.0788C20.3579 20.4362 20.3021 20.7935 20.2462 21.1509C20.5589 21.4636 20.8828 21.7762 21.1954 22.1001C21.2066 22.1113 21.2066 22.1113 21.2178 22.1224C22.1893 23.094 23.1609 24.0544 24.1324 25.0259C24.2776 25.1711 24.4339 25.3274 24.5791 25.4726ZM15.3773 21.1844C15.221 20.6483 15.0535 20.1123 14.8971 19.5763C14.8524 19.42 14.8189 19.2524 14.7854 19.0849C14.7296 19.1073 14.6403 19.1296 14.6291 19.1631C14.4839 19.9783 14.3499 20.8047 14.2159 21.6199C14.5733 21.4971 14.9418 21.3742 15.2991 21.2514C15.3326 21.229 15.355 21.2067 15.3773 21.1844Z" fill="#16417F"></path><path d="M18.7162 21.7428C18.4482 22.2118 18.0909 22.3793 17.566 22.0778C17.2422 21.8991 17.0523 21.4859 16.8066 21.1732C17.097 21.1062 17.3985 21.0504 17.6889 20.9834C18.0239 21.2291 18.3701 21.4859 18.7162 21.7428Z" fill="#858585"></path><path d="M18.4596 21.1621C18.4372 21.0951 18.4149 21.0281 18.3926 20.9611C18.4707 20.8829 18.5489 20.8047 18.6383 20.7265C18.6718 20.693 18.6941 20.6707 18.7276 20.6372C18.9844 21.1956 19.2301 21.7428 19.487 22.3011C19.2413 22.0108 18.9956 21.7204 18.7499 21.4301C18.6494 21.3407 18.5489 21.2514 18.4596 21.1621Z" fill="#1C1C1C"></path><path d="M11.9715 30.4978C11.9045 30.777 11.8375 31.0673 11.7705 31.3465C11.8375 31.0562 11.9045 30.777 11.9715 30.4978Z" fill="#A7A7A7"></path><path d="M11.7704 31.3464C11.7034 31.5698 11.6476 31.782 11.5806 32.0053C11.6476 31.782 11.7034 31.5586 11.7704 31.3464Z" fill="#A7A7A7"></path><path d="M11.5805 32.0054C11.5135 32.1952 11.4576 32.3851 11.3906 32.5749C11.4576 32.3851 11.5135 32.1952 11.5805 32.0054Z" fill="#A7A7A7"></path><path d="M19.8779 38.0356C19.9114 38.0691 19.9561 38.1026 19.9896 38.1361C19.9561 38.1026 19.9114 38.0691 19.8779 38.0356Z" fill="#4A4A4A"></path><path d="M23.1717 37.0082C22.7027 37.4214 22.2337 37.8234 21.7647 38.2366C21.6642 38.2701 21.5748 38.2925 21.4743 38.326C21.0835 38.4488 20.6926 38.5716 20.3018 38.6945C20.3018 38.6498 20.3129 38.6163 20.3129 38.5716C20.3241 38.46 20.3353 38.3371 20.3353 38.2254C20.5586 37.8123 20.7708 37.4102 20.9941 36.9971C21.3068 36.9859 21.6307 36.9636 21.9433 36.9524C22.2895 36.9412 22.6357 36.9189 22.9819 36.9077C23.0601 36.9412 23.1159 36.9747 23.1717 37.0082Z" fill="#16417F"></path><path d="M22.9932 36.9077C23.049 36.9412 23.1048 36.9747 23.1718 37.0082C23.116 36.9747 23.0602 36.9412 22.9932 36.9077Z" fill="#1C1C1C"></path><path d="M24.6794 26.1426C24.6794 26.1537 24.6683 26.1761 24.6683 26.1872C24.2327 27.9405 23.8084 29.6826 23.3729 31.4359V31.447C23.3394 31.447 23.317 31.447 23.2835 31.447C22.58 31.4135 21.8765 31.38 21.1841 31.3465C21.5303 30.7212 21.8876 30.0846 22.2338 29.4593C22.781 28.7222 23.317 27.9852 23.8642 27.2481C24.1322 26.8908 24.4003 26.5223 24.6683 26.1649C24.6683 26.1537 24.6794 26.1537 24.6794 26.1426Z" fill="#16417F"></path><path d="M24.6797 26.1426C24.6797 26.1537 24.6685 26.1537 24.6685 26.1649C24.4005 26.5223 24.1325 26.8908 23.8645 27.2481C23.3173 27.9852 22.7813 28.7222 22.2341 29.4593C22.0107 28.8562 21.7985 28.2532 21.5752 27.6502C22.3681 27.2705 23.1609 26.8796 23.9538 26.4999C24.1883 26.3883 24.434 26.2654 24.6685 26.1537L24.6797 26.1426Z" fill="#D0E0F4"></path><path d="M17.3203 27.1365C17.7335 27.1588 18.1467 27.1811 18.5599 27.2035C18.6046 28.4095 18.638 29.6268 18.6827 30.8328C18.2249 29.5933 17.767 28.3649 17.3203 27.1365Z" fill="#D0E0F4"></path><path d="M17.6109 34.5515C17.4992 34.6297 17.3875 34.7078 17.2758 34.786C17.2647 35.1433 17.2535 35.5119 17.2535 35.8692C17.2758 35.9027 17.2982 35.9362 17.3205 35.9697C17.7784 35.9362 18.2474 35.8916 18.7052 35.8581C18.3479 35.4337 17.9794 34.987 17.6109 34.5515ZM27.3375 31.447C27.304 31.447 27.2705 31.447 27.2482 31.447H23.3732C23.3397 31.447 23.3173 31.447 23.2838 31.447C22.7031 31.983 22.1224 32.519 21.5417 33.0551C21.5529 33.7474 21.5752 34.4398 21.5864 35.1322C22.0554 35.724 22.5244 36.3159 23.0046 36.9189C23.0605 36.9524 23.1163 36.9859 23.1833 37.0194H27.4604C27.5162 36.9859 27.572 36.9524 27.639 36.9189C28.1081 36.3271 28.5771 35.7352 29.0573 35.1322C29.0685 34.4398 29.0908 33.7474 29.102 33.0551C28.4989 32.519 27.9182 31.983 27.3375 31.447ZM18.3814 20.9609C18.1469 20.9609 17.9124 20.9721 17.6779 20.9721C17.7002 21.1284 17.7225 21.2848 17.7449 21.4523C17.823 21.4746 17.9012 21.5081 17.9905 21.5305C18.0575 21.4746 18.1357 21.4188 18.2027 21.363C18.2809 21.296 18.3702 21.2289 18.4484 21.1619C18.4372 21.0949 18.4149 21.0279 18.3814 20.9609ZM20.2352 21.1508C19.7326 20.9833 19.2189 20.8158 18.7164 20.6371C18.9621 21.2513 19.0514 21.5751 18.9844 21.6086C18.9509 21.631 18.8728 21.564 18.7499 21.43C18.7388 21.5305 18.7276 21.631 18.7164 21.7315C18.5489 21.8878 18.3814 22.0442 18.2139 22.2005C18.0017 22.1558 17.7895 22.1112 17.5774 22.0665C17.3205 21.765 17.0748 21.4635 16.818 21.1619C16.8626 21.1173 16.9073 21.0838 16.952 21.0391C16.9967 20.9944 17.0413 20.9609 17.086 20.9163C17.1753 20.8381 17.2758 20.7488 17.3875 20.6594C17.3652 20.6594 17.3428 20.6483 17.3093 20.6483C17.2423 20.6371 17.1865 20.6259 17.1195 20.6147C17.0525 20.6036 16.9967 20.5924 16.9296 20.5812C16.9073 20.5812 16.885 20.5701 16.8626 20.5701C16.7733 20.5701 16.6728 20.5701 16.5835 20.5812C16.2373 20.7488 15.8911 20.9051 15.5449 21.0726C15.5561 21.0838 15.5672 21.0949 15.5784 21.1061C15.9469 21.4635 16.3266 21.832 16.6951 22.1893C16.7286 22.2228 16.751 22.2452 16.7845 22.2787C17.1865 22.5132 17.5997 22.7477 18.0017 22.9822C18.5266 23.0827 19.0514 23.1721 19.5875 23.2726C19.7215 23.1497 19.8443 23.038 19.9783 22.9152C20.0565 22.3122 20.1458 21.7315 20.2352 21.1508ZM16.349 7.79474C15.2546 7.19171 14.1602 6.57751 13.0658 5.97448C11.279 4.24356 9.49226 2.51263 7.7055 0.792874C8.49838 2.42329 9.28008 4.05371 10.0618 5.68413C10.1065 5.7623 10.14 5.85164 10.1846 5.92981C10.743 6.91253 11.3014 7.90641 11.8597 8.88913C12.0049 9.00081 12.1612 9.11248 12.3064 9.23532C12.9876 9.76018 13.6688 10.285 14.35 10.8099C14.3724 10.8211 14.3835 10.8322 14.4059 10.8546C15.0871 9.86069 15.7683 8.87797 16.4495 7.88408C16.4495 7.88408 16.4495 7.87291 16.4606 7.87291C16.4271 7.83941 16.3936 7.81708 16.349 7.79474ZM5.56139 0C5.2152 0.368519 4.86902 0.737038 4.52283 1.10556C4.4335 2.37862 4.34416 3.65169 4.24365 4.92476C5.2152 4.29939 6.18676 3.67403 7.15831 3.04866C7.34815 2.30045 7.52683 1.54108 7.71667 0.792874C6.9908 0.52486 6.27609 0.268014 5.56139 0ZM33.3455 34.7972C33.2338 34.719 33.1222 34.6408 32.9993 34.5627C32.6308 34.9982 32.2735 35.4337 31.9049 35.8692C32.3628 35.9027 32.8318 35.9474 33.2897 35.9809C33.312 35.9474 33.3343 35.9139 33.3567 35.8804C33.3679 35.5119 33.3567 35.1545 33.3455 34.7972ZM32.24 20.9609C32.2176 21.0279 32.1953 21.0949 32.173 21.1619C32.2511 21.2289 32.3405 21.296 32.4186 21.363C32.4856 21.4188 32.5638 21.4746 32.6308 21.5305C32.709 21.5081 32.7872 21.4746 32.8765 21.4523C32.8988 21.296 32.9212 21.1396 32.9435 20.9721C32.709 20.9721 32.4745 20.9721 32.24 20.9609ZM34.0379 20.5701C33.9485 20.5701 33.848 20.5701 33.7587 20.5589C33.7364 20.5589 33.714 20.5701 33.6917 20.5701C33.647 20.5812 33.6135 20.5813 33.5689 20.5924C33.5465 20.5924 33.5242 20.6036 33.5019 20.6036C33.4572 20.6147 33.4125 20.6148 33.3678 20.6259C33.3232 20.6371 33.2785 20.6371 33.2338 20.6483C33.446 20.8381 33.6247 20.9944 33.8034 21.1508C33.5465 21.4523 33.3008 21.7538 33.044 22.0553C32.8318 22.1 32.6196 22.1447 32.4075 22.1893C32.24 22.033 32.0724 21.8766 31.9049 21.7203C31.8938 21.6198 31.8826 21.5193 31.8714 21.4188C31.8826 21.1508 31.8938 20.8939 31.8938 20.6259C31.4024 20.8381 30.9111 21.0614 30.4197 21.2736C30.6542 21.6086 30.8887 21.9548 31.1344 22.2898C30.9781 22.4908 30.8106 22.6807 30.643 22.8817C30.7771 23.0045 30.8999 23.1162 31.0339 23.2391C31.5588 23.1385 32.0836 23.0492 32.6196 22.9487C33.0217 22.7142 33.4349 22.4797 33.8369 22.2452C33.8704 22.2117 33.8927 22.1893 33.9262 22.1558C34.2947 21.7985 34.6744 21.4411 35.0429 21.0726C35.0541 21.0614 35.0653 21.0503 35.0764 21.0391C34.7303 20.9051 34.3841 20.7376 34.0379 20.5701ZM37.5556 5.97448C36.4612 6.57751 35.3668 7.19171 34.2724 7.79474C34.2277 7.81708 34.1942 7.83941 34.1496 7.86175C34.1496 7.87292 34.1607 7.87291 34.1607 7.88408C34.8419 8.8668 35.512 9.84952 36.1932 10.8322C36.2155 10.8211 36.2267 10.8099 36.249 10.7876C36.9302 10.2627 37.6114 9.73784 38.2926 9.21298C38.4378 9.10131 38.5941 8.97847 38.7393 8.8668C39.2977 7.88408 39.856 6.8902 40.4144 5.90748C40.4591 5.82931 40.4926 5.73997 40.5372 5.6618C41.3301 4.03138 42.1118 2.40096 42.8935 0.77054C41.1291 2.5238 39.3423 4.24356 37.5556 5.97448ZM46.0985 1.10556C45.7523 0.737038 45.4062 0.368519 45.06 0C44.3453 0.268014 43.6306 0.52486 42.9159 0.792874C43.1057 1.54108 43.2844 2.30045 43.4742 3.04866C44.4458 3.67403 45.4173 4.29939 46.3889 4.92476C46.2884 3.64052 46.199 2.37862 46.0985 1.10556Z" fill="#1C1C1C"></path><path d="M19.1296 25.2939C18.2809 25.1041 17.4321 24.9142 16.5834 24.7244C16.5834 24.6686 16.5723 24.6127 16.5723 24.5569L16.5834 24.5457C17.0525 24.0209 17.5326 23.4848 18.0017 22.96C18.0575 22.9711 18.1133 22.9935 18.1692 23.0046C18.5154 23.7082 18.8727 24.4117 19.2189 25.1152C19.1854 25.1822 19.1519 25.2381 19.1296 25.2939Z" fill="#16417F"></path><path d="M19.5761 23.2503C19.7101 23.1274 19.833 23.0157 19.967 22.8929C20.3802 22.6249 20.7822 22.3569 21.1954 22.0889L21.2177 22.1112C20.5812 23.1163 19.9446 24.1101 19.3081 25.1152C19.3974 24.4898 19.4868 23.8756 19.5761 23.2503Z" fill="#4170B5"></path><path d="M19.5764 23.2503C19.4871 23.8757 19.3978 24.4899 19.2973 25.1153C19.2638 25.1153 19.2414 25.1153 19.2079 25.1153C18.8617 24.4117 18.5044 23.7082 18.1582 23.0046C18.6272 23.0828 19.1074 23.1721 19.5764 23.2503Z" fill="#16417F"></path><path d="M43.1837 3.51782C42.3015 4.24369 41.4192 4.9584 40.5482 5.68427C40.5147 5.76244 40.47 5.84061 40.4365 5.92995C41.1289 6.56648 41.8324 7.21418 42.5248 7.85072C42.7481 6.39897 42.9603 4.9584 43.1837 3.51782Z" fill="#D0D0D0"></path><path d="M42.5135 11.2457C42.5247 11.1563 42.5359 11.067 42.547 10.9665C42.5359 10.0284 42.5359 9.09039 42.5247 8.15234C42.145 8.69954 41.7653 9.24674 41.3856 9.79393C40.6486 10.8995 39.9004 12.005 39.1522 13.1106C38.9735 13.3786 38.7948 13.6466 38.605 13.9035C39.878 13.0213 41.1623 12.1391 42.4353 11.2457C42.4688 11.2568 42.4912 11.2568 42.5135 11.2457Z" fill="#D0E0F4"></path><path d="M35.8468 19.0962C35.2437 19.5876 34.6407 20.0901 34.0488 20.5814C34.4508 20.7824 34.8529 20.9946 35.2549 21.1956C35.4447 20.4921 35.6457 19.7886 35.8468 19.0962Z" fill="#011333"></path><path d="M30.6541 22.8929C30.2409 22.6249 29.8388 22.3569 29.4257 22.0889L29.4033 22.1112C30.0399 23.1163 30.6764 24.1101 31.3129 25.1152C31.2236 24.4898 31.1342 23.8756 31.0337 23.2503C30.9221 23.1386 30.7881 23.0157 30.6541 22.8929Z" fill="#4170B5"></path><path d="M42.5138 11.2455C43.0275 14.0485 43.5412 16.8515 44.0549 19.6545C43.0722 18.7053 42.0895 17.7449 41.1067 16.7957C41.5534 14.9531 42.0001 13.0993 42.458 11.2567C42.4691 11.2567 42.4915 11.2455 42.5138 11.2455ZM42.525 7.94002C42.5361 8.95624 42.5361 9.9613 42.5473 10.9775C43.1392 10.944 43.7199 10.9105 44.3117 10.8658C45.0041 8.87807 45.6965 6.90147 46.3777 4.9137C45.4061 4.28833 44.4346 3.66296 43.463 3.0376C43.3737 3.19394 43.2732 3.35028 43.1838 3.50662C42.9605 4.9472 42.7372 6.38777 42.525 7.82835C41.8326 7.19182 41.1291 6.54411 40.4367 5.90758C39.8783 6.8903 39.32 7.88419 38.7616 8.86691C39.6215 8.65473 40.4702 8.44255 41.3301 8.23037C41.7209 8.14103 42.123 8.04053 42.525 7.94002ZM8.074 10.9775C8.08517 9.93896 8.09634 8.88924 8.09634 7.85068C8.78871 7.21415 9.49224 6.56645 10.1846 5.92992C10.1511 5.85174 10.1064 5.77357 10.0729 5.68424C9.19073 4.95836 8.30851 4.24366 7.43747 3.51779C7.34813 3.36145 7.24763 3.20511 7.15829 3.04877C6.18674 3.67413 5.21518 4.2995 4.24363 4.92486C4.936 6.91263 5.62837 8.88924 6.30958 10.877C6.90144 10.8993 7.4933 10.9328 8.074 10.9775ZM14.216 21.6311C14.35 20.8159 14.484 19.9895 14.6292 19.1743C14.7073 19.1519 14.7967 19.1184 14.8749 19.0961C15.9357 17.1977 16.9966 15.2992 18.0575 13.4008C18.0017 13.3785 17.9459 13.345 17.89 13.3226C16.2484 14.0262 14.618 14.7185 12.9764 15.4221C12.9541 15.5114 12.9206 15.6119 12.8983 15.7013C12.5521 18.1357 12.2059 20.5702 11.8709 22.9935C12.6637 22.5356 13.4343 22.0778 14.216 21.6311ZM34.2724 7.79485C34.8531 6.46595 35.4449 5.14821 36.0256 3.81931C34.8754 3.95331 33.714 4.08732 32.5638 4.22133C33.0328 5.42739 33.4907 6.64462 33.9597 7.85068C34.0602 7.82835 34.1719 7.81718 34.2724 7.79485ZM16.6728 7.85068C17.1418 6.64462 17.5997 5.42739 18.0687 4.22133C16.9185 4.08732 15.7571 3.95331 14.6068 3.81931C15.1875 5.14821 15.7794 6.46595 16.3601 7.79485C16.4606 7.81718 16.5611 7.82835 16.6728 7.85068ZM16.6728 7.85068C17.1976 9.61511 17.7225 11.3795 18.2585 13.144C20.09 10.0283 21.9326 6.91263 23.764 3.79697C23.7752 3.80814 23.7752 3.81931 23.7752 3.83047C23.7752 3.81931 23.7752 3.80814 23.7752 3.79697C23.7752 3.77464 23.7752 3.76347 23.7752 3.74113C21.3965 5.11471 19.0402 6.47711 16.6728 7.85068C16.6616 7.85068 16.6616 7.85068 16.6728 7.85068C16.6616 7.85068 16.6728 7.85068 16.6728 7.85068ZM32.4409 38.7951C32.9658 40.5931 33.4907 42.391 34.0267 44.1889C34.183 44.2448 34.3505 44.3006 34.5069 44.3564C36.115 40.8834 37.7231 37.3992 39.3311 33.9262C38.985 34.1049 38.6276 34.2836 38.2814 34.4622C36.3383 35.9028 34.3952 37.3434 32.4409 38.7951ZM32.3739 13.144C32.8988 11.3795 33.4237 9.61511 33.9597 7.85068C31.5922 6.47711 29.2248 5.11471 26.8685 3.74113C27.6614 5.10354 28.4654 6.46594 29.2583 7.81718C30.2857 9.59278 31.3354 11.3684 32.3739 13.144ZM41.3078 20.4027C41.2743 22.6361 41.2407 24.8696 41.2072 27.1142C40.392 25.7853 39.5768 24.4676 38.7616 23.1387C38.6834 23.8757 38.6164 24.6239 38.5271 25.4503C38.1586 25.1488 37.8571 24.9031 37.5444 24.6462C36.852 25.2716 36.1596 25.897 35.4673 26.5223C35.4226 26.4888 35.3779 26.4665 35.3221 26.433C35.6795 25.2158 36.0368 23.9874 36.3942 22.7701C36.1596 22.4463 35.914 22.1336 35.6795 21.8098C35.1434 22.7255 34.6074 23.6412 34.0714 24.5681C33.848 25.4168 33.6247 26.2543 33.4013 27.103C32.843 26.4218 32.3404 25.7853 31.8714 25.2158C31.7709 25.0818 31.6592 24.9589 31.5699 24.8361C31.4582 24.6909 31.3466 24.5569 31.2349 24.4229C30.2298 23.1833 29.5821 22.3569 29.4481 22.1559C29.4481 22.1448 29.437 22.1448 29.437 22.1336C29.437 22.1336 29.437 22.1336 29.437 22.1224C29.4258 22.1001 29.3588 21.9773 29.2471 21.9661C29.1913 21.9661 29.1243 21.9996 29.0461 22.0889C28.2086 23.0493 27.3599 23.9985 26.5111 24.9478C26.4441 25.0259 26.3771 25.1041 26.3101 25.1823C26.3101 25.2046 26.299 25.2269 26.299 25.2493C26.2543 25.5731 26.1985 25.8858 26.1538 26.2096C26.3325 26.299 26.5111 26.3883 26.701 26.4777C27.4939 26.8685 28.2867 27.2594 29.0908 27.6614C30.0512 28.7223 31.0115 29.7832 31.9831 30.8441C32.0278 29.638 32.0613 28.4208 32.1059 27.2147C32.5415 27.1812 32.9881 27.1477 33.4237 27.1142C34.0937 26.9914 34.7526 26.8797 35.4226 26.7568C36.3272 27.3152 37.2317 27.8736 38.1362 28.4431C38.3149 27.5162 38.4936 26.6005 38.6723 25.6736C39.6885 26.3102 40.7159 26.9467 41.7321 27.5832C43.329 27.8736 44.9259 28.1528 46.5229 28.4431C44.7584 25.7518 43.0275 23.0716 41.3078 20.4027ZM32.5638 13.3896C33.6247 15.2881 34.6856 17.1865 35.7465 19.0849C35.8246 19.1073 35.914 19.1408 35.9921 19.1631C36.1261 19.9783 36.2602 20.8047 36.4053 21.6199C37.187 22.0778 37.9687 22.5245 38.7504 22.9823C38.4043 20.5479 38.0581 18.1134 37.7231 15.6901C37.7007 15.6008 37.6672 15.5003 37.6449 15.4109C36.0033 14.7074 34.3729 14.015 32.7313 13.3115C32.6755 13.3338 32.6196 13.3673 32.5638 13.3896ZM30.3527 38.6946C29.9842 38.6946 29.6045 38.6946 29.2359 38.6946C29.2024 38.5718 29.1801 38.449 29.1466 38.3261C29.0908 38.3038 29.0349 38.2926 28.9791 38.2703C28.9344 38.2591 28.9009 38.2479 28.8563 38.2368C28.4877 38.3708 28.1192 38.4936 27.7507 38.6276C27.773 38.784 27.8065 38.9403 27.8289 39.0967C27.3487 39.3535 26.8573 39.6104 26.3771 39.856C26.232 39.8449 26.0868 39.8449 25.9416 39.8449C25.9416 39.8337 25.9416 39.8114 25.9416 39.8002C25.7294 39.8114 25.5284 39.8114 25.3162 39.8225C25.1041 39.8114 24.903 39.8114 24.6909 39.8002C24.6909 39.8114 24.6909 39.8337 24.6909 39.8449C24.5457 39.856 24.4005 39.856 24.2554 39.856C23.7752 39.5992 23.2838 39.3423 22.8036 39.0967C22.8259 38.9403 22.8594 38.784 22.8818 38.6276C22.5133 38.4936 22.1447 38.3708 21.7762 38.2368C21.6757 38.2703 21.5864 38.2926 21.4859 38.3261C21.095 38.449 20.7042 38.5718 20.3133 38.6946C20.3021 38.6946 20.291 38.6946 20.2686 38.6946C19.5763 38.7281 18.8727 38.7616 18.1804 38.7951C19.4646 40.2134 20.76 41.6205 22.0442 43.0387C22.0442 43.0275 22.0442 43.0052 22.0442 42.994V43.128C23.1051 44.3564 24.1772 45.5737 25.2381 46.8021C25.3609 46.6681 25.4838 46.5229 25.6178 46.3889C26.6005 45.3057 27.5832 44.2224 28.5659 43.1392V43.0052C28.5659 43.0164 28.5659 43.0387 28.5659 43.0499C29.8501 41.6316 31.1455 40.2246 32.4298 38.8063C31.7597 38.7728 31.0897 38.7393 30.4197 38.7058C30.4085 38.6946 30.375 38.6946 30.3527 38.6946ZM26.0309 54.1613C26.0309 54.1278 26.0198 54.1054 26.0198 54.0719C25.7406 54.3958 25.4614 54.7308 25.1822 55.0547C24.9701 54.7866 24.7579 54.5186 24.5457 54.2506C23.8087 55.9815 23.0716 57.7125 22.3234 59.4434C21.9996 59.6444 21.6645 59.8343 21.3407 60.0353C22.5356 61.554 23.7193 63.0728 24.9142 64.5803C26.366 63.0616 27.8289 61.5428 29.2806 60.0353C28.9568 59.8343 28.6217 59.6444 28.2979 59.4434C27.5385 57.679 26.7903 55.9257 26.0309 54.1613ZM8.17451 11.2567C8.15217 11.2567 8.12984 11.2567 8.11867 11.2455C7.60498 14.0485 7.09128 16.8515 6.57759 19.6545C7.56031 18.7053 8.54302 17.7449 9.52574 16.7957C9.06789 14.9531 8.6212 13.0993 8.17451 11.2567ZM11.2902 33.9151C12.8983 37.3881 14.5063 40.8723 16.1144 44.3453C16.2708 44.2894 16.4383 44.2336 16.5946 44.1778C17.1195 42.3798 17.6443 40.5819 18.1804 38.784C16.2373 37.3322 14.2942 35.8917 12.3399 34.4399C11.9937 34.2724 11.6475 34.0937 11.2902 33.9151ZM21.3965 21.9661C21.296 21.9773 21.229 22.1001 21.2067 22.1224C21.2067 22.1224 21.2067 22.1224 21.2067 22.1336C21.2067 22.1448 21.1955 22.1448 21.1955 22.1559C21.0615 22.3569 20.4026 23.1833 19.4088 24.4229C19.2971 24.5569 19.1854 24.7021 19.0737 24.8361C18.9732 24.9589 18.8727 25.0818 18.7722 25.2158C18.3144 25.7853 17.8007 26.4218 17.2423 27.103C17.6778 27.1365 18.1245 27.17 18.5601 27.2035C18.6047 28.4096 18.6382 29.6268 18.6829 30.8329C19.6433 29.772 20.6037 28.7111 21.5752 27.6502C22.3681 27.2594 23.161 26.8685 23.965 26.4665C24.1995 26.3548 24.434 26.232 24.6685 26.1203C24.6462 25.9081 24.6127 25.6848 24.5904 25.4726C24.5904 25.4614 24.5904 25.4503 24.5904 25.4391C24.4452 25.2716 24.3 25.1041 24.1437 24.9366C23.295 23.9874 22.4574 23.0381 21.6087 22.0778C21.5194 21.9884 21.4635 21.9549 21.3965 21.9661ZM12.5297 28.4208C13.4343 27.8624 14.3388 27.304 15.2434 26.7345C15.9134 26.8574 16.5723 26.969 17.2423 27.0919C17.019 26.2432 16.7956 25.4056 16.5723 24.5569C16.0363 23.6412 15.5002 22.7255 14.9642 21.7986C14.7297 22.1224 14.484 22.4351 14.2495 22.759C14.6068 23.9762 14.9642 25.2046 15.3216 26.4218C15.2769 26.4553 15.2322 26.4777 15.1764 26.5112C14.484 25.8858 13.7916 25.2604 13.0993 24.6351C12.7866 24.8919 12.4851 25.1376 12.1165 25.4391C12.0272 24.6127 11.9602 23.8757 11.882 23.1275C11.0668 24.4564 10.2516 25.7741 9.43641 27.103C9.4029 24.8696 9.3694 22.6361 9.3359 20.3915C7.60498 23.0605 5.88522 25.7406 4.1543 28.4096C5.75121 28.1193 7.34813 27.8401 8.94505 27.5497C9.96127 26.9132 10.9887 26.2767 12.0049 25.6401C12.1724 26.5782 12.3511 27.505 12.5297 28.4208Z" fill="#72A1DB"></path><path d="M9.23513 9.79393C8.85544 9.24674 8.47575 8.69954 8.09607 8.15234C8.0849 9.09039 8.0849 10.0284 8.07373 10.9665C8.0849 11.0558 8.09607 11.1452 8.10723 11.2457C8.12957 11.2457 8.1519 11.2457 8.16307 11.2568C9.43614 12.1391 10.7204 13.0213 11.9934 13.9146C11.8148 13.6466 11.6361 13.3786 11.4462 13.1218C10.7204 12.005 9.97217 10.9107 9.23513 9.79393Z" fill="#D0E0F4"></path><path d="M14.3945 10.7431C13.5904 10.1513 12.7864 9.55939 11.9712 8.96753C12.027 10.6091 12.0829 12.2395 12.1499 13.8811C12.8981 12.8426 13.6463 11.7928 14.3945 10.7431Z" fill="#91A0B5"></path><path d="M12.9873 15.411C14.6289 14.7074 16.2593 14.0151 17.9009 13.3115C16.0359 13.613 14.1599 13.9146 12.2949 14.2272C12.5183 14.6181 12.7528 15.0201 12.9873 15.411Z" fill="#4170B5"></path><path d="M16.5836 20.5702C15.9805 20.0788 15.3775 19.5763 14.7856 19.085C14.9867 19.7885 15.1877 20.4809 15.3887 21.1844C15.7795 20.9834 16.1815 20.7824 16.5836 20.5702Z" fill="#011333"></path><path d="M24.2553 53.8821C22.1335 52.1511 20.0229 50.4202 17.9011 48.6893C17.9011 48.7005 17.9123 48.7116 17.9123 48.7228C19.3863 52.2963 20.8493 55.8698 22.3233 59.4434C21.9995 59.6444 21.6645 59.8342 21.3406 60.0352C20.1792 58.6058 19.0178 57.1876 17.8676 55.7582C17.6331 55.479 17.4097 55.1886 17.1752 54.9095C17.1306 54.8536 17.0747 54.7866 17.0301 54.7308C16.963 54.6414 16.8849 54.5521 16.8179 54.4739C16.7509 54.3958 16.695 54.3176 16.628 54.2394C16.628 54.2394 16.628 54.2394 16.628 54.2282C16.5722 54.1612 16.5275 54.1054 16.4717 54.0384C16.5164 50.7552 16.561 47.4721 16.6057 44.1889C19.1518 47.4162 21.698 50.6547 24.2553 53.8821ZM46.6903 28.3984C46.6233 28.4096 46.5563 28.4319 46.4781 28.4431C45.5959 30.4867 44.7137 32.5303 43.8315 34.5739C46.0091 35.2886 48.1867 36.0033 50.3643 36.718C49.1136 33.8927 47.9075 31.1455 46.6903 28.3984ZM44.0548 19.6544C42.0559 18.3702 40.0569 17.086 38.058 15.8017C38.7057 15.7682 39.3646 15.7459 40.0123 15.7124C41.3523 17.0301 42.7036 18.3479 44.0548 19.6544ZM19.498 18.1133C19.8219 18.627 20.1457 19.1407 20.4696 19.6544C21.5305 19.0402 22.5802 18.4372 23.6411 17.823C23.5741 17.2535 23.4959 16.6839 23.4289 16.1144C21.7538 15.1987 20.0899 14.2718 18.4148 13.3561C18.426 13.3114 18.4371 13.2668 18.4483 13.2221H32.1617C32.1728 13.2668 32.184 13.3114 32.1952 13.3561C30.7099 14.1713 29.2135 14.9977 27.7283 15.8129C27.6166 16.5611 27.4938 17.3093 27.3821 18.0687C28.2978 18.6047 29.2247 19.1296 30.1404 19.6656C30.1516 19.7326 30.1516 19.7884 30.1627 19.8554C30.2521 20.3356 30.3414 20.8158 30.4196 21.3072C30.911 21.095 31.4023 20.8717 31.8937 20.6595C32.0053 20.7712 32.117 20.8717 32.2287 20.9833C32.4632 20.9833 32.6977 20.9945 32.9322 20.9945C33.2226 21.0615 33.5241 21.1173 33.8144 21.1843C33.6358 21.028 33.4571 20.8605 33.2449 20.6818C33.4236 20.6483 33.5911 20.6148 33.7586 20.5925C33.8479 20.5925 33.9484 20.5925 34.0378 20.6036C34.6408 20.1123 35.2438 19.6098 35.8357 19.1184C35.8022 19.1072 35.7687 19.1072 35.724 19.0961C34.6632 17.1976 33.6023 15.3104 32.5525 13.4119C32.6084 13.3896 32.6642 13.3561 32.72 13.3338C34.3616 14.0373 35.9921 14.7297 37.6336 15.4332C37.6783 15.355 37.723 15.288 37.7676 15.2099L37.6336 15.4332C37.656 15.5225 37.6895 15.6231 37.7118 15.7124C38.0468 18.1469 38.393 20.5701 38.728 23.0046C37.9575 22.5579 37.1758 22.1001 36.4052 21.6534C36.0479 21.5305 35.6794 21.4077 35.322 21.2848C35.4114 21.4077 35.4895 21.5305 35.5789 21.6534C35.6124 21.7204 35.6459 21.7762 35.6794 21.8432C35.9139 22.1671 36.1596 22.4797 36.3941 22.8036C36.7738 23.429 37.1646 24.0543 37.5443 24.6797C37.857 24.9365 38.1585 25.1822 38.527 25.4837C38.6164 24.6574 38.6834 23.9203 38.7615 23.1721C39.5767 24.501 40.3919 25.8188 41.2072 27.1477C41.2407 24.9142 41.2742 22.6696 41.3077 20.4361C40.459 21.3519 39.6102 22.2564 38.7615 23.1721C39.6102 22.2564 40.459 21.3519 41.3077 20.4361C40.2244 18.9062 39.1412 17.3763 38.058 15.8352C38.7057 15.8017 39.3646 15.7794 40.0123 15.7459C39.6102 15.3327 39.2082 14.9195 38.8062 14.4952C38.7392 14.3053 38.6834 14.1155 38.6164 13.9368C38.5717 13.9256 38.5159 13.9256 38.4712 13.9145C37.7341 12.8871 36.9971 11.8485 36.2601 10.8211C35.5677 9.84958 34.8642 8.87803 34.1718 7.90648C34.1718 7.89531 34.1606 7.89531 34.1606 7.88414C34.0936 7.88414 34.0266 7.87298 33.9708 7.87298C33.5018 6.66691 33.0439 5.44968 32.5749 4.24362C30.6764 4.08728 28.7668 3.91977 26.8684 3.76343C29.2359 5.137 31.6033 6.4994 33.9596 7.87298C33.4347 9.6374 32.9099 11.4018 32.3739 13.1663C31.3353 11.3907 30.2968 9.61507 29.247 7.83948C28.4542 6.47707 27.6501 5.11467 26.8572 3.76343C25.8298 3.78576 24.8025 3.79693 23.7751 3.81926C23.7751 3.83043 23.7751 3.8416 23.7751 3.85277C23.7751 3.8416 23.7639 3.83043 23.7639 3.81926C21.9325 6.93493 20.0899 10.0506 18.2585 13.1663C17.7336 11.4018 17.2087 9.6374 16.6727 7.87298C19.0402 6.4994 21.4076 5.137 23.7639 3.76343C21.8655 3.91977 19.9559 4.08728 18.0574 4.24362C17.5884 5.44968 17.1306 6.66691 16.6615 7.87298C16.5945 7.87298 16.5275 7.88414 16.4605 7.88414C15.0199 9.89425 13.5794 11.9044 12.1388 13.9145C12.0941 13.9256 12.0383 13.9256 11.9936 13.9368C11.9266 14.1266 11.8708 14.3165 11.8038 14.4952C11.4018 14.9083 10.9997 15.3215 10.5977 15.7459C9.24648 17.0636 7.89524 18.3702 6.55517 19.6879C8.55411 18.4037 10.553 17.1195 12.552 15.8352C11.4688 17.3651 10.3855 18.8951 9.30231 20.4361C10.151 21.3519 10.9997 22.2564 11.8484 23.1721C10.9997 22.2564 10.151 21.3519 9.30231 20.4361C9.33581 22.6696 9.36932 24.9142 9.40282 27.1477C10.218 25.8188 11.0332 24.501 11.8484 23.1721C11.9266 23.9092 11.9936 24.6574 12.083 25.4837C12.4515 25.1822 12.753 24.9365 13.0657 24.6797C13.4454 24.0543 13.8362 23.429 14.2159 22.8036C14.4504 22.4797 14.6961 22.1671 14.9306 21.8432C14.9641 21.7762 14.9976 21.7204 15.0311 21.6534C15.1205 21.5305 15.1986 21.4077 15.288 21.2848C14.9306 21.4077 14.5621 21.5305 14.2047 21.6534C13.4342 22.1001 12.6525 22.5579 11.8819 23.0046C12.217 20.5701 12.5632 18.1469 12.8982 15.7124C12.9205 15.6231 12.954 15.5225 12.9763 15.4332C12.7418 15.0424 12.5073 14.6403 12.2728 14.2495C14.1377 13.948 16.0138 13.6464 17.8788 13.3338C17.9346 13.3561 17.9904 13.3896 18.0463 13.4119C16.9854 15.3104 15.9245 17.1976 14.8748 19.0961C14.8413 19.1072 14.8078 19.1072 14.7631 19.1184C15.3661 19.6098 15.9692 20.1123 16.561 20.6036C16.6504 20.6036 16.7509 20.6036 16.8402 20.5925C17.0077 20.626 17.1752 20.6483 17.3539 20.6818C17.1417 20.8717 16.963 21.028 16.7844 21.1843C17.0747 21.1173 17.3762 21.0615 17.6666 20.9945C17.9011 20.9945 18.1356 20.9833 18.3701 20.9833C18.4818 20.8717 18.5935 20.7712 18.7051 20.6595C18.9173 20.7488 19.1183 20.8382 19.3305 20.9275C19.6097 21.0503 19.9 21.1732 20.1792 21.3072C20.2686 20.827 20.3579 20.3468 20.4361 19.8554C20.4472 19.7884 20.4472 19.7326 20.4584 19.6656C20.1457 19.1407 19.8219 18.627 19.498 18.1133C19.23 18.8839 18.962 19.6544 18.694 20.425C18.962 19.6433 19.23 18.8839 19.498 18.1133ZM31.9272 20.4138C31.9272 20.425 31.9272 20.4361 31.9272 20.4361C31.9272 20.4361 31.9272 20.425 31.9272 20.4138C31.9272 20.4026 31.9272 20.3915 31.9383 20.3803C31.9272 20.3915 31.9272 20.4026 31.9272 20.4138ZM32.72 13.3114C32.9769 13.3561 33.2337 13.3896 33.4906 13.4343C33.2337 13.4008 32.9769 13.3561 32.72 13.3114ZM32.5079 18.5265C32.5414 18.5712 32.5637 18.6159 32.5972 18.6717C32.5637 18.6159 32.5414 18.5712 32.5079 18.5265ZM4.14304 28.4542C5.02526 30.4978 5.90747 32.5414 6.78968 34.585C4.61207 35.2998 2.43445 36.0145 0.256836 36.7292C1.50757 33.8927 2.71363 31.1567 3.93087 28.4096C3.99787 28.4207 4.06487 28.4319 4.14304 28.4542ZM34.0266 44.1889C34.0713 47.4721 34.116 50.7552 34.1606 54.0384C34.1048 54.1054 34.0601 54.1612 34.0043 54.2282C33.9373 54.3064 33.8814 54.3846 33.8144 54.4628C33.7474 54.5521 33.6693 54.6414 33.6023 54.7308C33.5576 54.7866 33.5018 54.8536 33.4571 54.9095C33.2226 55.1886 32.9992 55.4678 32.7759 55.7582C31.6145 57.1876 30.4531 58.617 29.2917 60.0352C28.9678 59.8342 28.6328 59.6444 28.309 59.4434C29.7831 55.8698 31.246 52.2963 32.72 48.7228C32.72 48.7116 32.7312 48.7005 32.7312 48.6893C30.4978 50.5095 28.2755 52.3298 26.042 54.1612C26.042 54.1277 26.0309 54.1054 26.0309 54.0719C28.6887 50.7776 31.3576 47.4832 34.0266 44.1889ZM37.4215 48.9126C39.0295 46.601 40.6488 44.2894 42.2569 41.9778C41.8549 44.2782 41.4417 46.5898 41.0396 48.8903C40.0123 49.0131 38.996 49.136 37.9687 49.2588C37.8011 49.1471 37.6113 49.0355 37.4215 48.9126ZM43.8315 34.5739C43.3066 37.0418 42.7817 39.5098 42.268 41.9778C41.3858 39.2865 40.4925 36.584 39.6102 33.8927C39.6437 33.8257 39.6772 33.7587 39.7219 33.6805C41.0843 33.982 42.4579 34.2835 43.8315 34.5739ZM32.3627 38.7839C32.3627 38.2814 32.3515 37.7789 32.3515 37.2764C32.4074 37.2094 32.4632 37.1535 32.519 37.0865C33.6246 36.3718 34.7413 35.6459 35.8469 34.9312C37.0083 34.585 38.1697 34.25 39.3311 33.9038C38.9849 34.0825 38.6275 34.2612 38.2813 34.4399C36.3382 35.8916 34.3951 37.3322 32.4409 38.7839C32.4185 38.7951 32.3962 38.7839 32.3627 38.7839ZM33.3901 27.103C32.7647 26.5 32.1282 25.8969 31.5028 25.2939C32.3515 25.104 33.2002 24.9142 34.049 24.7244C33.8256 25.5172 33.6023 26.3101 33.3901 27.103ZM8.3531 41.9778C9.96118 44.2894 11.5804 46.601 13.1885 48.9126C12.9987 49.0355 12.82 49.1471 12.6302 49.27C11.6028 49.1471 10.5865 49.0243 9.55916 48.9015C9.16831 46.5898 8.76628 44.2782 8.3531 41.9778ZM11.0221 33.8927C10.1399 36.584 9.24648 39.2865 8.36426 41.9778C7.8394 39.5098 7.31454 37.0418 6.80085 34.5739C8.17442 34.2724 9.54799 33.982 10.9216 33.6805C10.9439 33.7587 10.9774 33.8257 11.0221 33.8927ZM18.1021 37.0977C18.1579 37.1647 18.2138 37.2205 18.2696 37.2875C18.2696 37.7901 18.2585 38.2926 18.2585 38.7951C18.2361 38.7951 18.2026 38.7951 18.1803 38.7951C16.2372 37.3434 14.2941 35.9028 12.3398 34.451C11.9936 34.2724 11.6363 34.0937 11.2901 33.915C12.4515 34.2612 13.6129 34.5962 14.7743 34.9424C15.891 35.6571 16.9965 36.383 18.1021 37.0977ZM24.6796 26.1426C24.6796 26.1538 24.6685 26.1761 24.6685 26.1873C24.8806 27.9405 25.0928 29.6938 25.3162 31.4359C25.5618 29.8278 25.8187 28.2197 26.0644 26.6116C26.0755 26.5223 26.0867 26.433 26.109 26.3548C26.1202 26.3101 26.1202 26.2654 26.1314 26.2319C26.1314 26.2208 26.1314 26.2096 26.1314 26.2096C26.176 25.8858 26.2319 25.5731 26.2765 25.2492C26.2765 25.2269 26.2877 25.2046 26.2877 25.1822C26.3324 24.8919 26.377 24.6127 26.4217 24.3223C26.444 24.5345 26.4664 24.7355 26.4999 24.9477C26.4999 24.97 26.5111 25.0035 26.5111 25.0259C26.5669 25.5061 26.6227 25.9974 26.6786 26.4776C26.6786 26.4888 26.6786 26.5 26.6786 26.5C26.7121 26.7568 26.7344 27.0025 26.7679 27.2593C26.9354 28.6552 27.0917 30.0511 27.2593 31.447V31.4582H23.3842V31.447C23.5517 30.0511 23.7081 28.6552 23.8756 27.2593C23.9091 27.0136 23.9314 26.7568 23.9649 26.5111C23.9649 26.5 23.9649 26.4888 23.9649 26.4888C24.0208 26.0086 24.0766 25.5172 24.1324 25.037C24.1324 25.0147 24.1436 24.9924 24.1436 24.9589C24.2106 24.4228 24.2664 23.8868 24.3334 23.362C24.4228 24.0655 24.5009 24.7579 24.5903 25.4614C24.5903 25.4726 24.5903 25.4837 24.5903 25.4949C24.6126 25.7071 24.6461 25.9304 24.6685 26.1426C24.6685 26.1538 24.6685 26.1649 24.6685 26.1761C24.6685 26.1538 24.6796 26.1426 24.6796 26.1426ZM25.9304 39.8337C25.9304 39.8225 25.9304 39.8002 25.9304 39.789C25.7182 39.8002 25.5172 39.8002 25.305 39.8113C25.0928 39.8002 24.8918 39.8002 24.6796 39.789C24.6796 39.8002 24.6796 39.8225 24.6796 39.8337C24.5344 39.8448 24.3893 39.8448 24.2441 39.8448C23.7639 39.588 23.2725 39.3311 22.7924 39.0854C22.8147 38.9291 22.8482 38.7728 22.8705 38.6164C22.502 38.4824 22.1335 38.3596 21.765 38.2256C22.234 37.8124 22.703 37.4104 23.172 36.9972H27.4491C27.4491 37.0195 27.4491 37.053 27.4603 37.0753C27.9293 37.455 28.3872 37.8459 28.8562 38.2256C28.4877 38.3596 28.1191 38.4824 27.7506 38.6164C27.773 38.7728 27.8065 38.9291 27.8288 39.0854C27.3486 39.3423 26.8572 39.5991 26.377 39.8448C26.2207 39.8448 26.0755 39.8337 25.9304 39.8337ZM16.5834 24.7244C17.4321 24.9142 18.2808 25.104 19.1295 25.2939C18.5041 25.8969 17.8676 26.5 17.2422 27.103C17.0189 26.3101 16.7955 25.5172 16.5834 24.7244Z" fill="#4170B5"></path><path d="M20.1455 21.4189C20.0896 21.8991 20.0338 22.3793 19.9668 22.8595V22.893C20.38 22.625 20.782 22.3569 21.1952 22.0889C20.8825 21.7762 20.5587 21.4636 20.246 21.1509C20.2013 21.2402 20.1678 21.3296 20.1455 21.4189Z" fill="#011333"></path><path d="M13.0879 24.6461C13.4676 24.0208 13.8584 23.3954 14.2381 22.77C14.5955 23.9873 14.9528 25.2156 15.3102 26.4329C15.2655 26.4664 15.2208 26.4887 15.165 26.5222C14.4726 25.8968 13.7803 25.2715 13.0879 24.6461Z" fill="#D0E0F4"></path><path d="M16.7171 22.1782C16.7395 22.2005 16.7618 22.234 16.7841 22.2563C16.7171 23.0157 16.6501 23.7863 16.5831 24.5456L16.572 24.5568C16.0359 23.6411 15.4999 22.7254 14.9639 21.7985C14.9974 21.7315 15.0309 21.6756 15.0644 21.6086C15.6116 21.8097 16.1588 21.9995 16.7171 22.1782Z" fill="#16417F"></path><path d="M16.7176 22.1782C16.1593 21.9884 15.6121 21.8097 15.0537 21.6199C15.143 21.497 15.2212 21.3742 15.3106 21.2514C15.3887 21.1844 15.4669 21.1174 15.5451 21.0615C15.9359 21.4412 16.3268 21.8097 16.7176 22.1782Z" fill="#16417F"></path><path d="M20.1903 21.2849C20.1121 21.8098 20.0451 22.3346 19.9669 22.8595C19.7994 22.6697 19.6431 22.491 19.4756 22.3011C19.7101 21.9661 19.9558 21.6311 20.1903 21.2849Z" fill="#011333"></path><path d="M18.4593 21.1619C18.5598 21.2512 18.6491 21.3405 18.7496 21.441C18.7384 21.5416 18.7273 21.6421 18.7161 21.7426C18.4704 21.6756 18.2359 21.6086 17.9902 21.5416C18.1466 21.4075 18.3029 21.2847 18.4593 21.1619Z" fill="#606060"></path><path d="M0 43.7981C0.871046 43.7981 1.73092 43.7981 2.60197 43.7981C2.70247 45.73 2.80298 47.6731 2.90349 49.6051C1.93193 47.662 0.971551 45.73 0 43.7981Z" fill="#4170B5"></path><path d="M18.5263 64.5356C19.04 65.7082 19.5425 66.8808 20.0562 68.0533C19.1405 69.0695 18.2248 70.0969 17.3091 71.1132C17.7111 68.9244 18.1243 66.7244 18.5263 64.5356Z" fill="#4170B5"></path><path d="M23.4849 69.3489C24.6574 70.0077 25.83 70.6778 27.0025 71.3366C26.902 72.2077 26.8015 73.0676 26.701 73.9386C25.629 72.4087 24.5569 70.8788 23.4849 69.3489Z" fill="#16417F"></path><path d="M9.92773 59.075C10.7429 59.6892 11.5582 60.3034 12.3734 60.9064C12.2729 62.9947 12.1724 65.0829 12.0718 67.1712C11.3571 64.4799 10.6424 61.7774 9.92773 59.075Z" fill="#72A1DB"></path><path d="M11.9153 57.0872C12.6077 56.0934 13.2889 55.0995 13.9812 54.1056C13.1884 53.1675 12.4066 52.2183 11.6138 51.2803C11.7143 53.2122 11.8148 55.1553 11.9153 57.0872Z" fill="#D0E0F4"></path><path d="M5.22607 50.063C6.07479 50.9675 6.93467 51.8721 7.78338 52.7655C7.38136 54.1167 6.9905 55.4679 6.58848 56.8192C6.13062 54.5746 5.67276 52.3188 5.22607 50.063Z" fill="#011333"></path><path d="M21.5527 61.9785C22.2898 62.8161 23.0268 63.6648 23.775 64.5023C23.2948 65.418 22.8035 66.3337 22.3233 67.2495C22.0553 65.4962 21.8096 63.7429 21.5527 61.9785Z" fill="#16417F"></path><path d="M22.3121 67.2604C21.5751 66.4229 20.838 65.5742 20.0898 64.7366C20.57 63.8209 21.0614 62.9052 21.5416 61.9895C21.8096 63.7428 22.0553 65.496 22.3121 67.2604Z" fill="#4170B5"></path><path d="M15.087 62.9387C14.35 62.1011 13.613 61.2524 12.8647 60.4149C13.3449 59.4992 13.8363 58.5834 14.3165 57.6677C14.5845 59.421 14.8302 61.1742 15.087 62.9387Z" fill="#4170B5"></path><path d="M15.2766 54.1055C15.4218 54.0274 16.2593 55.1776 17.8004 57.5451C17.9009 58.4608 18.0014 59.3765 18.1019 60.2922C16.0472 56.272 15.0979 54.206 15.2766 54.1055Z" fill="#4170B5"></path><path d="M15.355 63.2849C15.6342 63.7204 15.9133 64.156 16.1925 64.5803C16.0362 64.8818 15.891 65.1945 15.7347 65.496C15.6118 64.759 15.489 64.022 15.355 63.2849Z" fill="#011333"></path><path d="M42.279 49.8953C41.4079 49.8953 40.5481 49.8953 39.677 49.8953C39.5765 51.8272 39.476 53.7703 39.3755 55.7022C40.3359 53.7703 41.3074 51.8384 42.279 49.8953Z" fill="#16417F"></path><path d="M52.006 40.2244C51.135 40.2244 50.2751 40.2244 49.4041 40.2244C49.3036 42.1563 49.203 44.0994 49.1025 46.0313C50.0741 44.0994 51.0345 42.1563 52.006 40.2244Z" fill="#4170B5"></path><path d="M47.7848 45.0039C47.2711 46.1765 46.7686 47.349 46.2549 48.5216C47.1706 49.5378 48.0863 50.5652 49.002 51.5814C48.6 49.3926 48.1868 47.2039 47.7848 45.0039Z" fill="#16417F"></path><path d="M32.1168 63.7761C31.6031 64.9487 31.1006 66.1212 30.5869 67.2938C31.5026 68.31 32.4183 69.3374 33.3341 70.3536C32.932 68.1537 32.5188 65.9649 32.1168 63.7761Z" fill="#4170B5"></path><path d="M41.8771 56.7407C41.3634 57.9133 40.8609 59.0858 40.3472 60.2584C41.2629 61.2746 42.1786 62.302 43.0943 63.3182C42.6923 61.1294 42.2791 58.9295 41.8771 56.7407Z" fill="#1C1C1C"></path><path d="M31.5138 61.0291C30.3412 61.6879 29.1687 62.358 27.9961 63.0168C28.0966 63.8879 28.1971 64.7478 28.2976 65.6188C29.3697 64.0777 30.4417 62.559 31.5138 61.0291Z" fill="#011333"></path><path d="M38.5716 59.7224C37.7564 60.3366 36.9412 60.9508 36.126 61.5538C36.2265 63.6421 36.327 65.7304 36.4275 67.8187C37.1422 65.1162 37.8569 62.4249 38.5716 59.7224Z" fill="#72A1DB"></path><path d="M38.9737 57.7457C38.2813 56.7518 37.6001 55.7579 36.9077 54.764C37.7006 53.826 38.4823 52.8768 39.2752 51.9387C39.1747 53.8707 39.0742 55.8026 38.9737 57.7457Z" fill="#D0E0F4"></path><path d="M45.7634 46.2434C44.9146 47.148 44.0548 48.0525 43.2061 48.9459C43.6081 50.2971 43.9989 51.6484 44.4009 52.9996C44.8588 50.755 45.3055 48.4992 45.7634 46.2434Z" fill="#011333"></path><path d="M24.9253 69.3486C25.6623 68.511 26.3994 67.6623 27.1476 66.8248C26.6674 65.9091 26.176 64.9934 25.6958 64.0776C25.439 65.8309 25.1821 67.5953 24.9253 69.3486Z" fill="#4170B5"></path><path d="M43.4966 59.3762C44.2336 58.5386 44.9707 57.6899 45.7189 56.8524C45.2387 55.9367 44.7473 55.0209 44.2671 54.1052C44.0103 55.8585 43.7534 57.6229 43.4966 59.3762Z" fill="#4170B5"></path><path d="M34.9425 54.1053C34.7973 54.0271 33.9598 55.1773 32.4187 57.5448C32.3182 58.4605 32.2177 59.3762 32.1172 60.292C34.172 56.2717 35.1212 54.2058 34.9425 54.1053Z" fill="#4170B5"></path><path d="M30.5983 70.5322C30.3191 70.9677 30.0399 71.4033 29.7607 71.8276C29.9171 72.1291 30.0623 72.4418 30.2186 72.7433C30.3414 72.0175 30.4643 71.2804 30.5983 70.5322Z" fill="#011333"></path></svg>