<svg xmlns="http://www.w3.org/2000/svg" width="60" height="60" viewBox="0 0 60 60" fill="none"><ellipse cx="30" cy="29.7087" rx="30" ry="29.7087" fill="#4170B5"></ellipse><path d="M29.91 29.7087C37.99 29.7087 44.57 27.9856 45 25.8069V20.1128C44.57 22.2914 38 24.0145 29.91 24.0145C25.9687 24.0899 22.0382 23.5792 18.25 22.4994V20.5188C22.0393 21.5919 25.9697 22.096 29.91 22.0141C38 22.0339 44.52 20.3108 45 18.152C44.8 14.7751 35.52 13.864 30 13.864C24.48 13.864 15 14.785 15 18.251V40.6118C15 44.0679 24.43 44.9988 30 44.9988C35.57 44.9988 45 44.0778 45 40.6118V35.4623C44.57 37.631 38 39.3343 29.91 39.3343C25.9712 39.4258 22.0408 38.9318 18.25 37.8687V35.8881C22.0408 36.9512 25.9712 37.4452 29.91 37.3537C38 37.3537 44.57 35.6504 45 33.4817V27.7875C44.57 29.9661 38 31.6893 29.91 31.6893C25.9697 31.7711 22.0393 31.2671 18.25 30.1939V28.2133C22.0393 29.2865 25.9697 29.7905 29.91 29.7087V29.7087Z" fill="white" fill-opacity="0.73"></path></svg>